<svg xmlns="http://www.w3.org/2000/svg" xmlns:xlink="http://www.w3.org/1999/xlink" viewBox="0 0 2772.39 2051.49"><defs><style>.cls-1{isolation:isolate;}.cls-2,.cls-3{fill:#fff;}.cls-3{stroke:#fff;stroke-miterlimit:10;stroke-width:11.46px;}.cls-4{fill-rule:evenodd;}.cls-5{mix-blend-mode:multiply;}.cls-6{fill:url(#linear-gradient);}.cls-7{fill:url(#linear-gradient-2);}.cls-8{fill:url(#linear-gradient-3);}</style><linearGradient id="linear-gradient" x1="1019.06" y1="1357.75" x2="934.93" y2="1309.18" gradientUnits="userSpaceOnUse"><stop offset="0" stop-color="#fff" stop-opacity="0"/><stop offset="0.15" stop-color="#dbdbdc" stop-opacity="0.28"/><stop offset="0.31" stop-color="#babbbd" stop-opacity="0.54"/><stop offset="0.48" stop-color="#a1a2a4" stop-opacity="0.74"/><stop offset="0.64" stop-color="#8e9093" stop-opacity="0.89"/><stop offset="0.82" stop-color="#848688" stop-opacity="0.97"/><stop offset="1" stop-color="#808285"/></linearGradient><linearGradient id="linear-gradient-2" x1="772.41" y1="993.23" x2="879.68" y2="931.3" xlink:href="#linear-gradient"/><linearGradient id="linear-gradient-3" x1="959.76" y1="1100.41" x2="911.22" y2="1184.49" xlink:href="#linear-gradient"/></defs><g class="cls-1"><g id="Layer_1" data-name="Layer 1"><path d="M2643.05,1197.32c0,66.21-74.61,124.23-87,186.79-12.74,64.47,33.75,146.53,9.15,205.85-25,60.36-116.19,85.41-152.11,139-36.18,54.06-24.66,147.79-70.49,193.63S2203,1957,2149,1993.13c-53.65,35.93-78.68,127.08-139,152.1-59.31,24.59-141.38-21.89-205.85-9.13-62.57,12.37-120.59,87-186.79,87s-124.22-74.59-186.79-87c-64.48-12.76-146.54,33.72-205.86,9.13-60.36-25-85.39-116.17-139-152.1-54.06-36.19-147.79-24.67-193.62-70.51s-34.32-139.57-70.5-193.62c-35.92-53.64-127.07-78.69-152.1-139-24.6-59.32,21.9-141.38,9.15-205.85-12.38-62.57-87-120.58-87-186.79s74.61-124.22,87-186.8c12.75-64.47-33.75-146.53-9.15-205.85,25-60.35,116.19-85.4,152.11-139,36.18-54,24.66-147.78,70.5-193.62s139.56-34.31,193.61-70.5c53.65-35.92,78.69-127.06,139-152.09,59.32-24.59,141.39,21.89,205.86,9.13,62.57-12.37,120.59-87,186.79-87s124.22,74.6,186.79,87c64.48,12.75,146.54-33.73,205.86-9.14,60.36,25,85.41,116.18,139,152.09,54.06,36.19,147.79,24.68,193.63,70.51s34.31,139.57,70.5,193.63c35.91,53.64,127.06,78.69,152.09,139,24.6,59.32-21.89,141.38-9.15,205.85C2568.44,1073.1,2643.05,1131.12,2643.05,1197.32Z" transform="translate(-231.86 -171.57)"/><circle class="cls-2" cx="1385.44" cy="1025.76" r="922.6"/><circle cx="1385.44" cy="1025.76" r="885.35"/><circle class="cls-3" cx="1385.44" cy="1025.76" r="829.64"/><path class="cls-4" d="M290.81,1682c112.33-30.42,232.78-56.93,359.57-79.55.39-2,.77-3.94,1.16-5.91l-71-13.67-9-1.79-4.55,1-.21-1.9-5.08-1-2.6-21.45c-15.59-128.33-31.16-185.64-46.36-314-97.23,24.79-191.13,52.56-280.88,83.12l187,97.18L410,1441.86C370.75,1521.51,330.75,1602.06,290.81,1682Z" transform="translate(-231.86 -171.57)"/><path class="cls-4" d="M2945.29,1682c-112.32-30.42-232.77-56.93-359.57-79.55q-.57-3-1.15-5.91l71-13.67,9-1.79,4.55,1,.21-1.9,5.07-1,2.61-21.45c15.59-128.33,31.16-185.64,46.36-314,97.23,24.79,191.13,52.56,280.88,83.12L2817.3,1424l8.79,17.84C2865.36,1521.51,2905.36,1602.06,2945.29,1682Z" transform="translate(-231.86 -171.57)"/><path d="M994.85,1557.57h8.91l24.9,57.81H1016.9l-5.38-13.24H986.44l-5.23,13.24H969.7Zm13.07,35.75L999,1569.8,990,1593.32Z" transform="translate(-231.86 -171.57)"/><path d="M1063.87,1569.64a12.72,12.72,0,0,0-4.62-3.55,13.66,13.66,0,0,0-6-1.44,14.73,14.73,0,0,0-3.59.46,11,11,0,0,0-3.27,1.39,7.49,7.49,0,0,0-2.41,2.44,6.78,6.78,0,0,0-.94,3.64,6.47,6.47,0,0,0,.82,3.35,7.25,7.25,0,0,0,2.25,2.37,14.31,14.31,0,0,0,3.46,1.71c1.37.5,2.86,1,4.5,1.48,1.85.6,3.76,1.28,5.75,2a22.93,22.93,0,0,1,5.47,3,15,15,0,0,1,4.09,4.74,14.38,14.38,0,0,1,1.59,7.11,18.08,18.08,0,0,1-1.71,8.11,16.76,16.76,0,0,1-4.58,5.77,19.44,19.44,0,0,1-6.69,3.42,28,28,0,0,1-8.09,1.16,30.38,30.38,0,0,1-11-2.1,21.43,21.43,0,0,1-8.82-6.15l7.35-6.88a15,15,0,0,0,5.68,4.67,16,16,0,0,0,7,1.71,15.78,15.78,0,0,0,3.68-.46,9.48,9.48,0,0,0,3.38-1.5,8.45,8.45,0,0,0,2.45-2.64,7.75,7.75,0,0,0,1-4,6.41,6.41,0,0,0-1.06-3.8,9.84,9.84,0,0,0-2.86-2.63,21.85,21.85,0,0,0-4.25-1.91l-5.15-1.71a55.38,55.38,0,0,1-5.22-2,17.47,17.47,0,0,1-4.69-3,14.54,14.54,0,0,1-3.4-4.6,16,16,0,0,1-1.31-6.84,14.87,14.87,0,0,1,1.85-7.59,16.18,16.18,0,0,1,4.82-5.26,21.46,21.46,0,0,1,6.78-3.1,29.58,29.58,0,0,1,7.71-1,27.59,27.59,0,0,1,8.94,1.55,22.29,22.29,0,0,1,7.89,4.64Z" transform="translate(-231.86 -171.57)"/><path d="M1110.74,1569.64a12.68,12.68,0,0,0-4.61-3.55,13.74,13.74,0,0,0-6-1.44,14.79,14.79,0,0,0-3.59.46,11.13,11.13,0,0,0-3.27,1.39,7.49,7.49,0,0,0-2.41,2.44,6.78,6.78,0,0,0-.94,3.64,6.57,6.57,0,0,0,.82,3.35,7.25,7.25,0,0,0,2.25,2.37,14.49,14.49,0,0,0,3.46,1.71c1.37.5,2.86,1,4.5,1.48,1.85.6,3.76,1.28,5.76,2a23.32,23.32,0,0,1,5.47,3,15.29,15.29,0,0,1,4.09,4.74,14.5,14.5,0,0,1,1.58,7.11,18.08,18.08,0,0,1-1.71,8.11,16.76,16.76,0,0,1-4.58,5.77,19.35,19.35,0,0,1-6.69,3.42,28,28,0,0,1-8.09,1.16,30.38,30.38,0,0,1-11-2.1,21.4,21.4,0,0,1-8.81-6.15l7.34-6.88a15,15,0,0,0,5.68,4.67,16,16,0,0,0,7,1.71,15.78,15.78,0,0,0,3.68-.46,9.53,9.53,0,0,0,3.39-1.5,8.69,8.69,0,0,0,2.45-2.64,7.85,7.85,0,0,0,.94-4,6.41,6.41,0,0,0-1.06-3.8,9.72,9.72,0,0,0-2.86-2.63,21.58,21.58,0,0,0-4.25-1.91l-5.15-1.71c-1.74-.55-3.47-1.21-5.22-2a17.47,17.47,0,0,1-4.69-3,14.54,14.54,0,0,1-3.4-4.6,16,16,0,0,1-1.31-6.84,14.87,14.87,0,0,1,1.85-7.59,16.29,16.29,0,0,1,4.82-5.26,21.46,21.46,0,0,1,6.78-3.1,29.58,29.58,0,0,1,7.71-1,27.64,27.64,0,0,1,9,1.55,22.16,22.16,0,0,1,7.88,4.64Z" transform="translate(-231.86 -171.57)"/><path d="M1125.35,1586.3a32.23,32.23,0,0,1,2.33-12.53,27.66,27.66,0,0,1,6.45-9.53,28.85,28.85,0,0,1,9.8-6,34.93,34.93,0,0,1,12.37-2.12,35.54,35.54,0,0,1,12.5,2.12,29.21,29.21,0,0,1,9.88,6,27.21,27.21,0,0,1,6.49,9.53,32.42,32.42,0,0,1,2.33,12.53,32,32,0,0,1-2.33,12.37,28.32,28.32,0,0,1-6.49,9.64,29.65,29.65,0,0,1-9.88,6.29,33.64,33.64,0,0,1-12.5,2.26,33.07,33.07,0,0,1-12.37-2.26,29.3,29.3,0,0,1-9.8-6.29,28.8,28.8,0,0,1-6.45-9.64A31.78,31.78,0,0,1,1125.35,1586.3Zm11.19,0a24.51,24.51,0,0,0,1.43,8.55,19.74,19.74,0,0,0,4.08,6.72,18.77,18.77,0,0,0,6.29,4.46,20,20,0,0,0,8,1.6,20.35,20.35,0,0,0,8.09-1.6,18.74,18.74,0,0,0,6.33-4.46,19.92,19.92,0,0,0,4.09-6.72,25,25,0,0,0,1.42-8.55,24,24,0,0,0-1.42-8.32,20.33,20.33,0,0,0-4.05-6.7,18.34,18.34,0,0,0-6.29-4.48,19.71,19.71,0,0,0-8.17-1.64,19.44,19.44,0,0,0-8.12,1.64,18.33,18.33,0,0,0-6.24,4.48,20,20,0,0,0-4,6.7A23.53,23.53,0,0,0,1136.54,1586.3Z" transform="translate(-231.86 -171.57)"/><path d="M1239.2,1571.1a13.2,13.2,0,0,0-6-4.51,20,20,0,0,0-15.36.21,18.75,18.75,0,0,0-6.32,4.48,19.77,19.77,0,0,0-4.09,6.7,24,24,0,0,0-1.42,8.32,25.42,25.42,0,0,0,1.39,8.66,19.69,19.69,0,0,0,4,6.75,18,18,0,0,0,6.16,4.35,20,20,0,0,0,8.09,1.57,17.81,17.81,0,0,0,8.25-1.85,16.25,16.25,0,0,0,5.8-4.85l8.25,5.79a26.47,26.47,0,0,1-9.39,7.47,29.66,29.66,0,0,1-13,2.67,33.27,33.27,0,0,1-12.45-2.26,28.83,28.83,0,0,1-9.76-6.29,28.31,28.31,0,0,1-6.37-9.64,32.32,32.32,0,0,1-2.29-12.37,31.53,31.53,0,0,1,2.41-12.53,28,28,0,0,1,6.61-9.53,29.88,29.88,0,0,1,9.92-6,35.37,35.37,0,0,1,12.42-2.12,34.89,34.89,0,0,1,5.8.52,30.38,30.38,0,0,1,5.8,1.64,27.41,27.41,0,0,1,5.23,2.74,16.86,16.86,0,0,1,4.16,3.91Z" transform="translate(-231.86 -171.57)"/><path d="M1254.31,1557.57h10.29v57.81h-10.29Z" transform="translate(-231.86 -171.57)"/><path d="M1295.46,1557.57h8.91l24.91,57.81h-11.76l-5.39-13.24h-25.08l-5.23,13.24h-11.5Zm13.07,35.75-8.9-23.52-9.07,23.52Z" transform="translate(-231.86 -171.57)"/><path d="M1341.78,1566.55h-17.72v-9h45.73v9h-17.73v48.83h-10.28Z" transform="translate(-231.86 -171.57)"/><path d="M1376.48,1557.57h10.29v57.81h-10.29Z" transform="translate(-231.86 -171.57)"/><path d="M1396.73,1586.3a32.23,32.23,0,0,1,2.33-12.53,27.66,27.66,0,0,1,6.45-9.53,28.85,28.85,0,0,1,9.8-6,34.93,34.93,0,0,1,12.37-2.12,35.54,35.54,0,0,1,12.5,2.12,29.21,29.21,0,0,1,9.88,6,27.21,27.21,0,0,1,6.49,9.53,32.42,32.42,0,0,1,2.33,12.53,32,32,0,0,1-2.33,12.37,28.32,28.32,0,0,1-6.49,9.64,29.65,29.65,0,0,1-9.88,6.29,33.64,33.64,0,0,1-12.5,2.26,33.07,33.07,0,0,1-12.37-2.26,29.3,29.3,0,0,1-9.8-6.29,28.8,28.8,0,0,1-6.45-9.64A31.78,31.78,0,0,1,1396.73,1586.3Zm11.18,0a24.51,24.51,0,0,0,1.44,8.55,19.74,19.74,0,0,0,4.08,6.72,18.77,18.77,0,0,0,6.29,4.46,20,20,0,0,0,8,1.6,20.35,20.35,0,0,0,8.09-1.6,18.6,18.6,0,0,0,6.32-4.46,19.79,19.79,0,0,0,4.1-6.72,25,25,0,0,0,1.42-8.55,24,24,0,0,0-1.42-8.32,20.33,20.33,0,0,0-4-6.7,18.34,18.34,0,0,0-6.29-4.48,19.71,19.71,0,0,0-8.17-1.64,19.44,19.44,0,0,0-8.12,1.64,18.33,18.33,0,0,0-6.24,4.48,20,20,0,0,0-4.05,6.7A23.53,23.53,0,0,0,1407.91,1586.3Z" transform="translate(-231.86 -171.57)"/><path d="M1468.85,1557.57h13.63l26.87,43.27h.17v-43.27h10.29v57.81h-13.07l-27.43-44.66h-.17v44.66h-10.29Z" transform="translate(-231.86 -171.57)"/><path d="M1550.18,1586.3a32.23,32.23,0,0,1,2.34-12.53,27.52,27.52,0,0,1,6.45-9.53,28.66,28.66,0,0,1,9.8-6,34.89,34.89,0,0,1,12.37-2.12,35.58,35.58,0,0,1,12.5,2.12,29.31,29.31,0,0,1,9.88,6,27.21,27.21,0,0,1,6.49,9.53,32.42,32.42,0,0,1,2.33,12.53,32,32,0,0,1-2.33,12.37,28.32,28.32,0,0,1-6.49,9.64,29.76,29.76,0,0,1-9.88,6.29,33.68,33.68,0,0,1-12.5,2.26,33,33,0,0,1-12.37-2.26,29.1,29.1,0,0,1-9.8-6.29,28.65,28.65,0,0,1-6.45-9.64A31.78,31.78,0,0,1,1550.18,1586.3Zm11.19,0a24.51,24.51,0,0,0,1.44,8.55,19.59,19.59,0,0,0,4.08,6.72,18.67,18.67,0,0,0,6.29,4.46,20,20,0,0,0,8,1.6,20.35,20.35,0,0,0,8.09-1.6,18.6,18.6,0,0,0,6.32-4.46,19.61,19.61,0,0,0,4.09-6.72,24.74,24.74,0,0,0,1.43-8.55,23.76,23.76,0,0,0-1.43-8.32,20.14,20.14,0,0,0-4-6.7,18.44,18.44,0,0,0-6.29-4.48,19.71,19.71,0,0,0-8.17-1.64,19.38,19.38,0,0,0-8.12,1.64,18.47,18.47,0,0,0-6.25,4.48,20,20,0,0,0-4,6.7A23.53,23.53,0,0,0,1561.37,1586.3Z" transform="translate(-231.86 -171.57)"/><path d="M1622.3,1557.57h37.33v9h-27v15.83h25.49V1591h-25.49v24.34H1622.3Z" transform="translate(-231.86 -171.57)"/><path d="M1689.51,1557.57h10.29v57.81h-10.29Z" transform="translate(-231.86 -171.57)"/><path d="M1712.54,1557.57h13.64l26.86,43.27h.17v-43.27h10.29v57.81h-13.07L1723,1570.72h-.17v44.66h-10.29Z" transform="translate(-231.86 -171.57)"/><path d="M1776.24,1557.57h20.5a45.52,45.52,0,0,1,11.36,1.46,29.42,29.42,0,0,1,10.28,4.85,25.44,25.44,0,0,1,7.43,8.91q2.87,5.51,2.86,13.67a27.9,27.9,0,0,1-2.86,13.08,26.72,26.72,0,0,1-7.43,9,30.86,30.86,0,0,1-10.28,5.19,40.17,40.17,0,0,1-11.36,1.67h-20.5Zm18.87,48.83a35.86,35.86,0,0,0,8-.93,21,21,0,0,0,7.23-3.2,17,17,0,0,0,5.26-6.08,20.67,20.67,0,0,0,2-9.73,21.94,21.94,0,0,0-2-10.12,16.52,16.52,0,0,0-5.26-6.13,20.13,20.13,0,0,0-7.23-3,41.8,41.8,0,0,0-8-.79h-8.58v40Z" transform="translate(-231.86 -171.57)"/><path d="M1838.63,1557.57h38.31v9h-28v14.69h26.55v8.66h-26.55v16.34h29.49v9.14h-39.78Z" transform="translate(-231.86 -171.57)"/><path d="M1888.44,1557.57h18.87a41.08,41.08,0,0,1,9,.89,18.63,18.63,0,0,1,6.87,2.94,13.75,13.75,0,0,1,4.41,5.21,17.74,17.74,0,0,1,1.55,7.68,16.63,16.63,0,0,1-1.8,8.09,14.49,14.49,0,0,1-4.86,5.27,21.1,21.1,0,0,1-7.15,2.89,39.49,39.49,0,0,1-8.65.91h-7.93v23.93h-10.29Zm17.48,25.22a29.85,29.85,0,0,0,4.82-.36,13.86,13.86,0,0,0,4.08-1.3,7.84,7.84,0,0,0,2.86-2.58,7.75,7.75,0,0,0,1.06-4.26,6.83,6.83,0,0,0-3.88-6.61,12,12,0,0,0-4-1.18,39,39,0,0,0-4.62-.3h-7.52v16.59Z" transform="translate(-231.86 -171.57)"/><path d="M1938.25,1557.57h38.31v9h-28v14.69h26.55v8.66h-26.55v16.34H1978v9.14h-39.78Z" transform="translate(-231.86 -171.57)"/><path d="M1988.07,1557.57h13.63l26.87,43.27h.17v-43.27H2039v57.81H2026l-27.43-44.66h-.18v44.66h-10.28Z" transform="translate(-231.86 -171.57)"/><path d="M2051.77,1557.57h20.49a45.46,45.46,0,0,1,11.36,1.46,29.38,29.38,0,0,1,10.29,4.85,25.55,25.55,0,0,1,7.43,8.91,29.5,29.5,0,0,1,2.86,13.67,28,28,0,0,1-2.86,13.08,26.84,26.84,0,0,1-7.43,9,30.82,30.82,0,0,1-10.29,5.19,40.12,40.12,0,0,1-11.36,1.67h-20.49Zm18.86,48.83a35.73,35.73,0,0,0,8-.93,21,21,0,0,0,7.24-3.2,17,17,0,0,0,5.26-6.08,20.67,20.67,0,0,0,2-9.73,21.94,21.94,0,0,0-2-10.12,16.52,16.52,0,0,0-5.26-6.13,20.18,20.18,0,0,0-7.24-3,41.64,41.64,0,0,0-8-.79h-8.57v40Z" transform="translate(-231.86 -171.57)"/><path d="M2114.16,1557.57h38.3v9h-28v14.69H2151v8.66h-26.54v16.34h29.48v9.14h-39.77Z" transform="translate(-231.86 -171.57)"/><path d="M2164,1557.57h13.64l26.86,43.27h.17v-43.27h10.29v57.81h-13.07l-27.43-44.66h-.17v44.66H2164Z" transform="translate(-231.86 -171.57)"/><path d="M2239.35,1566.55h-17.72v-9h45.73v9h-17.72v48.83h-10.29Z" transform="translate(-231.86 -171.57)"/><path d="M1205.27,1655.57h16.09l15,41.07h.25l14.85-41.07h16.17v57.81h-10.21v-46.46h-.16l-17.55,46.46h-7.19l-17.31-46.46h-.17v46.46h-9.8Z" transform="translate(-231.86 -171.57)"/><path d="M1277.63,1684.31a32.25,32.25,0,0,1,2.34-12.54,27.57,27.57,0,0,1,6.45-9.52,28.58,28.58,0,0,1,9.79-6,35.21,35.21,0,0,1,12.38-2.12,35.81,35.81,0,0,1,12.5,2.12,29.13,29.13,0,0,1,9.87,6,27.28,27.28,0,0,1,6.5,9.52,32.43,32.43,0,0,1,2.32,12.54,32,32,0,0,1-2.32,12.37,28.34,28.34,0,0,1-6.5,9.64,29.87,29.87,0,0,1-9.87,6.29,33.88,33.88,0,0,1-12.5,2.25,33.32,33.32,0,0,1-12.38-2.25,29.31,29.31,0,0,1-9.79-6.29,28.65,28.65,0,0,1-6.45-9.64A31.81,31.81,0,0,1,1277.63,1684.31Zm11.19,0a24.45,24.45,0,0,0,1.44,8.54,19.62,19.62,0,0,0,4.07,6.72,18.76,18.76,0,0,0,6.29,4.47,20.08,20.08,0,0,0,8.05,1.6,20.35,20.35,0,0,0,8.09-1.6,18.59,18.59,0,0,0,6.32-4.47,19.67,19.67,0,0,0,4.09-6.72,24.68,24.68,0,0,0,1.42-8.54,23.68,23.68,0,0,0-1.42-8.32,20.21,20.21,0,0,0-4-6.7,18.46,18.46,0,0,0-6.29-4.49,19.9,19.9,0,0,0-8.17-1.64,19.61,19.61,0,0,0-8.13,1.64,18.46,18.46,0,0,0-6.24,4.49,19.88,19.88,0,0,0-4,6.7A23.46,23.46,0,0,0,1288.82,1684.31Z" transform="translate(-231.86 -171.57)"/><path d="M1349.75,1655.57h20.09a36.49,36.49,0,0,1,7.93.85,20,20,0,0,1,6.81,2.82,14.55,14.55,0,0,1,4.79,5.15,15.61,15.61,0,0,1,1.79,7.75,14.77,14.77,0,0,1-3.56,10.25,17.89,17.89,0,0,1-9.67,5.36l15.44,25.63H1381l-13.39-24.49H1360v24.49h-10.29Zm18.71,24.91a28.48,28.48,0,0,0,4.41-.34,12.68,12.68,0,0,0,4-1.21,7.92,7.92,0,0,0,2.91-2.58,7.47,7.47,0,0,0,1.14-4.3,6.68,6.68,0,0,0-1.06-3.88,7.86,7.86,0,0,0-2.7-2.39,10.88,10.88,0,0,0-3.72-1.23,24.66,24.66,0,0,0-4-.34H1360v16.27Z" transform="translate(-231.86 -171.57)"/><path d="M1411.82,1664.55h-17.71v-9h45.73v9h-17.73v48.83h-10.29Z" transform="translate(-231.86 -171.57)"/><path d="M1494.71,1710.35a44.22,44.22,0,0,1-9.67,3.33,57,57,0,0,1-12.14,1.18,35.09,35.09,0,0,1-12.81-2.25,29.47,29.47,0,0,1-10-6.29,28.34,28.34,0,0,1-6.5-9.64,33.91,33.91,0,0,1,.08-24.91,28.1,28.1,0,0,1,6.61-9.52,29.74,29.74,0,0,1,9.92-6,35.6,35.6,0,0,1,12.42-2.12,38.12,38.12,0,0,1,12.71,2,25.52,25.52,0,0,1,9.26,5.26l-7.11,7.68a17.36,17.36,0,0,0-6.16-4.17,21.57,21.57,0,0,0-8.62-1.71,20.3,20.3,0,0,0-8.28,1.64,18.24,18.24,0,0,0-6.33,4.49,20.06,20.06,0,0,0-4.05,6.7,23.9,23.9,0,0,0-1.42,8.32,24.92,24.92,0,0,0,1.42,8.54,19.67,19.67,0,0,0,4.09,6.72,18.35,18.35,0,0,0,6.45,4.47,22.28,22.28,0,0,0,8.61,1.6,29.86,29.86,0,0,0,11.52-2.05v-14.7h-12.17v-8.5h22.13Z" transform="translate(-231.86 -171.57)"/><path d="M1525.34,1655.57h8.9l24.91,57.81h-11.76l-5.39-13.24h-25.07l-5.23,13.24h-11.51Zm13.06,35.76-8.89-23.52-9.07,23.52Z" transform="translate(-231.86 -171.57)"/><path d="M1614,1710.35a44.22,44.22,0,0,1-9.67,3.33,56.86,56.86,0,0,1-12.13,1.18,35.11,35.11,0,0,1-12.82-2.25,29.57,29.57,0,0,1-10-6.29,28.32,28.32,0,0,1-6.49-9.64,31.81,31.81,0,0,1-2.34-12.37,31.37,31.37,0,0,1,2.42-12.54,27.93,27.93,0,0,1,6.6-9.52,29.69,29.69,0,0,1,9.93-6,35.52,35.52,0,0,1,12.42-2.12,38.1,38.1,0,0,1,12.7,2,25.44,25.44,0,0,1,9.26,5.26l-7.11,7.68a17.36,17.36,0,0,0-6.16-4.17,21.49,21.49,0,0,0-8.61-1.71,20.34,20.34,0,0,0-8.29,1.64,18.24,18.24,0,0,0-6.33,4.49,20.23,20.23,0,0,0-4,6.7,23.9,23.9,0,0,0-1.42,8.32,24.92,24.92,0,0,0,1.42,8.54,19.83,19.83,0,0,0,4.09,6.72,18.35,18.35,0,0,0,6.45,4.47,22.3,22.3,0,0,0,8.62,1.6,29.86,29.86,0,0,0,11.52-2.05v-14.7h-12.17v-8.5H1614Z" transform="translate(-231.86 -171.57)"/><path d="M1626.53,1655.57h38.31v9h-28v14.7h26.55v8.66h-26.55v16.34h29.49v9.13h-39.78Z" transform="translate(-231.86 -171.57)"/><path d="M1696.76,1655.57h38.3v9h-28v14.7h26.55v8.66h-26.55v16.34h29.48v9.13h-39.77Z" transform="translate(-231.86 -171.57)"/><path d="M1760.54,1682.51l-18-26.94H1755l11.93,19.76,11.76-19.76h11.84l-17.64,27.19,20.75,30.62h-13l-14.13-22.69-13.56,22.69h-12.41Z" transform="translate(-231.86 -171.57)"/><path d="M1800.3,1655.57h18.87a41.7,41.7,0,0,1,9,.89,18.48,18.48,0,0,1,6.87,2.94,13.86,13.86,0,0,1,4.41,5.22,17.68,17.68,0,0,1,1.55,7.68,16.69,16.69,0,0,1-1.8,8.09,14.39,14.39,0,0,1-4.86,5.26,21.11,21.11,0,0,1-7.15,2.9,39.49,39.49,0,0,1-8.65.91h-7.93v23.92H1800.3Zm17.48,25.23a29.82,29.82,0,0,0,4.82-.37,13.57,13.57,0,0,0,4.08-1.3,7,7,0,0,0,3.92-6.83,6.8,6.8,0,0,0-3.88-6.61,12,12,0,0,0-4-1.18,37,37,0,0,0-4.62-.3h-7.52v16.59Z" transform="translate(-231.86 -171.57)"/><path d="M1850.12,1655.57h38.3v9h-28v14.7H1887v8.66H1860.4v16.34h29.49v9.13h-39.77Z" transform="translate(-231.86 -171.57)"/><path d="M1899.93,1655.57H1920a36.36,36.36,0,0,1,7.93.85,20.09,20.09,0,0,1,6.82,2.82,14.61,14.61,0,0,1,4.78,5.15,15.5,15.5,0,0,1,1.79,7.75,14.76,14.76,0,0,1-3.55,10.25,17.92,17.92,0,0,1-9.68,5.36l15.44,25.63h-12.42l-13.38-24.49h-7.52v24.49h-10.29Zm18.71,24.91a28.35,28.35,0,0,0,4.4-.34,12.83,12.83,0,0,0,4-1.21,7.89,7.89,0,0,0,2.9-2.58,7.4,7.4,0,0,0,1.14-4.3,6.61,6.61,0,0,0-1.06-3.88,7.68,7.68,0,0,0-2.7-2.39,10.75,10.75,0,0,0-3.71-1.23,24.78,24.78,0,0,0-4-.34h-9.3v16.27Z" transform="translate(-231.86 -171.57)"/><path d="M1962,1664.55h-17.72v-9H1990v9h-17.73v48.83H1962Z" transform="translate(-231.86 -171.57)"/><path d="M2026.19,1667.65a12.53,12.53,0,0,0-4.62-3.55,13.66,13.66,0,0,0-6-1.44,14.73,14.73,0,0,0-3.59.46,10.76,10.76,0,0,0-3.27,1.39,7.46,7.46,0,0,0-2.41,2.43,6.84,6.84,0,0,0-.94,3.65,6.57,6.57,0,0,0,.82,3.35,7.35,7.35,0,0,0,2.25,2.37,14.31,14.31,0,0,0,3.46,1.71c1.37.5,2.86,1,4.5,1.48,1.85.59,3.76,1.28,5.75,2a22.26,22.26,0,0,1,5.47,3,14.81,14.81,0,0,1,4.09,4.74,14.38,14.38,0,0,1,1.59,7.11,18.08,18.08,0,0,1-1.71,8.11,16.72,16.72,0,0,1-4.58,5.76,19.18,19.18,0,0,1-6.69,3.42,27.62,27.62,0,0,1-8.09,1.16,30.36,30.36,0,0,1-11-2.09,21.43,21.43,0,0,1-8.82-6.15l7.35-6.89a15,15,0,0,0,5.68,4.68,15.21,15.21,0,0,0,10.66,1.25,9.68,9.68,0,0,0,3.38-1.51,8.24,8.24,0,0,0,2.45-2.64,7.69,7.69,0,0,0,.95-4,6.44,6.44,0,0,0-1.06-3.81,9.81,9.81,0,0,0-2.86-2.62,20.72,20.72,0,0,0-4.25-1.91l-5.15-1.71c-1.74-.55-3.47-1.21-5.22-2a17.72,17.72,0,0,1-4.69-3,14.59,14.59,0,0,1-3.4-4.61,16,16,0,0,1-1.31-6.83,14.87,14.87,0,0,1,1.85-7.59,16.08,16.08,0,0,1,4.82-5.26,21.24,21.24,0,0,1,6.78-3.1,29.17,29.17,0,0,1,7.71-1,27.86,27.86,0,0,1,8.94,1.55,22.38,22.38,0,0,1,7.89,4.65Z" transform="translate(-231.86 -171.57)"/><path d="M983.55,774.88H1021a81.77,81.77,0,0,1,17.85,1.79,37,37,0,0,1,13.62,5.84,26.92,26.92,0,0,1,8.75,10.37,34.46,34.46,0,0,1,3.09,15.26q0,9.54-3.57,16.05a28.8,28.8,0,0,1-9.66,10.45,41.83,41.83,0,0,1-14.19,5.76,80.47,80.47,0,0,1-17.18,1.79H1004v47.52H983.55ZM1018.26,825a62.22,62.22,0,0,0,9.57-.74,27,27,0,0,0,8.11-2.59,14.87,14.87,0,0,0,5.68-5.12,15.25,15.25,0,0,0,2.1-8.42A13.56,13.56,0,0,0,1036,795a23.89,23.89,0,0,0-8-2.35,74.24,74.24,0,0,0-9.17-.58H1004v33Z" transform="translate(-231.86 -171.57)"/><path d="M1082.48,774.88h39.9a72.21,72.21,0,0,1,15.73,1.71,40.2,40.2,0,0,1,13.54,5.6,29,29,0,0,1,9.49,10.21c2.38,4.2,3.57,9.35,3.57,15.39q0,12.53-7,20.36t-19.22,10.64l30.65,50.92h-24.66l-26.59-48.65h-14.92v48.65h-20.44Zm37.14,49.47a57.22,57.22,0,0,0,8.76-.66,25.18,25.18,0,0,0,7.87-2.43,15.3,15.3,0,0,0,5.75-5.1,14.76,14.76,0,0,0,2.27-8.52,13.06,13.06,0,0,0-2.11-7.71,15.83,15.83,0,0,0-5.34-4.78,22.12,22.12,0,0,0-7.38-2.43,53.53,53.53,0,0,0-8-.66h-18.49v32.29Z" transform="translate(-231.86 -171.57)"/><path d="M1179,832a64.06,64.06,0,0,1,4.62-24.9,54.21,54.21,0,0,1,12.81-18.9,56.67,56.67,0,0,1,19.46-12,69.86,69.86,0,0,1,24.58-4.22,71,71,0,0,1,24.81,4.22,57.6,57.6,0,0,1,19.63,12,54,54,0,0,1,12.89,18.9,64.24,64.24,0,0,1,4.62,24.9,63.45,63.45,0,0,1-4.62,24.57,57.09,57.09,0,0,1-12.89,19.14,59.35,59.35,0,0,1-19.63,12.49,67.8,67.8,0,0,1-24.81,4.46,66.69,66.69,0,0,1-24.58-4.46,58.39,58.39,0,0,1-19.46-12.49,57.33,57.33,0,0,1-12.81-19.14A63.27,63.27,0,0,1,1179,832Zm22.21,0a48.76,48.76,0,0,0,2.84,16.94,39.56,39.56,0,0,0,8.12,13.39,37.41,37.41,0,0,0,12.48,8.84,39.68,39.68,0,0,0,16,3.14,40.34,40.34,0,0,0,16.07-3.14,37.34,37.34,0,0,0,12.56-8.84,39.85,39.85,0,0,0,8.11-13.39,48.53,48.53,0,0,0,2.84-16.94,47.06,47.06,0,0,0-2.84-16.56,40.69,40.69,0,0,0-8-13.3,37.09,37.09,0,0,0-12.48-8.92,39.4,39.4,0,0,0-16.23-3.25,38.85,38.85,0,0,0-16.14,3.25,37.72,37.72,0,0,0-12.41,8.92,40.84,40.84,0,0,0-8,13.3A47.29,47.29,0,0,0,1201.2,832Z" transform="translate(-231.86 -171.57)"/><path d="M1413.68,847.55a47.33,47.33,0,0,1-3.56,18.72,42.36,42.36,0,0,1-9.74,14.2,43.07,43.07,0,0,1-14.6,9,54.58,54.58,0,0,1-36.66,0,43.77,43.77,0,0,1-14.67-9,40.67,40.67,0,0,1-9.73-14.2,48.23,48.23,0,0,1-3.49-18.72V774.88h20.44v71.85a39.44,39.44,0,0,0,1.29,10,24.69,24.69,0,0,0,4.3,8.84,22.07,22.07,0,0,0,8,6.31,32.09,32.09,0,0,0,24.5,0,22.2,22.2,0,0,0,7.94-6.31,24.5,24.5,0,0,0,4.29-8.84,39,39,0,0,0,1.31-10V774.88h20.43Z" transform="translate(-231.86 -171.57)"/><path d="M1438,774.88h40.72a89.72,89.72,0,0,1,22.54,2.93,57.92,57.92,0,0,1,20.43,9.63,50.48,50.48,0,0,1,14.76,17.69q5.68,10.92,5.67,27.16,0,15.09-5.67,26a53,53,0,0,1-14.76,17.85,62,62,0,0,1-20.43,10.29,79.87,79.87,0,0,1-22.54,3.33H1438Zm37.47,97a69.47,69.47,0,0,0,15.89-1.84,41.93,41.93,0,0,0,14.36-6.34,33.83,33.83,0,0,0,10.46-12.09q4.05-7.61,4-19.3,0-12.31-4-20.11A33,33,0,0,0,1505.73,800a39.34,39.34,0,0,0-14.36-6,79.33,79.33,0,0,0-15.89-1.61h-17v79.46Z" transform="translate(-231.86 -171.57)"/><path d="M1602.47,774.88h32l29.85,81.57h.48l29.52-81.57h32.11V889.71h-20.27V797.42h-.32l-34.87,92.29h-14.27l-34.38-92.29h-.33v92.29h-19.47Z" transform="translate(-231.86 -171.57)"/><path d="M1751.68,774.88h76.08v17.84h-55.63v29.2h52.7V839.1h-52.7v32.45h58.55v18.16h-79Z" transform="translate(-231.86 -171.57)"/><path d="M1850.61,774.88h32l29.84,81.57h.49l29.51-81.57h32.11V889.71h-20.27V797.42h-.32l-34.87,92.29h-14.27l-34.38-92.29h-.33v92.29h-19.47Z" transform="translate(-231.86 -171.57)"/><path d="M1999.83,774.88h44.77a55,55,0,0,1,12.82,1.53,33.08,33.08,0,0,1,11.27,5,26,26,0,0,1,11.1,22.31q0,9.69-5.51,16a30.8,30.8,0,0,1-14.44,9.08v.31a30.24,30.24,0,0,1,17.85,8.45q7,7,7,18.64,0,9.42-3.74,15.81a29.93,29.93,0,0,1-9.8,10.32,42.12,42.12,0,0,1-14,5.57,75,75,0,0,1-16,1.72h-41.36Zm20.44,46.72h18.16c6.82,0,12-1.37,15.58-4.06s5.35-6.55,5.35-11.51c0-5.2-1.84-8.87-5.52-11s-9.4-3.25-17.19-3.25h-16.38Zm0,50.92h18.32a64.51,64.51,0,0,0,8.44-.58,27.28,27.28,0,0,0,8.35-2.35,16.2,16.2,0,0,0,6.32-5.17c1.68-2.27,2.53-5.31,2.53-9.11,0-6-2.06-10.27-6.17-12.64s-10.33-3.57-18.65-3.57h-19.14Z" transform="translate(-231.86 -171.57)"/><path d="M2104.76,774.88h76.08v17.84h-55.63v29.2h52.7V839.1h-52.7v32.45h58.55v18.16h-79Z" transform="translate(-231.86 -171.57)"/><path d="M2203.69,774.88h39.9a72.21,72.21,0,0,1,15.73,1.71,40.2,40.2,0,0,1,13.54,5.6,29,29,0,0,1,9.49,10.21c2.38,4.2,3.57,9.35,3.57,15.39q0,12.53-7.05,20.36t-19.22,10.64l30.65,50.92h-24.66l-26.59-48.65h-14.92v48.65h-20.44Zm37.14,49.47a57.22,57.22,0,0,0,8.76-.66,25.18,25.18,0,0,0,7.87-2.43,15.4,15.4,0,0,0,5.76-5.1,14.84,14.84,0,0,0,2.27-8.52,13,13,0,0,0-2.12-7.71,15.83,15.83,0,0,0-5.34-4.78,22.12,22.12,0,0,0-7.38-2.43,53.51,53.51,0,0,0-8-.66h-18.5v32.29Z" transform="translate(-231.86 -171.57)"/><path class="cls-4" d="M580.85,1563.65c338.23-73.7,631.72-90.15,1048.57-90.24,416.85.09,686.11,16.54,1024.34,90.24,20.56-169.31,40.8-290.34,60.68-459.72-360.85-101.09-649.29-132.91-1085-133s-748.4,31.86-1109.26,133C540.05,1273.31,560.28,1394.3,580.85,1563.65Z" transform="translate(-231.86 -171.57)"/><path class="cls-2" d="M1234.14,1372.71a204.13,204.13,0,0,0-335.12-.18l-4,5.86,52.75,24.22,3-3.83a146.49,146.49,0,0,1,231.45-.13l2.93,3.79,52.72-23.67Z" transform="translate(-231.86 -171.57)"/><g class="cls-5"><path class="cls-6" d="M1053.72,1285.48a203.09,203.09,0,0,0-154.7,87l-4,5.86,52.75,24.22,3-3.83a144.89,144.89,0,0,1,74-50.77Z" transform="translate(-231.86 -171.57)"/></g><polygon class="cls-2" points="802.19 907.32 663.12 1206.82 715.86 1231.04 865.84 907.32 802.19 907.32"/><g class="cls-5"><polygon class="cls-7" points="802.16 1044.77 865.84 907.32 802.19 907.32 770.17 976.28 802.16 1044.77"/></g><polygon class="cls-2" points="865.84 907.32 802.19 907.32 938.43 1200.2 1005.92 1207.2 865.84 907.32"/><g class="cls-5"><polygon class="cls-8" points="954.66 1097.47 874.14 1061.98 938.43 1200.2 1005.92 1207.2 954.66 1097.47"/></g><path class="cls-2" d="M1233.85,1372.71a202.61,202.61,0,0,0-166.95-87.63h-6v57h6a144.56,144.56,0,0,1,115.32,56.84l2.94,3.81,52.74-24.1Z" transform="translate(-231.86 -171.57)"/><polygon class="cls-2" points="2107.77 970.31 2107.77 910.84 1894.2 910.84 1894.2 1228.03 2107.77 1228.03 2107.77 1168.56 1966.82 1168.56 1966.82 1098.29 2063.69 1098.29 2063.69 1038.82 1966.82 1038.82 1966.82 970.31 2107.77 970.31"/><rect class="cls-2" x="1131.77" y="907.52" width="73.4" height="320.19"/><polygon class="cls-2" points="1682.59 1227.94 1755.71 1227.94 1707.29 907.76 1631.26 907.76 1554.94 1097.61 1482.85 907.76 1407.7 907.76 1353.34 1227.94 1425.96 1227.94 1456.03 1013.75 1541.48 1227.94 1567.06 1227.94 1656 1013.2 1682.59 1227.94"/></g></g></svg>