<svg id="Layer_1" data-name="Layer 1" xmlns="http://www.w3.org/2000/svg" viewBox="0 0 743.5 271.68"><path d="M75.54,21.8c35.18,0,44.68,9.5,44.68,29,0,11.37-3.89,20.4-15,25.23,13.69,4.81,17.9,14.62,17.9,26.76,0,22.26-7,31.3-47.78,31.3h-40V21.8ZM57.49,67.88H78.66C93.43,68,98.58,63.67,98.58,53.4c0-10.75-5.92-14.79-22.73-14.79H57.49Zm0,49.34H75.85c19.76,0,25.53-3.74,25.53-16.19,0-11.82-6.86-16.65-22.72-16.65H57.49Z" transform="translate(-35 -19)"/><path d="M140.51,21.8h43c33,0,46.54,7.63,46.54,37.52,0,19.61-5.77,29.57-19.15,34.08l19.92,40.32H207L190.17,96.36c-2.35.16-4.84.16-7.33.16H162.61v37.2h-22.1Zm22.1,56h18.52c16.82,0,26-1.86,26-18.68s-9.18-18.67-26-18.67H162.61Z" transform="translate(-35 -19)"/><path d="M290,136.68c-33.46,0-48.09-17.28-48.09-58.69S256.54,19,290,19c33.64,0,48.26,17.58,48.26,59S323.64,136.68,290,136.68Zm0-19.46c17.91,0,25.54-10.27,25.54-39.23S307.91,38.61,290,38.61C272.25,38.61,264.63,49,264.63,78S272.25,117.22,290,117.22Z" transform="translate(-35 -19)"/><path d="M355.75,22.11h22.11v59l43.89-59H447.6l-36,45.61,36.59,66H423.77L397.63,85.47l-19.77,25.06v23.19H355.75Z" transform="translate(-35 -19)"/><path d="M460.09,22.11h75V40.94H482.2V67.72h45.15v17.6H482.2v29.57h53.87v18.83h-76Z" transform="translate(-35 -19)"/><path d="M550.9,21.8h43c33,0,46.55,7.63,46.55,37.52,0,19.61-5.76,29.57-19.14,34.08l19.92,40.32H617.38L600.56,96.36c-2.34.16-4.82.16-7.32.16H573v37.2H550.9Zm22.1,56h18.53c16.81,0,26-1.86,26-18.68s-9.19-18.67-26-18.67H573Z" transform="translate(-35 -19)"/><path d="M697.6,136.68c-29.26-.16-44.37-12.92-44.37-39.39h21.65c0,13.86,8.09,20.87,23.65,21,13.24.15,21.32-4.36,21.32-14.48,0-24.43-66-8.55-65.53-51.37C654.48,32.07,667.56,18.84,697,19c32,.15,43.11,13.69,43.11,37.35H718.46c0-9.49-3.42-18.51-21.32-18.68-15.73-.15-20.71,6.24-20.71,14.17,0,24.29,65.85,8.25,65.85,51.22C742.28,125.32,727.18,136.84,697.6,136.68Z" transform="translate(-35 -19)"/><path d="M152.53,164c39.71,0,50.42,10.72,50.42,32.68,0,12.83-4.39,23-16.86,28.47,15.45,5.43,20.2,16.51,20.2,30.21,0,25.12-7.9,35.32-53.94,35.32H107.2V164Zm-20.38,52h23.9c16.68.17,22.48-4.75,22.48-16.34,0-12.13-6.68-16.7-25.65-16.7H132.15Zm0,55.69h20.73c22.31,0,28.82-4.22,28.82-18.27,0-13.35-7.74-18.8-25.65-18.8h-23.9Z" transform="translate(-35 -19)"/><path d="M225.86,164.35h84.68v21.26H250.81v30.23h50.94v19.85H250.81v33.38h60.78v21.26H225.86Z" transform="translate(-35 -19)"/><path d="M356.63,186.84H319.91V164.35h98.74v22.49H381.58l-.17,103.49H356.27Z" transform="translate(-35 -19)"/><path d="M462.28,186.84H425.57V164.35h98.74v22.49H487.23l-.17,103.49H461.94Z" transform="translate(-35 -19)"/><path d="M537.89,164.35h84.69v21.26H562.84v30.23h50.94v19.85H562.84v33.38h60.78v21.26H537.89Z" transform="translate(-35 -19)"/><path d="M640.37,164h48.5c37.24,0,52.53,8.62,52.53,42.35,0,22.13-6.51,33.38-21.61,38.47l22.49,45.51H715.41l-19-42.16c-2.64.17-5.45.17-8.25.17H665.32v42h-25Zm25,63.25h20.9c19,0,29.36-2.1,29.36-21.09s-10.37-21.07-29.36-21.07h-20.9Z" transform="translate(-35 -19)"/><polygon points="18.62 176.6 27.56 176.6 23.11 162.61 18.62 176.6"/><path d="M35,163.53V289.84H81.21V163.53ZM66.57,277.35H45.89V247H66.31v5.13H51.9v7.29H64.19v4.79H51.9v8.05H66.57ZM64,241.88l-4.57-10.17c-.64,0-1.32,0-2,0H51.9v10.13h-6V211.41H57.58c9,0,12.67,2.08,12.67,10.22,0,5.33-1.57,8.05-5.21,9.27l5.42,11ZM66,206.41l-1.91-5.93H52.05l-1.86,5.93H43.74L54.68,176h7l10.94,30.39Z" transform="translate(-35 -19)"/><path d="M57,216.5H51.9v10.17H57c4.57,0,7.07-.51,7.07-5.09S61.52,216.5,57,216.5Z" transform="translate(-35 -19)"/><path d="M748.48,34a14.46,14.46,0,0,1,1.19-5.82,14.77,14.77,0,0,1,3.23-4.74,15.44,15.44,0,0,1,4.77-3.2,15,15,0,0,1,11.65,0,15.56,15.56,0,0,1,4.77,3.2,14.9,14.9,0,0,1,3.22,4.74A14.46,14.46,0,0,1,778.5,34a14.25,14.25,0,0,1-1.19,5.79,14.89,14.89,0,0,1-8,7.87,15.33,15.33,0,0,1-11.65,0,15,15,0,0,1-8-7.87A14.25,14.25,0,0,1,748.48,34Zm2.37,0a12.19,12.19,0,0,0,1,4.87,13.06,13.06,0,0,0,2.7,4.05,12.58,12.58,0,0,0,17.9,0,13.06,13.06,0,0,0,2.7-4.05,12.19,12.19,0,0,0,1-4.87,12.42,12.42,0,0,0-1-4.94,12.61,12.61,0,0,0-6.71-6.71,12.8,12.8,0,0,0-9.87,0,12.59,12.59,0,0,0-6.72,6.71A12.42,12.42,0,0,0,750.85,34Zm16.26,8.23-3.62-6.52h-2.37v6.52h-4V25.41h7.24a10.33,10.33,0,0,1,2.3.26,6.4,6.4,0,0,1,2,.86,4.26,4.26,0,0,1,1.48,1.61,5.12,5.12,0,0,1,.56,2.53,4.21,4.21,0,0,1-1,2.83,5.63,5.63,0,0,1-2.4,1.65l4.47,7.11Zm-2.89-9.41a2.66,2.66,0,0,0,1.68-.6,1.9,1.9,0,0,0,.75-1.58,1.58,1.58,0,0,0-.85-1.51,3.34,3.34,0,0,0-1.58-.46h-3.1v4.15Z" transform="translate(-35 -19)"/></svg>