<svg xmlns="http://www.w3.org/2000/svg" width="43.44" height="60" viewBox="0 0 43.44 60" class="svg replaced-svg">
  <metadata><?xpacket begin="&#xFEFF;" id="W5M0MpCehiHzreSzNTczkc9d"?>
<x:xmpmeta xmlns:x="adobe:ns:meta/" x:xmptk="Adobe XMP Core 5.6-c145 79.163499, 2018/08/13-16:40:22        ">
   <rdf:RDF xmlns:rdf="http://www.w3.org/1999/02/22-rdf-syntax-ns#">
      <rdf:Description xmlns:xmp="http://ns.adobe.com/xap/1.0/" rdf:about="">
         <xmp:CreatorTool>Adobe Photoshop CC (Macintosh)</xmp:CreatorTool>
      </rdf:Description>
   </rdf:RDF>
</x:xmpmeta>
                          
<?xpacket end="w"?></metadata>
<defs>
    <style>
      .cls-1 {
        fill: #fff;
        fill-rule: evenodd;
      }
    </style>
  </defs>
  <path id="Forma_1" data-name="Forma 1" class="cls-1" d="M1395.54,1387.21l-8.52-10.16a3.856,3.856,0,0,0-.53-7.17l2.1-10.49c-2.38.95-5.54,2.83-8.8,0.41a8.14,8.14,0,0,0-8.5-.67l-2.54,1.3,1.88,9.46a3.863,3.863,0,0,0-.53,7.18l-8.52,10.14a18.21,18.21,0,0,0-3.08,19.84,18.524,18.524,0,0,0,17.11,11.15h5.91a18.524,18.524,0,0,0,17.11-11.15A18.231,18.231,0,0,0,1395.54,1387.21Zm-23.37-26.35a6.194,6.194,0,0,1,6.48.51,8.191,8.191,0,0,0,7.34,1.14l-1.44,7.18h-11.98l-1.64-8.21Zm-2.33,12.71a1.933,1.933,0,0,1,1.94-1.93h13.57a1.935,1.935,0,1,1,0,3.87h-13.57A1.942,1.942,0,0,1,1369.84,1373.57Zm27.01,32.69a16.6,16.6,0,0,1-15.34,10h-5.91a16.65,16.65,0,0,1-15.35-10,16.349,16.349,0,0,1,2.75-17.76l9.3-11.05h12.51l9.28,11.05A16.279,16.279,0,0,1,1396.85,1406.26Zm-18.29-20.07a12.62,12.62,0,1,0,12.61,12.62A12.624,12.624,0,0,0,1378.56,1386.19Zm0,23.28a10.67,10.67,0,1,1,10.66-10.67A10.672,10.672,0,0,1,1378.56,1409.47Zm0.75-11.59V1394a8.572,8.572,0,0,1,2.18.39c1.02,0.37,1.06.04,1.35-.17a1.056,1.056,0,0,0-.43-1.7,9.916,9.916,0,0,0-3.1-.62v-1.14a0.71,0.71,0,0,0-.2-0.51,0.718,0.718,0,0,0-1,.01,0.739,0.739,0,0,0-.19.5v1.17c-1.55.1-4.33,0.99-4.33,4.11,0,2.73,3.04,3.44,4.33,3.78v3.71a8.042,8.042,0,0,1-2.75-.59,1.049,1.049,0,0,0-1.69.92,0.986,0.986,0,0,0,.68.9,11.694,11.694,0,0,0,3.76.9v1.16a0.627,0.627,0,0,0,.69.69,0.673,0.673,0,0,0,.7-0.69v-1.16c1.51-.09,4.33-1.09,4.33-3.86C1383.64,1398.96,1381.01,1398.25,1379.31,1397.88Zm-1.39-.35c-0.23-.05-2.11-0.44-2.11-1.7,0-1.31,1.52-1.67,2.11-1.75v3.45Zm3.51,4.24c0,0.27,0,1.53-2.12,1.75v-3.32C1381.61,1400.82,1381.43,1401.52,1381.43,1401.77Zm-3.84-20.43h1.94v1.93h-1.94v-1.93Zm3.88,0h1.94v1.93h-1.94v-1.93Zm-7.76,0h1.94v1.93h-1.94v-1.93Z" transform="translate(-1356.84 -1358.22)"></path>
</svg>