<?xml version="1.0" encoding="utf-8"?>
<!-- Generator: Adobe Illustrator 24.1.1, SVG Export Plug-In . SVG Version: 6.00 Build 0)  -->
<svg version="1.1" id="Layer_1" xmlns="http://www.w3.org/2000/svg" xmlns:xlink="http://www.w3.org/1999/xlink" x="0px" y="0px"
	 viewBox="0 0 2281.5 2247.1" style="enable-background:new 0 0 2281.5 2247.1;" xml:space="preserve">
<style type="text/css">
	.st0{fill:#4A74FE;}
</style>
<g>
	<path class="st0" d="M2247.3,349.7l-168.9-142.6c-41.2-34.7-102.9-29.5-137.6,11.6l-745.8,883.8l-376-344.8
		c-33.8-30.9-86.2-29.7-118.4,2.7L526.4,935.6c-33.8,34-32.5,89,2.8,121.5l654.9,600.3c23.4,21.5,60.1,19.2,80.7-4.9l993.7-1166.8
		C2293.2,445,2288.1,384.2,2247.3,349.7z"/>
	<path d="M2164.7,700.5l-175.8,240c8.1,38.8,13.7,78.4,16.6,118.5c8.7,119.1-6.1,236.3-44.1,348.3c-18.3,53.9-41.9,106.2-70.3,155.7
		c-28.1,49-61.2,95.6-98.2,138.5c-37,42.9-78.3,82.3-122.7,117.3c-44.8,35.3-93.2,66.3-143.8,92.3
		c-105.3,53.9-219.1,85.7-338.2,94.4c-119.1,8.7-236.3-6.1-348.3-44.1c-53.9-18.3-106.2-41.9-155.7-70.3
		c-49-28.1-95.6-61.2-138.5-98.2c-42.9-37-82.3-78.3-117.3-122.7c-35.3-44.8-66.3-93.2-92.3-143.8
		c-53.9-105.3-85.7-219.1-94.4-338.2c-1-13.6-1.7-27.2-2.1-40.7c-1.3-45.3,0.9-90.2,6.4-134.6c7.3-58.7,20.6-116.5,39.8-172.9
		c18.3-53.9,41.9-106.2,70.3-155.7c28.1-49,61.2-95.6,98.2-138.5c37-42.9,78.3-82.3,122.7-117.3c44.8-35.3,93.2-66.3,143.8-92.3
		c105.3-53.9,219.1-85.7,338.2-94.4c119.1-8.7,236.3,6.1,348.3,44.1c53.8,18.3,106.2,41.9,155.7,70.3
		c40.7,23.4,79.7,50.1,116.3,79.7L1820,242c-43.6-34.5-89.8-65.7-137.9-93.3c-62.9-36.1-129.5-66.2-197.9-89.4
		C1341.6,10.9,1192.7-8,1041.5,3.1s-295.8,51.5-429.7,120c-64.4,33-125.9,72.4-182.8,117.3c-56.4,44.4-108.8,94.5-155.7,148.9
		c-47,54.4-88.9,113.5-124.6,175.8C112.5,627.9,82.5,694.5,59.2,763C10.9,905.5-8,1054.4,3.1,1205.6
		c11.1,151.2,51.5,295.8,120,429.7c33,64.4,72.4,125.9,117.3,182.8c44.4,56.4,94.5,108.8,148.9,155.7
		c54.4,47,113.5,88.9,175.8,124.6c62.9,36.1,129.5,66.2,197.9,89.4c142.5,48.3,291.4,67.2,442.6,56.2
		c151.2-11.1,295.8-51.5,429.7-120c64.4-33,125.9-72.4,182.8-117.3c56.4-44.4,108.8-94.5,155.7-148.9
		c47-54.4,88.9-113.5,124.6-175.8c36.1-62.9,66.2-129.5,89.4-197.9c48.3-142.5,67.2-291.4,56.2-442.6
		C2235.3,923.1,2208.7,808.8,2164.7,700.5z"/>
</g>
</svg>
