<?xml version="1.0" encoding="utf-8"?>
<!-- Generator: Adobe Illustrator 24.1.1, SVG Export Plug-In . SVG Version: 6.00 Build 0)  -->
<svg version="1.1" id="Layer_1" xmlns="http://www.w3.org/2000/svg" xmlns:xlink="http://www.w3.org/1999/xlink" x="0px" y="0px"
	 viewBox="0 0 3358.4 3358.4" style="enable-background:new 0 0 3358.4 3358.4;" xml:space="preserve">
<style type="text/css">
	.st0{clip-path:url(#SVGID_2_);fill:#556FB5;}
</style>
<g>
	<defs>
		<rect id="SVGID_1_" y="0" width="3358.4" height="3358.4"/>
	</defs>
	<clipPath id="SVGID_2_">
		<use xlink:href="#SVGID_1_"  style="overflow:visible;"/>
	</clipPath>
	<path class="st0" d="M1679.3,0C753.3,0,0,753.3,0,1679.3c0,925.8,753.3,1679.1,1679.3,1679.1c925.8,0,1679.1-753.3,1679.1-1679.1
		C3358.4,753.3,2605.1,0,1679.3,0 M1679.3,2991.4c-723.7,0-1312.3-588.6-1312.3-1312C367,955.8,955.6,367,1679.3,367
		c723.5,0,1312,588.7,1312,1312.3C2991.4,2402.8,2402.8,2991.4,1679.3,2991.4"/>
	<path class="st0" d="M1824.7,1681.3V977.5c0-78.7-63.8-142.3-142.3-142.3c-78.5,0-142.3,63.6-142.3,142.3v749.1
		c0,2.3,0.5,4.5,0.7,6.6c-2,38.7,11.5,78,41.1,107.5l529.7,529.8c55.6,55.6,145.7,55.6,201.1,0c55.6-55.6,55.7-145.7,0-201.3
		L1824.7,1681.3z"/>
</g>
</svg>
