<?xml version="1.0" encoding="utf-8"?>
<!-- Generator: Adobe Illustrator 25.2.3, SVG Export Plug-In . SVG Version: 6.00 Build 0)  -->
<svg version="1.1" id="Layer_1" xmlns="http://www.w3.org/2000/svg" xmlns:xlink="http://www.w3.org/1999/xlink" x="0px" y="0px"
	 viewBox="0 0 2500 2500" style="enable-background:new 0 0 2500 2500;" xml:space="preserve">
<style type="text/css">
	.st0{fill-rule:evenodd;clip-rule:evenodd;}
</style>
<path class="st0" d="M343.3,1926.7h-92.1v36.4h84.6v30.8h-84.6v44.8h96.2v30.8H215.8V1896h127.6V1926.7z M459.8,2022.3l17.4,16.4
	c-6.1,3.1-12.8,4.7-19.6,4.6c-19.6,0-47.1-12.1-47.1-60.6s27.6-60.6,47.1-60.6c19.6,0,47.1,12.1,47.1,60.6c0,16.3-3.1,28.3-8,37.3
	l-18.4-17.1L459.8,2022.3z M541.7,2062.4l-18.9-17.8c10.6-13.6,18.2-33.4,18.2-61.9c0-81.4-60.4-91.3-83.4-91.3
	c-22.9,0-83.3,9.9-83.3,91.3c0,81.5,60.4,91.3,83.3,91.3c10.1,0,28-1.9,44.4-11.6l20.6,19.6L541.7,2062.4L541.7,2062.4z
	 M711.6,2008.9c0,45.6-27.6,65.2-71.3,65.2c-15.9,0-39.6-3.9-55.1-21c-9.4-10.6-13-24.7-13.5-42v-115h37v112.6
	c0,24.2,14,34.8,30.9,34.8c24.9,0,35-12.1,35-33.1V1896h37L711.6,2008.9L711.6,2008.9L711.6,2008.9z M808.6,1935.2h0.5l21.5,68.6
	h-44.3L808.6,1935.2z M776.7,2033.7h64.1l11.1,35.9h39.4L830.2,1896h-41.8l-61.9,173.5h38.2L776.7,2033.7L776.7,2033.7z
	 M955.8,2038.1h86.2v31.4H919.5V1896h36.3V2038.1z M1179.4,1991.7v77.9h-36.2V1896h36.2v65.7h67.7V1896h36.2v173.5h-36.2v-77.9
	H1179.4z M1352.4,1982.8c0-48.6,27.6-60.6,47.1-60.6c19.6,0,47.2,12.1,47.2,60.6s-27.6,60.6-47.2,60.6
	C1380,2043.4,1352.4,2031.3,1352.4,1982.8z M1316.2,1982.8c0,81.5,60.4,91.3,83.3,91.3c23,0,83.4-9.9,83.4-91.3
	c0-81.4-60.4-91.3-83.4-91.3C1376.6,1891.5,1316.2,1901.3,1316.2,1982.8z M1655.9,2008.9c0,45.6-27.6,65.2-71.3,65.2
	c-16,0-39.6-3.9-55.1-21c-9.4-10.6-13-24.7-13.5-42v-115h36.9v112.6c0,24.2,14.1,34.8,31,34.8c24.9,0,35-12.1,35-33.1V1896h37
	L1655.9,2008.9L1655.9,2008.9L1655.9,2008.9z M1722.2,2016.1c0.3,9.6,5.2,28,36.8,28c17.1,0,36.3-4.1,36.3-22.5
	c0-13.5-13-17.1-31.4-21.5l-18.6-4.4c-28.1-6.5-55.1-12.7-55.1-50.9c0-19.4,10.5-53.4,66.7-53.4c53.2,0,67.4,34.8,67.7,56h-34.8
	c-0.9-7.7-3.9-26.1-35.5-26.1c-13.7,0-30.2,5.1-30.2,20.8c0,13.6,11.1,16.4,18.3,18.1l42.3,10.4c23.7,5.8,45.4,15.5,45.4,46.6
	c0,52.3-53.1,56.8-68.4,56.8c-63.3,0-74.1-36.5-74.1-58L1722.2,2016.1L1722.2,2016.1L1722.2,2016.1z M1896,2069.5h-36.1V1896h36.1
	L1896,2069.5L1896,2069.5z M2040.8,1896h33.8v173.5h-36.2l-70.8-123.8h-0.6v123.8h-33.8V1896h38.2l68.8,120.8h0.6L2040.8,1896
	L2040.8,1896z M2195.9,1976h72.4v93.5h-24.1l-3.6-21.7c-9.2,10.5-22.5,26.3-54.1,26.3c-41.8,0-79.7-29.9-79.7-90.8
	c0-47.3,26.3-92.1,84.7-91.8c53.2,0,74.3,34.5,76.1,58.5h-36.2c0-6.8-12.4-28.6-37.9-28.6c-25.9,0-49.8,17.9-49.8,62.3
	c0,47.4,25.9,59.7,50.5,59.7c8,0,34.6-3.1,42-38.2h-40.3L2195.9,1976L2195.9,1976z M244.3,2246.3c0-48.6,27.5-60.7,47.1-60.7
	c19.6,0,47.1,12.1,47.1,60.7c0,48.5-27.5,60.7-47.1,60.7C271.8,2307,244.3,2294.9,244.3,2246.3L244.3,2246.3z M208.1,2246.3
	c0,81.4,60.4,91.4,83.3,91.4c23,0,83.3-10,83.3-91.4s-60.4-91.3-83.3-91.3C268.4,2155,208.1,2164.9,208.1,2246.3z M474,2240.5v-51
	h28.8c22.5,0,31.9,7.1,31.9,24c0,7.7,0,27-27.1,27H474L474,2240.5z M474,2270.5h41.5c46.7,0,55.3-39.7,55.3-55.4
	c0-34-20.2-55.6-53.9-55.6h-79.2v173.5H474V2270.5L474,2270.5z M669.2,2240.5v-51h28.7c22.5,0,31.9,7.1,31.9,24c0,7.7,0,27-27,27
	H669.2z M669.2,2270.5h41.6c46.6,0,55.3-39.7,55.3-55.4c0-34-20.3-55.6-53.9-55.6H633v173.5h36.3V2270.5L669.2,2270.5z
	 M856.7,2246.3c0-48.6,27.5-60.7,47.1-60.7c19.5,0,47.1,12.1,47.1,60.7c0,48.5-27.6,60.7-47.1,60.7
	C884.2,2307,856.7,2294.9,856.7,2246.3z M820.5,2246.3c0,81.4,60.4,91.4,83.4,91.4c22.9,0,83.3-10,83.3-91.4s-60.4-91.3-83.3-91.3
	C880.9,2155,820.5,2164.9,820.5,2246.3z M1085.8,2235.9v-46.5h45.1c21.3,0,25.3,13.6,25.3,22.8c0,17.2-9.1,23.7-28,23.7H1085.8z
	 M1050.2,2333.1h35.6v-67.9h37.4c26.8,0,28.3,9.1,28.3,32.8c0,17.8,1.4,26.8,3.8,35.1h40.1v-4.7c-7.7-2.9-7.7-9.2-7.7-34.4
	c0-32.5-7.7-37.7-22-44c17.1-5.7,26.8-22.2,26.8-41.3c0-15-8.4-49.1-54.6-49.1h-87.8L1050.2,2333.1L1050.2,2333.1z M1327.5,2333.1
	h-36.2v-142.8h-52.4v-30.7H1380v30.7h-52.5V2333.1z M1574.5,2272.4c0,45.7-27.5,65.4-71.3,65.4c-15.9,0-39.5-4-55-21.2
	c-9.4-10.6-13-24.6-13.5-42v-115h36.9v112.6c0,24.2,14,34.9,30.9,34.9c24.9,0,35-12.2,35-33.2v-114.3h37L1574.5,2272.4
	L1574.5,2272.4L1574.5,2272.4z M1749.8,2159.6h33.9v173.5h-36.3l-70.8-123.8h-0.4v123.8h-33.9v-173.5h38.2l68.9,120.8h0.4
	L1749.8,2159.6L1749.8,2159.6z M1886,2333.1h-36.4v-173.5h36.4V2333.1L1886,2333.1z M2027.4,2333.1h-36.2v-142.8h-52.3v-30.7h141
	v30.7h-52.5V2333.1z M2216.9,2333.1h-36.3v-65.5l-59.9-108h42.7l36,75.4l34.4-75.4h41l-58,108.4V2333.1L2216.9,2333.1z M1241.3,88.7
	L73.2,664v270.2h130.7v810.6h2065.9V934.3h157V664L1241.3,88.7z M2017.1,1500.8H456.7V759.9L1241.3,359l775.8,400.9L2017.1,1500.8
	L2017.1,1500.8L2017.1,1500.8z"/>
<path class="st0" d="M1598.6,1021.4H875.2V759.9h723.4V1021.4z M1598.6,1396.4H875.2v-261.6h723.4V1396.4L1598.6,1396.4z"/>
</svg>
