<?xml version="1.0" encoding="utf-8"?>
<!-- Generator: Adobe Illustrator 24.1.1, SVG Export Plug-In . SVG Version: 6.00 Build 0)  -->
<svg version="1.1" id="Layer_1" xmlns="http://www.w3.org/2000/svg" xmlns:xlink="http://www.w3.org/1999/xlink" x="0px" y="0px"
	 viewBox="0 0 72 72" style="enable-background:new 0 0 72 72;" xml:space="preserve">
<g>
	<path d="M72,36.2C72,36.2,72,36.1,72,36.2c0-0.1,0-0.2,0-0.3c0,0,0,0,0,0c0-0.1,0-0.2,0-0.2c0,0,0-0.1,0-0.1c0-0.1,0-0.2,0-0.3
		c0,0,0,0,0-0.1c0-0.1,0-0.2,0-0.2c0,0,0-0.1,0-0.1c0,0,0-0.1,0-0.1c-0.4-7-3.2-13.6-8.1-18.6c-0.9-1-1.9-1.9-3-2.7
		C56.4,9.8,51,7.6,45.4,7.1c-2.2-0.2-4.5-0.2-6.7,0.1c-3.9,0.5-7.6,1.8-10.9,3.8c-2.8,1.7-5.3,3.8-7.4,6.3c-0.1,0.1-0.2,0.2-0.3,0.4
		c-0.4,0.8-0.3,1.8,0.4,2.4c0.8,0.7,2,0.6,2.7-0.2c1.1-1.2,2.2-2.4,3.5-3.4c4.5-3.6,9.8-5.5,15.6-5.6c1,0,1.9,0,2.9,0.1c0,0,0,0,0,0
		c0.1,0,0.1,0,0.2,0c1.7,0.2,3.4,0.6,5.1,1.1c2.5,0.8,4.8,2,6.8,3.4c0,0,0,0,0,0c0.1,0.1,0.1,0.1,0.2,0.2c0,0,0.1,0,0.1,0.1
		c0.1,0,0.1,0.1,0.2,0.1c0,0,0.1,0,0.1,0.1c0.1,0,0.1,0.1,0.2,0.1c0,0,0,0,0.1,0c0.1,0.1,0.1,0.1,0.2,0.2c0,0,0,0,0,0
		c8.1,6.4,11.9,17.5,8.5,27.9c-0.7,2.2-1.7,4.2-2.9,6c-1.1,1.6-2.3,3.1-3.7,4.5c0,0,0,0,0,0c-0.1,0.1-0.1,0.1-0.2,0.2
		c0,0-0.1,0.1-0.1,0.1c0,0,0,0,0,0c-4,3.7-9,6-14.4,6.6c-0.1,0-0.1,0-0.2,0c0,0,0,0,0,0c-0.7,0.1-1.5,0.1-2.3,0.1
		c-1.9,0-3.8-0.2-5.6-0.5c0,0-0.1,0-0.1,0c-0.1,0-0.1,0-0.2,0c-0.8-0.2-1.6-0.4-2.4-0.6c-1.5-0.5-2.9-1.1-4.2-1.8
		c-4.9-2.7-9-7-11.3-12.4c0-0.1-0.1-0.1-0.1-0.2c-0.5-0.9-1.5-1.3-2.5-0.9c-1,0.4-1.4,1.5-1,2.5c0.7,1.7,1.6,3.4,2.7,5
		c3.3,4.9,7.9,8.7,13.4,10.8l0,0c1.3,0.5,2.6,0.9,3.9,1.2c0.1,0,0.2,0,0.3,0.1c0,0,0.1,0,0.1,0c4.5,1,9.1,1,13.5-0.1
		c0.1,0,0.1,0,0.2,0c0,0,0,0,0,0c4.2-1,8.2-3,11.6-5.9c1.8-1.5,3.5-3.3,4.9-5.2C70,48.7,72,42.6,72,36.2z"/>
	<path d="M28.5,24.4c0-1-0.8-1.9-1.9-1.9H1.9c-1,0-1.9,0.8-1.9,1.9l0,0c0,1,0.8,1.9,1.9,1.9h24.7C27.7,26.2,28.5,25.4,28.5,24.4z"/>
	<path d="M28.5,33c0-1-0.8-1.9-1.9-1.9H5.3c-1,0-1.9,0.8-1.9,1.9c0,1,0.8,1.9,1.9,1.9h21.3C27.7,34.8,28.5,34,28.5,33z"/>
	<path d="M28.5,41.6c0-1-0.8-1.9-1.9-1.9H9.4c-1,0-1.9,0.8-1.9,1.9s0.8,1.9,1.9,1.9h17.2C27.7,43.4,28.5,42.6,28.5,41.6z"/>
	<path d="M42.9,44.1l15.6-14.6c0.8-0.8,0.9-2.1,0.1-3c-0.8-0.8-2.1-0.9-3-0.1l-12.8,12c-0.1,0.1-0.3,0.1-0.4,0l-3.8-3.9
		c-0.8-0.8-2.1-0.9-3-0.1s-0.9,2.1-0.1,3l6.4,6.7C42.2,44.3,42.7,44.3,42.9,44.1z"/>
</g>
</svg>
