<svg xmlns="http://www.w3.org/2000/svg" width="53" height="53" viewBox="0 0 53 53" class="svg replaced-svg">
  <metadata><?xpacket begin="&#xFEFF;" id="W5M0MpCehiHzreSzNTczkc9d"?>
<x:xmpmeta xmlns:x="adobe:ns:meta/" x:xmptk="Adobe XMP Core 5.6-c145 79.163499, 2018/08/13-16:40:22        ">
   <rdf:RDF xmlns:rdf="http://www.w3.org/1999/02/22-rdf-syntax-ns#">
      <rdf:Description xmlns:xmp="http://ns.adobe.com/xap/1.0/" rdf:about="">
         <xmp:CreatorTool>Adobe Photoshop CC (Macintosh)</xmp:CreatorTool>
      </rdf:Description>
   </rdf:RDF>
</x:xmpmeta>
                         
<?xpacket end="w"?></metadata>
<defs>
    <style>
      .cls-1 {
        fill: #fff;
        fill-rule: evenodd;
      }
    </style>
  </defs>
  <path id="Forma_1" data-name="Forma 1" class="cls-1" d="M506.48,1363.03a1.035,1.035,0,1,0,1.035,1.04A1.041,1.041,0,0,0,506.48,1363.03Zm6.208,8.28a1.035,1.035,0,1,1,0-2.07,1.675,1.675,0,0,1,1.118.54,1.032,1.032,0,1,0,1.439-1.48,4.04,4.04,0,0,0-1.523-.96v-1.2a1.035,1.035,0,1,0-2.069,0v1.21a3.1,3.1,0,0,0,1.035,6.03,1.035,1.035,0,0,1,0,2.07,1.885,1.885,0,0,1-1.344-.78,1.034,1.034,0,1,0-1.584,1.33,4.352,4.352,0,0,0,1.893,1.35v1.2a1.035,1.035,0,1,0,2.069,0v-1.21A3.1,3.1,0,0,0,512.688,1371.31Zm22.347,0.62a4.146,4.146,0,0,0-4.139,4.14v7.37a4.168,4.168,0,0,0-3.96,1.08L520,1391.46a5.153,5.153,0,0,0-1.516,3.66v6.09h-1.034a1.034,1.034,0,0,0-1.035,1.04v6.51a1.04,1.04,0,0,0,1.035,1.04h14.484a1.04,1.04,0,0,0,1.034-1.04v-6.51a1.033,1.033,0,0,0-1.034-1.04H530.9v-0.49a1.037,1.037,0,0,1,.3-0.73l6.457-6.46a5.115,5.115,0,0,0,1.516-3.66v-13.8A4.146,4.146,0,0,0,535.035,1371.93Zm-4.139,35.8H518.481v-4.45H530.9v4.45Zm6.208-17.86a3.1,3.1,0,0,1-.91,2.2l-6.458,6.46a3.13,3.13,0,0,0-.909,2.19v0.49H520.55v-6.09a3.058,3.058,0,0,1,.91-2.19l6.939-6.94a2.064,2.064,0,0,1,2.84-.08c0.006,0,.012.01,0.018,0.01,0.023,0.02.045,0.05,0.068,0.07a2.061,2.061,0,0,1,0,2.92l-5.14,5.14a1.037,1.037,0,0,0,1.463,1.47l5.14-5.14a4.132,4.132,0,0,0,.178-5.66v-8.65a2.07,2.07,0,1,1,4.139,0v13.8Zm-29.176,11.34h-1.034v-6.09a5.153,5.153,0,0,0-1.516-3.66l-6.939-6.94a4.168,4.168,0,0,0-3.96-1.08v-7.37a4.139,4.139,0,1,0-8.277,0v13.8a5.115,5.115,0,0,0,1.516,3.66l6.457,6.46a1.037,1.037,0,0,1,.3.73v0.49h-1.035a1.033,1.033,0,0,0-1.034,1.04v6.51a1.04,1.04,0,0,0,1.034,1.04h14.484a1.04,1.04,0,0,0,1.035-1.04v-6.51A1.034,1.034,0,0,0,507.928,1401.21Zm-18.747-9.14a3.1,3.1,0,0,1-.91-2.2v-13.8a2.07,2.07,0,1,1,4.139,0v8.65a4.133,4.133,0,0,0,.177,5.66l5.173,5.17a1.043,1.043,0,0,0,1.464,0,1.031,1.031,0,0,0,0-1.46l-5.174-5.18a2.062,2.062,0,0,1,0-2.92c0.023-.02.045-0.05,0.068-0.07l0.018-.01a2.064,2.064,0,0,1,2.84.08l6.94,6.94a3.061,3.061,0,0,1,.909,2.19v6.09h-8.277v-0.49a3.13,3.13,0,0,0-.909-2.19Zm17.713,15.66H494.479v-4.45h12.415v4.45Zm5.794-50.9a15.515,15.515,0,1,0,15.518,15.52A15.535,15.535,0,0,0,512.688,1356.83Zm0,28.97a13.45,13.45,0,1,1,13.449-13.45A13.469,13.469,0,0,1,512.688,1385.8Zm7.144-22.31a11.418,11.418,0,0,0-9.666-2.25,1.033,1.033,0,1,0,.437,2.02,9.4,9.4,0,0,1,7.929,1.84,9.308,9.308,0,1,1-14.055,2.85,1.035,1.035,0,0,0-1.823-.98A11.383,11.383,0,1,0,519.832,1363.49Z" transform="translate(-486.188 -1356.81)"></path>
</svg>