<?xml version="1.0" encoding="utf-8"?>
<!-- Generator: Adobe Illustrator 24.1.1, SVG Export Plug-In . SVG Version: 6.00 Build 0)  -->
<svg version="1.1" id="Layer_1" xmlns="http://www.w3.org/2000/svg" xmlns:xlink="http://www.w3.org/1999/xlink" x="0px" y="0px"
	 viewBox="0 0 49 35.6" style="enable-background:new 0 0 49 35.6;" xml:space="preserve">
<style type="text/css">
	.st0{clip-path:url(#SVGID_2_);fill:none;stroke:#000000;stroke-width:2;stroke-miterlimit:10;}
</style>
<g>
	<defs>
		<rect id="SVGID_1_" width="49" height="35.6"/>
	</defs>
	<clipPath id="SVGID_2_">
		<use xlink:href="#SVGID_1_"  style="overflow:visible;"/>
	</clipPath>
	<path class="st0" d="M5.7,20.4l3.1-1.9c0.4-0.2,0.8-0.4,1.3-0.4c1.4,0,2.5,1.1,2.5,2.5c0,0.9-0.5,1.7-1.2,2.1l-3.1,1.9
		C7.9,24.9,7.5,25,7,25c-1.4,0-2.5-1.1-2.5-2.5C4.5,21.6,5,20.8,5.7,20.4z"/>
	<path class="st0" d="M9.7,23.8l3.1-1.9c0.4-0.2,0.8-0.4,1.3-0.4c1.4,0,2.5,1.1,2.5,2.5c0,0.9-0.5,1.7-1.2,2.1L12.3,28
		c-0.4,0.2-0.8,0.4-1.3,0.4c-1.4,0-2.5-1.1-2.5-2.5C8.5,25,9,24.2,9.7,23.8z"/>
	<path class="st0" d="M13.7,27.2l3.1-1.9c0.4-0.2,0.8-0.4,1.3-0.4c1.4,0,2.5,1.1,2.5,2.5c0,0.9-0.5,1.7-1.2,2.1l-3.1,1.9
		c-0.4,0.2-0.8,0.4-1.3,0.4c-1.4,0-2.5-1.1-2.5-2.5C12.5,28.4,13,27.6,13.7,27.2z"/>
	<path class="st0" d="M18.7,29.9l3.1-1.9c0.4-0.2,0.8-0.4,1.3-0.4c1.4,0,2.5,1.1,2.5,2.5c0,0.9-0.5,1.7-1.2,2.1l-3.1,1.9
		c-0.4,0.2-0.8,0.4-1.3,0.4c-1.4,0-2.5-1.1-2.5-2.5C17.5,31.2,18,30.4,18.7,29.9z"/>
	<path class="st0" d="M32.1,19.3l7.2,4.5l1.4,0.8c0.4,0.2,0.8,0.4,1.3,0.4c1.4,0,2.5-1.1,2.5-2.5c0-0.9-0.5-1.7-1.2-2.1l-19.4-12
		l-2.4,2V14c0,1.7-1.3,3-3,3h-3V9c0-0.9,0.4-1.7,1.1-2.3l6-5C23.1,1.3,23.8,1,24.5,1c0.3,0,0.6,0.1,1,0.2l9.3,3.2
		c3.1,1,6.4,0.8,9.3-0.6L47.5,2"/>
	<path class="st0" d="M1.5,2L5,3.8c2.9,1.4,6.2,1.7,9.3,0.6l9.3-3.2c0.3-0.1,0.6-0.2,1-0.2"/>
	<path class="st0" d="M32.1,19.3l7.2,4.5c0.7,0.4,1.2,1.2,1.2,2.1c0,1.4-1.1,2.5-2.5,2.5c-0.5,0-0.9-0.1-1.3-0.4l-1.4-0.9l-5.8-3.6"
		/>
	<path class="st0" d="M26.9,27.8l3.4,2.1l2.4,1.5c0.4,0.2,0.8,0.4,1.3,0.4c1.4,0,2.5-1.1,2.5-2.5c0-0.9-0.5-1.7-1.2-2.1l-5.8-3.6"/>
	<path class="st0" d="M5.5,20.5C4.2,19.5,2.6,19,1,19H0.5"/>
	<path class="st0" d="M43.5,20.5c1.3-1,2.9-1.5,4.5-1.5h0.5"/>
	<line class="st0" x1="27.7" y1="34.2" x2="24.5" y2="32.2"/>
	<path class="st0" d="M26.9,27.8l3.4,2.1c0.7,0.4,1.2,1.2,1.2,2.1c0,1.4-1.1,2.5-2.5,2.5c-0.5,0-0.9-0.1-1.3-0.4"/>
	<line class="st0" x1="18.5" y1="13" x2="15.5" y2="13"/>
</g>
</svg>
