<?xml version="1.0" encoding="utf-8"?>
<!-- Generator: Adobe Illustrator 24.1.1, SVG Export Plug-In . SVG Version: 6.00 Build 0)  -->
<svg version="1.1" id="Layer_1" xmlns="http://www.w3.org/2000/svg" xmlns:xlink="http://www.w3.org/1999/xlink" x="0px" y="0px"
	 viewBox="0 0 78.3 84.7" style="enable-background:new 0 0 78.3 84.7;" xml:space="preserve">
<style type="text/css">
	.st0{clip-path:url(#SVGID_2_);fill:url(#SVGID_3_);}
	.st1{clip-path:url(#SVGID_5_);fill:url(#SVGID_6_);}
</style>
<g>
	<defs>
		<path id="SVGID_1_" d="M29.7,71.5c-9.9-17-19.8-34-29.6-50.9l-0.1,0v64.1h0.5c25.8,0,51.6,0,77.4,0c0.4,0,0.5-0.1,0.5-0.5
			c0-27.6,0-55.1,0-82.7V1.2l-0.1,0C62.1,24.6,45.9,48,29.7,71.5"/>
	</defs>
	<clipPath id="SVGID_2_">
		<use xlink:href="#SVGID_1_"  style="overflow:visible;"/>
	</clipPath>
	
		<linearGradient id="SVGID_3_" gradientUnits="userSpaceOnUse" x1="0" y1="84.677" x2="1" y2="84.677" gradientTransform="matrix(78.3104 0 0 -78.3104 0 6674.0078)">
		<stop  offset="0" style="stop-color:#4766FE"/>
		<stop  offset="1" style="stop-color:#63E2FF"/>
	</linearGradient>
	<rect y="1.2" class="st0" width="78.3" height="83.5"/>
</g>
<g>
	<defs>
		<path id="SVGID_4_" d="M9.1,0C16.4,12.6,23.7,25.1,31,37.7C39.7,25.1,48.3,12.6,57,0H9.1z"/>
	</defs>
	<clipPath id="SVGID_5_">
		<use xlink:href="#SVGID_4_"  style="overflow:visible;"/>
	</clipPath>
	
		<linearGradient id="SVGID_6_" gradientUnits="userSpaceOnUse" x1="-6.605052e-06" y1="84.677" x2="1" y2="84.677" gradientTransform="matrix(47.936 0 0 -47.936 9.0833 4077.917)">
		<stop  offset="0" style="stop-color:#4766FE"/>
		<stop  offset="1" style="stop-color:#63E2FF"/>
	</linearGradient>
	<rect x="9.1" class="st1" width="47.9" height="37.7"/>
</g>
</svg>
