<?xml version="1.0" encoding="utf-8"?>
<!-- Generator: Adobe Illustrator 24.1.1, SVG Export Plug-In . SVG Version: 6.00 Build 0)  -->
<svg version="1.1" id="Layer_1" xmlns="http://www.w3.org/2000/svg" xmlns:xlink="http://www.w3.org/1999/xlink" x="0px" y="0px"
	 viewBox="0 0 218.3 236.3" style="enable-background:new 0 0 218.3 236.3;" xml:space="preserve">
<style type="text/css">
	.st0{fill:none;}
	.st1{fill:#FFFFFF;}
</style>
<g>
	<path class="st0" d="M129.5,140.2c3.4-7.6,8.8-14.2,15.5-19V95.7c0-3,2.4-5.4,5.4-5.4H167l0.6-0.4L89.4,10.9c0,0-0.4,0-0.5,0
		c0,0-0.1,0-0.1,0L10.9,89.5l0.1,0.7l16.8,0.1c3,0,5.4,2.4,5.4,5.4v69.1l0.4,0.4h27.5c0.2,0,0.4-0.2,0.4-0.4v-41.2
		c0-0.1,0-0.4,0-0.5c0-6.2,5.4-11.6,12-11.6h31.1c6.5,0,11.8,5.2,12,11.7c0,0.2,0,0.3,0,0.5v41.2c0,0.2,0.2,0.4,0.4,0.4h8.9
		c-0.3-2-0.4-4.1-0.4-6.2C125.5,152.3,127,145.9,129.5,140.2z"/>
	<path class="st0" d="M135.7,187.9L135.7,187.9l-30.9,30.9c-0.8,0.8-1.3,2-1.3,3.1c0,1.2,0.5,2.3,1.3,3.1c0.8,0.8,2,1.3,3.1,1.3
		s2.3-0.5,3.1-1.3l30.8-30.8c0,0,0,0,0,0C139.6,192.4,137.6,190.2,135.7,187.9z"/>
	<path class="st0" d="M171.9,122.5c-2.4,0-4.8,0.2-7,0.7c-1.7,0.3-3.4,0.8-5,1.4c-1.4,0.5-2.7,1-4,1.7c-0.2,0.1-0.5,0.2-0.7,0.4
		c-2.2,1.1-4.2,2.5-6.1,4c-1.4,1.2-2.8,2.4-4,3.8c-5.9,6.5-9.6,15.1-9.6,24.6c0,2.1,0.2,4.2,0.5,6.2c0.2,1,0.4,2,0.6,3c0,0,0,0,0,0
		c0.7,2.7,1.8,5.4,3,7.8c0.3,0.7,0.7,1.3,1.1,1.9c0.2,0.4,0.4,0.7,0.7,1.1c6.5,9.9,17.7,16.4,30.4,16.4c20.1,0,36.4-16.4,36.4-36.4
		C208.3,138.9,192,122.5,171.9,122.5z"/>
	<path class="st1" d="M171.9,112.6c-2.4,0-4.7,0.2-7,0.5c-1.7,0.3-3.4,0.6-5,1.1c-1.4,0.4-2.7,0.8-4,1.3v-14.4H167
		c4.5,0,8.6-2.7,10.4-6.9c1.4-3.5,1.1-7.4-1-10.6c-0.4-0.6-0.9-1.2-1.4-1.7L97.1,3.3c-1.2-1.3-2.8-2.2-4.5-2.8
		c-4-1.3-8.6-0.2-11.5,2.8L3.3,81.9c-3.2,3.2-4.1,8-2.4,12.2c0.2,0.3,0.3,0.7,0.5,1.1c1,1.9,2.6,3.5,4.5,4.5
		c1.7,0.9,3.5,1.4,5.4,1.4h11.2v63.7c0,2.4,0.7,4.7,2.1,6.6c0.7,1,1.6,1.9,2.6,2.6c1.9,1.4,4.2,2.1,6.6,2.1h27.5
		c6.2,0,11.2-5,11.2-11.2l0-40.8c0-0.1,0-0.4,0-0.5c0-0.7,0.5-1.2,1.2-1.2h31.1c0.6,0,1.2,0.5,1.2,1.2c0,0.1,0,0.3,0,0.4v40.9
		c0,6.2,5,11.2,11.2,11.2h11.7c0.3,0.6,0.5,1.3,0.8,1.9c0.2,0.4,0.3,0.7,0.5,1.1c0,0.1,0.1,0.2,0.1,0.3v0l-32.5,32.5
		c-2.7,2.7-4.2,6.3-4.2,10.2c0,3.8,1.5,7.4,4.2,10.2c2.7,2.7,6.3,4.2,10.2,4.2s7.4-1.5,10.2-4.2l32.2-32.2c0,0,0,0,0,0
		c6.5,3.4,13.8,5.4,21.6,5.4c25.5,0,46.3-20.8,46.3-46.3S197.5,112.6,171.9,112.6z M117.1,165.2c-0.2,0-0.4-0.2-0.4-0.4v-41.2
		c0-0.1,0-0.3,0-0.5c-0.2-6.5-5.5-11.7-12-11.7H73.6c-6.6,0-12,5.4-12,11.6c0,0.1,0,0.4,0,0.5v41.2c0,0.2-0.2,0.4-0.4,0.4H33.7
		l-0.4-0.4V95.7c0-3-2.4-5.4-5.4-5.4L11,90.2l-0.1-0.7l77.9-78.6c0,0,0,0,0.1,0c0.2,0,0.5,0,0.5,0l78.1,78.9l-0.6,0.4h-16.6
		c-3,0-5.4,2.4-5.4,5.4v25.6c-6.7,4.8-12.1,11.3-15.5,19c-2.6,5.8-4,12.1-4,18.8c0,2.1,0.1,4.2,0.4,6.2H117.1z M111.1,225.1
		c-0.8,0.8-2,1.3-3.1,1.3s-2.3-0.5-3.1-1.3c-0.8-0.8-1.3-2-1.3-3.1c0-1.2,0.5-2.3,1.3-3.1l30.9-30.9v0c1.9,2.3,3.9,4.5,6.2,6.4
		c0,0,0,0,0,0L111.1,225.1z M171.9,195.4c-12.7,0-23.9-6.5-30.4-16.4c-0.2-0.3-0.5-0.7-0.7-1.1c-0.4-0.6-0.7-1.3-1.1-1.9
		c-1.3-2.4-2.3-5.1-3-7.8c0,0,0,0,0,0c-0.3-1-0.5-2-0.6-3c-0.3-2-0.5-4.1-0.5-6.2c0-9.5,3.6-18.1,9.6-24.6c1.2-1.3,2.6-2.6,4-3.8
		c1.9-1.5,3.9-2.8,6.1-4c0.2-0.1,0.5-0.2,0.7-0.4c1.3-0.6,2.6-1.2,4-1.7c1.6-0.6,3.3-1,5-1.4c2.3-0.4,4.6-0.7,7-0.7
		c20.1,0,36.4,16.3,36.4,36.4C208.3,179.1,192,195.4,171.9,195.4z"/>
</g>
</svg>
