<?xml version="1.0" encoding="utf-8"?>
<!-- Generator: Adobe Illustrator 24.1.1, SVG Export Plug-In . SVG Version: 6.00 Build 0)  -->
<svg version="1.1" id="Layer_1" xmlns="http://www.w3.org/2000/svg" xmlns:xlink="http://www.w3.org/1999/xlink" x="0px" y="0px"
	 viewBox="0 0 224.1 280.7" style="enable-background:new 0 0 224.1 280.7;" xml:space="preserve">
<style type="text/css">
	.st0{fill:none;}
	.st1{fill:#FFFFFF;}
</style>
<g>
	<path class="st0" d="M88.9,115.7C88.8,115.7,88.8,115.7,88.9,115.7l-78,78.6c0,0,0.1,0.7,0.1,0.7l16.8,0.1c3,0,5.4,2.4,5.4,5.4
		v69.1l0.4,0.4h27.5c0.2,0,0.4-0.2,0.4-0.4v-41.2c0-0.1,0-0.4,0-0.5c0-6.2,5.4-11.6,12-11.6h31.1c6.5,0,11.8,5.2,12,11.7
		c0,0.2,0,0.3,0,0.5v41.2c0,0.2,0.2,0.4,0.4,0.4h27.5c0.2,0,0.4-0.2,0.4-0.4v-69.1c0-3,2.4-5.4,5.4-5.4H167l0.6-0.4l-78.1-78.9
		C89.4,115.7,89.1,115.7,88.9,115.7z"/>
	<path class="st0" d="M173.4,11.9c-3.6-0.8-7.3-1.2-11-1.2c-13.2,0-26.2,5.4-35.7,14.7c-7,6.9-11.8,15.6-13.9,25.2
		c-5.1,23.3,6.4,46.7,28,56.8c1.9,0.9,3.3,2.7,3.6,4.8l3.1,15.1l10.2-12.5c1.2-1.6,3-2.5,5-2.5c23.9-0.1,44.1-16.5,49.2-39.9
		c2.1-9.6,1.4-19.5-2.1-28.6C204,27.5,190.3,15.6,173.4,11.9z M167.9,94.5v4.4c0,3-2.4,5.4-5.4,5.4s-5.4-2.4-5.4-5.4v-4.5
		c-10.1-2.1-17.6-9.7-17.6-18.8c0-3,2.4-5.4,5.4-5.4s5.4,2.4,5.4,5.4c0,4.7,5.6,8.6,12.3,8.6c6.7,0,12.4-3.9,12.4-8.6
		c0-2.2-2.3-8.6-12.5-8.6c-16.1,0-23.3-11.4-23.3-19.5c0-9.2,7.6-16.9,17.9-18.9v-4.4c0-3,2.4-5.4,5.4-5.4s5.4,2.4,5.4,5.4v4.5
		c10.1,2.1,17.6,9.8,17.6,18.9c0,3-2.4,5.4-5.4,5.4s-5.4-2.4-5.4-5.4c0-4.7-5.7-8.6-12.4-8.6c-6.7,0-12.3,4-12.3,8.6
		c0,1.8,2.1,8.7,12.5,8.7c16.9,0,23.3,11.9,23.3,19.4C185.8,84.8,178.1,92.5,167.9,94.5z"/>
	<path class="st1" d="M175,186.6l-77.9-78.6c-1.2-1.3-2.8-2.2-4.5-2.8c-4-1.3-8.6-0.2-11.5,2.8L3.3,186.7c-3.2,3.2-4.1,8-2.4,12.2
		c0.1,0.4,0.3,0.7,0.5,1.1c1,1.9,2.6,3.5,4.5,4.5c1.6,0.9,3.5,1.4,5.4,1.4h11.2v63.7c0,2.4,0.7,4.7,2.1,6.6c0.7,1,1.6,1.9,2.6,2.6
		c1.9,1.4,4.2,2.1,6.6,2.1h27.5c6.2,0,11.2-5,11.2-11.2l0-40.8c0-0.1,0-0.4,0-0.5c0-0.7,0.5-1.2,1.2-1.2h31.1c0.7,0,1.2,0.5,1.2,1.2
		c0,0.1,0,0.3,0,0.4v40.9c0,6.2,5,11.2,11.2,11.2h27.5c6.2,0,11.2-5,11.2-11.2v-63.7H167c4.5,0,8.6-2.7,10.4-6.9
		c1.4-3.5,1.1-7.4-1-10.6C176,187.7,175.5,187.2,175,186.6z M167,195h-16.6c-3,0-5.4,2.4-5.4,5.4v69.1c0,0.2-0.2,0.4-0.4,0.4h-27.5
		c-0.2,0-0.4-0.2-0.4-0.4v-41.2c0-0.1,0-0.3,0-0.5c-0.2-6.5-5.5-11.7-12-11.7H73.6c-6.6,0-12,5.4-12,11.6c0,0.1,0,0.4,0,0.5v41.2
		c0,0.2-0.2,0.4-0.4,0.4H33.6l-0.4-0.4v-69.1c0-3-2.4-5.4-5.4-5.4L11,194.9c0,0-0.1-0.7-0.1-0.7l77.9-78.6c0,0,0,0,0.1,0
		c0.2,0,0.6,0,0.6,0l78.1,78.9L167,195z"/>
	<path class="st1" d="M220.1,40c-7.3-19.7-23.9-34.1-44.4-38.6c-20.2-4.4-42,1.9-56.5,16.4c-8.4,8.3-14.3,18.9-16.8,30.5
		c-6,27.6,7,55.2,31.9,67.9l5,24.4c0.4,2,2,3.7,4,4.2c0.4,0.1,0.9,0.2,1.3,0.2c1.6,0,3.1-0.7,4.2-2l16.3-20
		c28-1.1,51.5-20.7,57.6-48.3C225.2,63.1,224.3,51,220.1,40z M212.1,72.4c-5.1,23.3-25.4,39.7-49.2,39.9c-2,0-3.9,1-5,2.5
		l-10.2,12.5l-3.1-15.1c-0.3-2.1-1.7-3.9-3.6-4.8c-21.6-10.1-33.1-33.5-28-56.8c2.1-9.6,6.9-18.3,13.9-25.2
		c9.4-9.4,22.4-14.7,35.7-14.7c3.7,0,7.4,0.4,11,1.2c16.9,3.7,30.6,15.6,36.7,31.8C213.5,52.9,214.2,62.8,212.1,72.4z"/>
	<path class="st1" d="M162.5,56.2c-10.4,0-12.5-6.9-12.5-8.7c0-4.7,5.6-8.6,12.3-8.6c6.7,0,12.4,4,12.4,8.6c0,3,2.4,5.4,5.4,5.4
		s5.4-2.4,5.4-5.4c0-9.1-7.5-16.8-17.6-18.9v-4.5c0-3-2.4-5.4-5.4-5.4s-5.4,2.4-5.4,5.4v4.4c-10.2,2-17.9,9.7-17.9,18.9
		c0,8.1,7.2,19.5,23.3,19.5c10.2,0,12.5,6.3,12.5,8.6c0,4.7-5.7,8.6-12.4,8.6c-6.7,0-12.3-3.9-12.3-8.6c0-3-2.4-5.4-5.4-5.4
		s-5.4,2.4-5.4,5.4c0,9.1,7.5,16.7,17.6,18.8v4.5c0,3,2.4,5.4,5.4,5.4s5.4-2.4,5.4-5.4v-4.4c10.2-2,17.9-9.7,17.9-18.9
		C185.8,68.1,179.5,56.2,162.5,56.2z"/>
</g>
</svg>
