<?xml version="1.0" encoding="utf-8"?>
<!-- Generator: Adobe Illustrator 24.1.1, SVG Export Plug-In . SVG Version: 6.00 Build 0)  -->
<svg version="1.1" id="Layer_1" xmlns="http://www.w3.org/2000/svg" xmlns:xlink="http://www.w3.org/1999/xlink" x="0px" y="0px"
	 viewBox="0 0 187.9 206.1" style="enable-background:new 0 0 187.9 206.1;" xml:space="preserve">
<style type="text/css">
	.st0{clip-path:url(#SVGID_2_);fill:#FFFFFF;}
	.st1{clip-path:url(#SVGID_2_);fill:none;stroke:#FFFFFF;stroke-width:3.177;stroke-miterlimit:10;}
</style>
<g>
	<defs>
		<rect id="SVGID_1_" width="187.9" height="206.1"/>
	</defs>
	<clipPath id="SVGID_2_">
		<use xlink:href="#SVGID_1_"  style="overflow:visible;"/>
	</clipPath>
	<path class="st0" d="M176.4,83.6c-0.4-0.6-0.9-1.2-1.4-1.7L97.1,3.3c-1.2-1.3-2.8-2.2-4.5-2.8c-4-1.3-8.6-0.2-11.5,2.8L3.3,81.9
		c-3.2,3.2-4.1,8-2.4,12.2c0.2,0.4,0.3,0.7,0.5,1.1c1,1.9,2.6,3.5,4.5,4.5c1.6,0.9,3.5,1.4,5.4,1.4h11.2v63.7c0,2.4,0.7,4.7,2.1,6.6
		c0.7,1,1.6,1.9,2.6,2.6c1.9,1.4,4.2,2.1,6.6,2.1h27.5c6.2,0,11.2-5,11.2-11.2l0-40.8c0-0.1,0-0.4,0-0.5c0-0.7,0.5-1.2,1.2-1.2h31.1
		c0.7,0,1.2,0.5,1.2,1.2c0,0.1,0,0.3,0,0.4v40.9c0,6.2,5,11.2,11.2,11.2h7.3v-10.8h-7.3c-0.2,0-0.4-0.2-0.4-0.4v-41.2
		c0-0.1,0-0.3,0-0.5c-0.2-6.5-5.5-11.7-12-11.7H73.6c-6.6,0-12,5.4-12,11.6c0,0.1,0,0.4,0,0.5v41.2c0,0.2-0.2,0.4-0.4,0.4H33.7
		l-0.4-0.4V95.7c0-3-2.4-5.4-5.4-5.4L11,90.2l-0.1-0.7l77.9-78.6c0,0,0,0,0.1,0c0.2,0,0.6,0,0.6,0l78.1,78.9l-0.6,0.4h-16.6
		c-3,0-5.4,2.4-5.4,5.4V109h10.8v-7.9H167c4.6,0,8.6-2.7,10.4-6.9C178.8,90.7,178.5,86.8,176.4,83.6"/>
	<path class="st0" d="M172.9,105.5h-38.5c-7.4,0-13.4,6-13.4,13.4v72.1c0,7.4,6,13.4,13.4,13.4h38.5c7.4,0,13.4-6,13.4-13.4V119
		C186.3,111.6,180.3,105.5,172.9,105.5 M182.8,191.1c0,5.5-4.5,10-10,10h-38.5c-5.5,0-10-4.5-10-10V119c0-5.5,4.5-10,10-10h38.5
		c5.5,0,10,4.5,10,10V191.1z"/>
	<path class="st1" d="M172.9,105.5h-38.5c-7.4,0-13.4,6-13.4,13.4v72.1c0,7.4,6,13.4,13.4,13.4h38.5c7.4,0,13.4-6,13.4-13.4V119
		C186.3,111.6,180.3,105.5,172.9,105.5z M182.8,191.1c0,5.5-4.5,10-10,10h-38.5c-5.5,0-10-4.5-10-10V119c0-5.5,4.5-10,10-10h38.5
		c5.5,0,10,4.5,10,10V191.1z"/>
	<path class="st0" d="M172.1,120.5h-37c-0.9,0-1.6,0.7-1.6,1.6v13.1c0,0.9,0.7,1.6,1.6,1.6h37c0.9,0,1.5-0.7,1.5-1.6v-13.1
		C173.6,121.2,172.9,120.5,172.1,120.5 M170.5,133.7h-33.9v-10h33.9V133.7z"/>
	<path class="st0" d="M143.5,144.4h-8.4c-0.9,0-1.6,0.7-1.6,1.6v8.4c0,0.9,0.7,1.6,1.6,1.6h8.4c0.9,0,1.5-0.7,1.5-1.6V146
		C145,145.1,144.3,144.4,143.5,144.4 M141.9,152.8h-5.3v-5.2h5.3V152.8z"/>
	<path class="st0" d="M157.8,144.4h-8.3c-0.9,0-1.6,0.7-1.6,1.6v8.4c0,0.9,0.7,1.6,1.6,1.6h8.3c0.9,0,1.6-0.7,1.6-1.6V146
		C159.3,145.1,158.6,144.4,157.8,144.4 M156.2,152.8H151v-5.2h5.3V152.8z"/>
	<path class="st0" d="M172.1,144.4h-8.4c-0.9,0-1.5,0.7-1.5,1.6v8.4c0,0.9,0.7,1.6,1.5,1.6h8.4c0.9,0,1.5-0.7,1.5-1.6V146
		C173.6,145.1,172.9,144.4,172.1,144.4 M170.5,152.8h-5.2v-5.2h5.2V152.8z"/>
	<path class="st0" d="M143.5,161.1h-8.4c-0.9,0-1.6,0.7-1.6,1.6v8.4c0,0.9,0.7,1.5,1.6,1.5h8.4c0.9,0,1.5-0.7,1.5-1.5v-8.4
		C145,161.8,144.3,161.1,143.5,161.1 M141.9,169.5h-5.3v-5.3h5.3V169.5z"/>
	<path class="st0" d="M157.8,161.1h-8.3c-0.9,0-1.6,0.7-1.6,1.6v8.4c0,0.9,0.7,1.5,1.6,1.5h8.3c0.9,0,1.6-0.7,1.6-1.5v-8.4
		C159.3,161.8,158.6,161.1,157.8,161.1 M156.2,169.5H151v-5.3h5.3V169.5z"/>
	<path class="st0" d="M172.1,161.1h-8.4c-0.9,0-1.5,0.7-1.5,1.6v8.4c0,0.9,0.7,1.5,1.5,1.5h8.4c0.9,0,1.5-0.7,1.5-1.5v-8.4
		C173.6,161.8,172.9,161.1,172.1,161.1 M170.5,169.5h-5.2v-5.3h5.2V169.5z"/>
	<path class="st0" d="M143.5,177.8h-8.4c-0.9,0-1.6,0.7-1.6,1.6v8.4c0,0.9,0.7,1.5,1.6,1.5h8.4c0.9,0,1.5-0.7,1.5-1.5v-8.4
		C145,178.5,144.3,177.8,143.5,177.8 M141.9,186.2h-5.3v-5.2h5.3V186.2z"/>
	<path class="st0" d="M157.8,177.8h-8.3c-0.9,0-1.6,0.7-1.6,1.6v8.4c0,0.9,0.7,1.5,1.6,1.5h8.3c0.9,0,1.6-0.7,1.6-1.5v-8.4
		C159.3,178.5,158.6,177.8,157.8,177.8 M156.2,186.2H151v-5.2h5.3V186.2z"/>
	<path class="st0" d="M172.1,177.8h-8.4c-0.9,0-1.5,0.7-1.5,1.6v8.4c0,0.9,0.7,1.5,1.5,1.5h8.4c0.9,0,1.5-0.7,1.5-1.5v-8.4
		C173.6,178.5,172.9,177.8,172.1,177.8 M170.5,186.2h-5.2v-5.2h5.2V186.2z"/>
</g>
</svg>
