<?xml version="1.0" encoding="utf-8"?>
<!-- Generator: Adobe Illustrator 24.1.1, SVG Export Plug-In . SVG Version: 6.00 Build 0)  -->
<svg version="1.1" id="Layer_1" xmlns="http://www.w3.org/2000/svg" xmlns:xlink="http://www.w3.org/1999/xlink" x="0px" y="0px"
	 viewBox="0 0 78.3 84.7" style="enable-background:new 0 0 78.3 84.7;" xml:space="preserve">
<style type="text/css">
	.st0{clip-path:url(#SVGID_2_);fill:#FFFFFF;}
</style>
<g>
	<defs>
		<rect id="SVGID_1_" width="78.3" height="84.7"/>
	</defs>
	<clipPath id="SVGID_2_">
		<use xlink:href="#SVGID_1_"  style="overflow:visible;"/>
	</clipPath>
	<path class="st0" d="M0,84.7V20.6c0,0,0,0,0.1,0c9.9,17,19.7,33.9,29.6,50.9C45.9,48,62.1,24.6,78.2,1.2c0,0,0.1,0,0.1,0v0.4
		c0,27.6,0,55.1,0,82.7c0,0.4-0.1,0.5-0.5,0.5c-25.8,0-51.6,0-77.4,0H0z"/>
	<path class="st0" d="M57,0H9.1C16.4,12.6,23.7,25.1,31,37.7C39.7,25.1,48.3,12.6,57,0"/>
</g>
</svg>
