<?xml version="1.0" encoding="utf-8"?>
<!-- Generator: Adobe Illustrator 24.1.1, SVG Export Plug-In . SVG Version: 6.00 Build 0)  -->
<svg version="1.1" id="Layer_1" xmlns="http://www.w3.org/2000/svg" xmlns:xlink="http://www.w3.org/1999/xlink" x="0px" y="0px"
	 viewBox="0 0 72 72" style="enable-background:new 0 0 72 72;" xml:space="preserve">
<style type="text/css">
	.st0{fill:none;}
</style>
<g>
	<path class="st0" d="M48.1,23.4c0,1.4,1.2,2.6,2.6,2.6c1.4,0,2.6-1.2,2.6-2.6c0-1.4-1.2-2.6-2.6-2.6C49.3,20.8,48.1,22,48.1,23.4z"
		/>
	<path class="st0" d="M35.6,11.9c0,1.4,1.2,2.6,2.6,2.6s2.6-1.2,2.6-2.6s-1.2-2.6-2.6-2.6S35.6,10.5,35.6,11.9z"/>
	<path d="M57.7,44.6c-0.5-1.1-1.6-1.7-2.7-1.7h-8c-0.1,0-0.1-0.1-0.1-0.1V32.4c0-0.8-0.6-1.5-1.5-1.5c-0.8,0-1.5,0.6-1.5,1.5v10.4
		c0,1.7,1.4,3,3,3h8c0,0,0.1,0,0.1,0.1c0,0.1,0,0.1,0,0.1L36.6,69c0,0,0,0.1-0.1,0.1c-0.1,0-0.1,0-0.1-0.1L17.9,46
		c0,0-0.1-0.1,0-0.1c0-0.1,0.1-0.1,0.1-0.1h8c1.7,0,3-1.4,3-3V3.2c0-0.1,0.1-0.1,0.1-0.1h8.1c0.8,0,1.5-0.6,1.5-1.5
		c0-0.8-0.6-1.5-1.4-1.5h-8.1c-1.7,0-3,1.4-3,3v39.6c0,0.1-0.1,0.1-0.1,0.1h-8c-1.2,0-2.2,0.7-2.7,1.7c-0.5,1.1-0.4,2.3,0.4,3.2
		l18.5,22.9c0.6,0.7,1.4,1.1,2.4,1.1l0,0c0.9,0,1.8-0.4,2.4-1.1l18.5-22.9C58.1,46.9,58.2,45.7,57.7,44.6z"/>
	<path d="M34.6,27.6c0.3,0.3,0.7,0.4,1,0.4c0.4,0,0.7-0.1,1-0.4l17.5-17.5c0.6-0.6,0.6-1.5,0-2s-1.5-0.6-2,0L34.6,25.6
		C34.1,26.2,34.1,27.1,34.6,27.6z"/>
	<path d="M32.7,11.9c0,3,2.5,5.5,5.5,5.5s5.5-2.5,5.5-5.5s-2.5-5.5-5.5-5.5C35.1,6.4,32.7,8.9,32.7,11.9z M40.8,11.9
		c0,1.4-1.2,2.6-2.6,2.6s-2.6-1.2-2.6-2.6s1.2-2.6,2.6-2.6C39.6,9.3,40.8,10.5,40.8,11.9z"/>
	<path d="M45.2,23.4c0,3,2.5,5.5,5.5,5.5s5.5-2.5,5.5-5.5s-2.5-5.5-5.5-5.5C47.7,17.9,45.2,20.4,45.2,23.4z M53.4,23.4
		c0,1.4-1.2,2.6-2.6,2.6s-2.6-1.2-2.6-2.6c0-1.4,1.2-2.6,2.6-2.6C52.2,20.8,53.4,22,53.4,23.4z"/>
</g>
</svg>
