<?xml version="1.0" encoding="utf-8"?>
<!-- Generator: Adobe Illustrator 24.1.1, SVG Export Plug-In . SVG Version: 6.00 Build 0)  -->
<svg version="1.1" id="Layer_1" xmlns="http://www.w3.org/2000/svg" xmlns:xlink="http://www.w3.org/1999/xlink" x="0px" y="0px"
	 viewBox="0 0 72 72" style="enable-background:new 0 0 72 72;" xml:space="preserve">
<style type="text/css">
	.st0{fill:none;}
</style>
<g>
	<path class="st0" d="M63.7,17.2C60.6,12.5,56.4,8.6,51.3,6v23.5h12l-27,29.4l-27-29.4h12.2V5.8C16.4,8.4,12,12.2,8.8,17
		c-3.5,5.2-5.5,11.5-5.5,18.2c0,9.1,3.7,17.3,9.6,23.2s14.2,9.6,23.2,9.6s17.3-3.7,23.2-9.6c5.9-5.9,9.6-14.2,9.6-23.2
		C69.1,28.5,67.1,22.4,63.7,17.2z"/>
	<path d="M29.9,31.7c0.1,0.1,0.3,0.3,0.7,0.5c0.3,0.2,0.7,0.5,1.1,0.7c0.4,0.2,0.9,0.4,1.4,0.6c0.6,0.2,1.2,0.4,1.8,0.4v2.5
		c0,0.1,0,0.2,0.1,0.3s0.2,0.1,0.3,0.1h1.9c0.1,0,0.2,0,0.3-0.1c0.1-0.1,0.1-0.2,0.1-0.3V34c1.5-0.2,2.7-0.9,3.7-1.9
		c0.9-1,1.4-2.3,1.4-3.7c0-0.5-0.1-0.9-0.2-1.3c-0.1-0.4-0.3-0.8-0.5-1.1c-0.2-0.3-0.4-0.6-0.8-0.9c-0.3-0.3-0.6-0.5-0.9-0.7
		c-0.3-0.2-0.6-0.4-1.1-0.6c-0.5-0.2-0.8-0.4-1.1-0.5c-0.3-0.1-0.6-0.3-1.1-0.5c-0.4-0.2-0.8-0.3-1-0.4c-0.2-0.1-0.5-0.2-0.9-0.4
		c-0.4-0.2-0.6-0.3-0.8-0.4c-0.2-0.1-0.4-0.3-0.6-0.5c-0.2-0.2-0.3-0.4-0.4-0.6c-0.1-0.2-0.1-0.4-0.1-0.7c0-0.6,0.3-1.2,0.8-1.6
		c0.6-0.4,1.3-0.6,2.2-0.6c0.4,0,0.8,0.1,1.2,0.2s0.8,0.2,1.1,0.4c0.3,0.1,0.6,0.3,0.8,0.5c0.3,0.2,0.4,0.3,0.6,0.4
		c0.1,0.1,0.2,0.1,0.2,0.2c0.1,0.1,0.2,0.1,0.4,0.1c0.1,0,0.3-0.1,0.3-0.2l1.2-2.1c0.1-0.2,0.1-0.4-0.1-0.5
		c-0.1-0.1-0.1-0.1-0.2-0.2c-0.1-0.1-0.3-0.2-0.6-0.4c-0.3-0.2-0.6-0.4-0.9-0.5c-0.3-0.2-0.7-0.3-1.2-0.5c-0.5-0.2-1-0.3-1.6-0.3
		v-2.5c0-0.1,0-0.2-0.1-0.3c-0.1-0.1-0.2-0.1-0.3-0.1h-1.9c-0.1,0-0.2,0-0.3,0.1c-0.1,0.1-0.1,0.2-0.1,0.3v2.6
		c-1.5,0.3-2.7,0.9-3.6,1.9c-0.9,1-1.4,2.1-1.4,3.4c0,0.4,0,0.8,0.1,1.1c0.1,0.3,0.2,0.7,0.3,0.9c0.1,0.3,0.3,0.6,0.5,0.8
		c0.2,0.3,0.4,0.5,0.6,0.7c0.2,0.2,0.5,0.4,0.8,0.6c0.3,0.2,0.6,0.4,0.8,0.5c0.2,0.1,0.5,0.3,0.9,0.4c0.4,0.2,0.7,0.3,0.9,0.4
		s0.5,0.2,0.9,0.4c0.5,0.2,0.9,0.4,1.1,0.5c0.2,0.1,0.6,0.3,0.9,0.5c0.4,0.2,0.7,0.4,0.8,0.5c0.2,0.2,0.3,0.4,0.5,0.6
		s0.2,0.5,0.2,0.8c0,0.7-0.3,1.3-0.9,1.7c-0.6,0.4-1.3,0.6-2,0.6c-0.3,0-0.7,0-1.1-0.1c-1.2-0.2-2.4-0.8-3.5-1.8l0,0
		c-0.1-0.1-0.2-0.1-0.3-0.1c-0.2,0-0.3,0.1-0.3,0.2l-1.5,1.9c-0.1,0.1-0.1,0.2-0.1,0.3c0,0.1,0,0.2,0.1,0.3
		C29.7,31.5,29.8,31.6,29.9,31.7z"/>
	<path d="M66.2,15.6C62.4,9.8,56.9,5.1,50.5,2.3l-2.1-0.9v31h8.2L36.3,54.6L16,32.4h8.5V1.3l-2,0.8c-6.6,2.7-12.1,7.4-16,13.2
		c-3.8,5.7-6,12.5-6,19.8v0c0,9.9,4,18.8,10.5,25.3C17.3,67,26.3,71,36.2,71l0,0c9.9,0,18.8-4,25.3-10.5S72,45.1,72,35.2
		C72,28,69.9,21.2,66.2,15.6z M59.4,58.4c-5.9,5.9-14.2,9.6-23.2,9.6S18.9,64.4,13,58.4C7,52.5,3.3,44.3,3.3,35.2
		c0-6.7,2-13,5.5-18.2c3.2-4.8,7.5-8.6,12.7-11.2v23.7H9.3l27,29.4l27-29.4h-12V6c5,2.6,9.3,6.5,12.4,11.2c3.4,5.2,5.4,11.4,5.4,18
		C69.1,44.3,65.4,52.5,59.4,58.4z"/>
</g>
</svg>
