<?xml version="1.0" encoding="utf-8"?>
<!-- Generator: Adobe Illustrator 24.1.1, SVG Export Plug-In . SVG Version: 6.00 Build 0)  -->
<svg version="1.1" id="Layer_1" xmlns="http://www.w3.org/2000/svg" xmlns:xlink="http://www.w3.org/1999/xlink" x="0px" y="0px"
	 viewBox="0 0 135.6 135.6" style="enable-background:new 0 0 135.6 135.6;" xml:space="preserve">
<style type="text/css">
	.st0{fill:none;}
	.st1{fill:#E63535;}
</style>
<g>
	<polygon class="st0" points="88.4,37.3 67.8,58 47.2,37.3 37.3,47.2 58,67.8 37.3,88.4 47.2,98.3 67.8,77.7 88.4,98.3 98.3,88.4 
		77.7,67.8 98.3,47.2 	"/>
	<path class="st1" d="M67.8,0L67.8,0C30.3,0,0,30.4,0,67.8s30.3,67.8,67.8,67.8h0c37.4,0,67.8-30.4,67.8-67.8v0
		C135.6,30.4,105.3,0,67.8,0z M98.3,88.4l-9.8,9.8L67.8,77.7L47.2,98.3l-9.8-9.8L58,67.8L37.3,47.2l9.8-9.8L67.8,58l20.6-20.6
		l9.8,9.8L77.7,67.8L98.3,88.4z"/>
</g>
</svg>
