<?xml version="1.0" encoding="utf-8"?>
<!-- Generator: Adobe Illustrator 24.1.1, SVG Export Plug-In . SVG Version: 6.00 Build 0)  -->
<svg version="1.1" id="_x2014_ÎÓÈ_x5F_1" xmlns="http://www.w3.org/2000/svg" xmlns:xlink="http://www.w3.org/1999/xlink"
	 x="0px" y="0px" viewBox="0 0 192.1 148.3" style="enable-background:new 0 0 192.1 148.3;" xml:space="preserve">
<style type="text/css">
	.st0{fill:none;}
</style>
<g>
	<path class="st0" d="M98.1,33.4c-13.2,0-23.9,10.7-23.9,23.9c0,13.2,10.7,23.9,23.9,23.9S122,70.4,122,57.2
		C122,44.1,111.3,33.4,98.1,33.4z M110.8,51.8L98,67.4c-0.5,0.6-1.3,1-2.1,1c-0.1,0-0.1,0-0.2,0c-0.1,0-0.2,0-0.3,0
		c-0.8-0.1-1.5-0.6-1.9-1.2l-6.8-10.8c-0.8-1.3-0.4-3,0.8-3.8c1.3-0.8,3-0.4,3.8,0.8l4.8,7.6l10.3-12.7c0.5-0.6,1.1-0.9,1.8-1
		c0.7-0.1,1.4,0.1,2,0.6C111.5,48.9,111.7,50.6,110.8,51.8z"/>
	<path class="st0" d="M184.7,7.4H7.4v99.2h177.3V7.4z M98.1,87.4C81.5,87.4,68,73.8,68,57.2c0-16.6,13.5-30.1,30.1-30.1
		s30.1,13.5,30.1,30.1C128.3,73.8,114.8,87.4,98.1,87.4z"/>
	<polygon class="st0" points="87.3,140.9 104.8,140.9 99.5,129.5 92.5,129.5 	"/>
	<polygon class="st0" points="7.4,122.1 90.1,122.1 90.2,122.1 101.7,122.1 101.8,122.1 184.7,122.1 184.7,114.1 7.4,114.1 	"/>
	<path d="M188.4,0H3.7C1.7,0,0,1.7,0,3.7v106.6v15.5c0,2.1,1.7,3.7,3.7,3.7h80.6l-5.1,11.3H61.5c-2,0-3.7,1.7-3.7,3.7
		c0,2.1,1.7,3.7,3.7,3.7h20c0,0,0,0,0.1,0c0,0,0.1,0,0.1,0h28.8c0,0,0.1,0,0.1,0c0,0,0,0,0.1,0h20c2,0,3.7-1.7,3.7-3.7
		c0-2.1-1.7-3.7-3.7-3.7h-17.7l-5.3-11.3h80.8c2,0,3.7-1.7,3.7-3.7v-15.5V3.7C192.1,1.7,190.5,0,188.4,0z M7.4,7.4h177.3v99.2H7.4
		V7.4z M104.8,140.9H87.3l5.1-11.3h7L104.8,140.9z M184.7,122.1h-82.9h-0.1H90.2h-0.1H7.4v-8.1h177.3V122.1z"/>
	<path d="M98.1,27.1C81.5,27.1,68,40.6,68,57.2c0,16.6,13.5,30.1,30.1,30.1s30.1-13.5,30.1-30.1C128.3,40.6,114.8,27.1,98.1,27.1z
		 M98.1,81.1c-13.2,0-23.9-10.7-23.9-23.9c0-13.2,10.7-23.9,23.9-23.9S122,44.1,122,57.2C122,70.4,111.3,81.1,98.1,81.1z"/>
	<path d="M108.4,47.4c-0.7,0.1-1.4,0.4-1.8,1L96.2,61l-4.8-7.6c-0.8-1.3-2.5-1.7-3.8-0.8c-1.3,0.8-1.7,2.5-0.8,3.8l6.8,10.8
		c0.4,0.7,1.1,1.1,1.9,1.2c0.1,0,0.2,0,0.3,0c0.1,0,0.1,0,0.2,0c0.8,0,1.6-0.4,2.1-1l12.7-15.6c0.9-1.2,0.8-2.9-0.4-3.8
		C109.8,47.5,109.1,47.3,108.4,47.4z"/>
</g>
</svg>
