<?xml version="1.0" encoding="utf-8"?>
<!-- Generator: Adobe Illustrator 24.1.1, SVG Export Plug-In . SVG Version: 6.00 Build 0)  -->
<svg version="1.1" id="Layer_1" xmlns="http://www.w3.org/2000/svg" xmlns:xlink="http://www.w3.org/1999/xlink" x="0px" y="0px"
	 viewBox="0 0 265.7 266.8" style="enable-background:new 0 0 265.7 266.8;" xml:space="preserve">
<style type="text/css">
	.st0{fill:none;}
</style>
<g>
	<path class="st0" d="M200.9,49.4l-24.4,0c-7.2,0-13-5.8-13-13l0-24.4H65.7c-0.6,0-1,0.4-1,1v67.5h136.2V49.4z"/>
	<path class="st0" d="M176.5,37.4h15.9l-2.8-2.8l-14.1-14.1l0,15.9C175.5,36.9,176,37.4,176.5,37.4z"/>
	<path class="st0" d="M235.6,92.5H30c-9.9,0-18,8.1-18,18v81.8c0,9.9,8.1,18,18,18h9.8v-58.5h185.4v58.5h10.5c9.9,0,18-8.1,18-18
		v-81.8C253.7,100.6,245.6,92.5,235.6,92.5z M221,131.9h-14.3c-3.7,0-6.8-3-6.8-6.8c0-3.7,3-6.8,6.8-6.8H221c3.7,0,6.8,3,6.8,6.8
		C227.8,128.9,224.7,131.9,221,131.9z"/>
	<path class="st0" d="M51.8,236.8c0,9.9,8.1,18,18,18h125.3c9.9,0,18-8.1,18-18v-73H51.8V236.8z M76.3,186.8h114.1c3.3,0,6,2.7,6,6
		c0,3.3-2.7,6-6,6H76.3c-3.3,0-6-2.7-6-6C70.3,189.5,73,186.8,76.3,186.8z M75.4,221.8h114.1c3.3,0,6,2.7,6,6c0,3.3-2.7,6-6,6H75.4
		c-3.3,0-6-2.7-6-6C69.4,224.5,72.1,221.8,75.4,221.8z"/>
	<path d="M76.3,198.8h114.1c3.3,0,6-2.7,6-6c0-3.3-2.7-6-6-6H76.3c-3.3,0-6,2.7-6,6C70.3,196.1,73,198.8,76.3,198.8z"/>
	<path d="M75.4,233.8h114.1c3.3,0,6-2.7,6-6c0-3.3-2.7-6-6-6H75.4c-3.3,0-6,2.7-6,6C69.4,231.1,72.1,233.8,75.4,233.8z"/>
	<path d="M221,118.4h-14.3c-3.7,0-6.8,3-6.8,6.8c0,3.7,3,6.8,6.8,6.8H221c3.7,0,6.8-3,6.8-6.8C227.8,121.4,224.7,118.4,221,118.4z"
		/>
	<path d="M235.6,80.5h-10.5h-12.2V43.8c0-0.1,0-0.3,0-0.4c0-0.1,0-0.2,0-0.4v-2.1l-1.5-1.5c-0.2-0.2-0.3-0.4-0.5-0.5l-18.6-18.6
		L173.8,1.8c0,0,0,0,0,0L172,0H65.7c-7.2,0-13,5.8-13,13v67.5H39.8H30c-16.6,0-30,13.5-30,30v81.8c0,16.6,13.5,30,30,30h9.8v14.5
		c0,16.6,13.5,30,30,30h125.3c16.6,0,30-13.5,30-30v-14.5h10.5c16.5,0,30-13.5,30-30v-81.8C265.7,93.9,252.2,80.5,235.6,80.5z
		 M175.5,20.5l14.1,14.1l2.8,2.8h-15.9c-0.6,0-1-0.5-1-1L175.5,20.5z M64.7,13c0-0.6,0.4-1,1-1h97.8l0,24.4c0,7.2,5.8,13,13,13
		l24.4,0v31.1H64.7V13z M213.1,236.8c0,9.9-8.1,18-18,18H69.8c-9.9,0-18-8.1-18-18v-73h161.3V236.8z M253.7,192.3
		c0,9.9-8.1,18-18,18h-10.5v-58.5H39.8v58.5H30c-9.9,0-18-8.1-18-18v-81.8c0-9.9,8.1-18,18-18h205.6c9.9,0,18,8.1,18,18V192.3z"/>
</g>
</svg>
