<svg xmlns="http://www.w3.org/2000/svg" width="52.5" height="52.35" viewBox="0 0 52.5 52.35" class="svg replaced-svg">
  <metadata><?xpacket begin="&#xFEFF;" id="W5M0MpCehiHzreSzNTczkc9d"?>
<x:xmpmeta xmlns:x="adobe:ns:meta/" x:xmptk="Adobe XMP Core 5.6-c145 79.163499, 2018/08/13-16:40:22        ">
   <rdf:RDF xmlns:rdf="http://www.w3.org/1999/02/22-rdf-syntax-ns#">
      <rdf:Description xmlns:xmp="http://ns.adobe.com/xap/1.0/" rdf:about="">
         <xmp:CreatorTool>Adobe Photoshop CC (Macintosh)</xmp:CreatorTool>
      </rdf:Description>
   </rdf:RDF>
</x:xmpmeta>
                      
<?xpacket end="w"?></metadata>
<defs>
    <style>
      .cls-1 {
        fill: #fff;
        fill-rule: evenodd;
      }
    </style>
  </defs>
  <path id="Forma_1" data-name="Forma 1" class="cls-1" d="M932.541,1382.19a5.405,5.405,0,1,0,5.409,5.4A5.409,5.409,0,0,0,932.541,1382.19Zm0,8.51a3.11,3.11,0,1,1,3.113-3.11A3.111,3.111,0,0,1,932.54,1390.7Zm14.633-6.74H953.4v2.11h-6.225v-2.11Zm9.338,0h6.225v2.11h-6.225v-2.11Zm-9.338,5.93H953.4v2.12h-6.225v-2.12Zm9.338,0h6.225v2.12h-6.225v-2.12Zm-9.338-17.94H953.4v1.97h-6.225v-1.97Zm9.338,0h6.225v1.97h-6.225v-1.97Zm-9.338,6.08H953.4v1.96h-6.225v-1.96Zm9.338,0h6.225v1.96h-6.225v-1.96Zm9.61-14.12v-2.83H943.436v2.85h-6.329v11.53a12.972,12.972,0,0,0-17.538,12.13c0,2.93,1.934,7.73,5.913,14.67,2.85,4.98,5.742,9.24,5.771,9.28l1.287,1.89,1.287-1.89c0.023-.03,1.9-2.8,4.122-6.48h34.112v-41.13h0ZM932.4,1409.6c-3.65-5.03-10.608-17.8-10.608-22.01,0-5.43,5.315-10.78,10.751-10.78s10.787,5.35,10.787,10.78C943.327,1391.8,936,1404.05,932.4,1409.6Zm37.48-6.72H956.082v-6.78h-2.255v6.93H939.274c3.859-6.78,6.237-12.55,6.237-15.44a12.308,12.308,0,0,0-6.506-10.43l0.286-10.91h6.686v-3.13H963.9v2.89l5.975,0.16v36.71Z" transform="translate(-919.563 -1361.09)"></path>
</svg>