<?xml version="1.0" encoding="utf-8"?>
<!-- Generator: Adobe Illustrator 24.1.1, SVG Export Plug-In . SVG Version: 6.00 Build 0)  -->
<svg version="1.1" id="Layer_1" xmlns="http://www.w3.org/2000/svg" xmlns:xlink="http://www.w3.org/1999/xlink" x="0px" y="0px"
	 viewBox="0 0 27 28" style="enable-background:new 0 0 27 28;" xml:space="preserve">
<style type="text/css">
	.st0{fill:none;}
</style>
<g>
	<path class="st0" d="M16,6c-3.3,0-6,2.7-6,6s2.7,6,6,6s6-2.7,6-6S19.3,6,16,6z M16,7c1.4,0,2.5,1.1,2.5,2.5S17.4,12,16,12
		c-1.4,0-2.5-1.1-2.5-2.5S14.6,7,16,7z M18.5,16c-0.3,0-0.5-0.2-0.5-0.5c0-0.8-0.9-1.5-2-1.5c-1.1,0-2,0.7-2,1.5
		c0,0.3-0.2,0.5-0.5,0.5S13,15.8,13,15.5c0-1.4,1.3-2.5,3-2.5s3,1.1,3,2.5C19,15.8,18.8,16,18.5,16z"/>
	<circle class="st0" cx="16" cy="9.5" r="1.5"/>
	<path class="st0" d="M7.4,8.2C8.3,7.5,8.8,6.6,9,5.5c0.1-1.1-0.1-2.1-0.8-3C7.5,1.7,6.6,1.2,5.5,1C5.3,1,5.2,1,5,1
		C4.1,1,3.3,1.3,2.6,1.8C1.7,2.5,1.2,3.4,1,4.5c-0.1,1.1,0.1,2.1,0.8,3C2.5,8.3,3.4,8.8,4.5,9C5.5,9.1,6.6,8.8,7.4,8.2z M4.8,7
		C4.8,7,4.8,7,4.8,7C4.7,7,4.5,6.9,4.4,6.8L3.1,5.1C2.9,4.9,3,4.6,3.2,4.4c0.2-0.2,0.5-0.1,0.7,0.1l0.9,1.1l1.5-2.2
		C6.4,3.2,6.7,3.1,7,3.3C7.2,3.4,7.3,3.8,7.1,4L5.2,6.8C5.1,6.9,5,7,4.8,7z"/>
	<path d="M26.5,0h-16C10.2,0,10,0.2,10,0.5S10.2,1,10.5,1H26v26H6V12c0-0.3-0.2-0.5-0.5-0.5S5,11.7,5,12v15.5C5,27.8,5.2,28,5.5,28
		h21c0.3,0,0.5-0.2,0.5-0.5v-27C27,0.2,26.8,0,26.5,0z"/>
	<path d="M16,12c1.4,0,2.5-1.1,2.5-2.5S17.4,7,16,7c-1.4,0-2.5,1.1-2.5,2.5S14.6,12,16,12z M16,8c0.8,0,1.5,0.7,1.5,1.5
		S16.8,11,16,11c-0.8,0-1.5-0.7-1.5-1.5S15.2,8,16,8z"/>
	<path d="M16,13c-1.7,0-3,1.1-3,2.5c0,0.3,0.2,0.5,0.5,0.5s0.5-0.2,0.5-0.5c0-0.8,0.9-1.5,2-1.5c1.1,0,2,0.7,2,1.5
		c0,0.3,0.2,0.5,0.5,0.5s0.5-0.2,0.5-0.5C19,14.1,17.7,13,16,13z"/>
	<path d="M16,5c-3.9,0-7,3.1-7,7c0,3.9,3.1,7,7,7c3.9,0,7-3.1,7-7C23,8.1,19.9,5,16,5z M16,18c-3.3,0-6-2.7-6-6s2.7-6,6-6s6,2.7,6,6
		S19.3,18,16,18z"/>
	<path d="M22.5,20h-10c-0.3,0-0.5,0.2-0.5,0.5s0.2,0.5,0.5,0.5h10c0.3,0,0.5-0.2,0.5-0.5S22.8,20,22.5,20z"/>
	<path d="M22.5,22h-10c-0.3,0-0.5,0.2-0.5,0.5s0.2,0.5,0.5,0.5h10c0.3,0,0.5-0.2,0.5-0.5S22.8,22,22.5,22z"/>
	<path d="M22.5,24h-10c-0.3,0-0.5,0.2-0.5,0.5s0.2,0.5,0.5,0.5h10c0.3,0,0.5-0.2,0.5-0.5S22.8,24,22.5,24z"/>
	<path d="M8,9C9.1,8.2,9.8,7,10,5.7C10.1,4.3,9.8,3,9,2C8.2,0.9,7,0.2,5.6,0C4.3-0.1,3,0.2,2,1C0.9,1.9,0.2,3,0,4.4
		C-0.1,5.7,0.2,7,1,8C1.8,9.1,3,9.8,4.4,10c0.2,0,0.4,0,0.7,0C6.1,10,7.2,9.6,8,9z M1.8,7.4C1.2,6.6,0.9,5.5,1,4.5
		c0.1-1.1,0.7-2,1.5-2.7C3.3,1.3,4.1,1,5,1c0.2,0,0.4,0,0.5,0c1.1,0.1,2,0.7,2.7,1.5c0.7,0.8,0.9,1.9,0.8,3c-0.1,1.1-0.7,2-1.5,2.7
		C6.6,8.8,5.5,9.1,4.5,9C3.4,8.8,2.5,8.3,1.8,7.4z"/>
	<circle cx="9.5" cy="20.5" r="0.5"/>
	<circle cx="9.5" cy="22.5" r="0.5"/>
	<circle cx="9.5" cy="24.5" r="0.5"/>
	<path d="M7,3.3C6.7,3.1,6.4,3.2,6.3,3.4L4.8,5.6L3.9,4.5C3.7,4.3,3.4,4.2,3.2,4.4C3,4.6,2.9,4.9,3.1,5.1l1.3,1.7
		C4.5,6.9,4.7,7,4.8,7c0,0,0,0,0,0C5,7,5.1,6.9,5.2,6.8L7.1,4C7.3,3.8,7.2,3.4,7,3.3z"/>
</g>
</svg>
