<svg xmlns:xmp="http://ns.adobe.com/xap/1.0/" xmlns:x="adobe:ns:meta/" xmlns:dc="http://purl.org/dc/elements/1.1/" xmlns:cc="http://creativecommons.org/ns#" xmlns:rdf="http://www.w3.org/1999/02/22-rdf-syntax-ns#" xmlns:svg="http://www.w3.org/2000/svg" xmlns="http://www.w3.org/2000/svg" id="svg9" version="1.1" viewBox="0 0 46.150002 53.08" height="53.080002" width="46.150002" class="svg replaced-svg">
  <defs id="defs6">
    <style id="style4">
      .cls-1 {
        fill: #6955cd;
        fill-rule: evenodd;
      }
    </style>
  </defs>
  <path style="fill:#fff;fill-opacity:1" id="path836" d="M 0,0 V 47.16 H 40 V 0 Z"></path>
  <path style="fill:#4a74fe;fill-opacity:1" id="path834" d="m 37.93,2.08 v 43 H 2.07 v -43 z"></path>
  <path style="fill:#fff;fill-opacity:1" id="path832" d="m 6.6,8.1 h 27.34 v 2.03 H 6.6 Z"></path>
  <path style="fill:#fff;fill-opacity:1" id="path830" d="m 6.6,15.89 h 27.34 v 2.2 H 6.6 Z"></path>
  <path style="fill:#fff;fill-opacity:1" id="path828" d="M 41.64,5.09 V 7.16 L 43.91,7.5 V 51 H 8.39 L 8.22,48.99 H 5.98 v 4.09 H 46.15 V 5.09 Z"></path>
  <path style="fill:#fff;fill-opacity:1" id="path826" d="M 15.06,35.87 C 13.48,34.58 7.82,29.94 7.82,29.94 l -1.52,1.86 9.28,7.62 c 0,0 7.3,-10.97 8.37,-12.58 1.56,0.91 8.03,4.7 8.03,4.7 l 1.21,-2.08 -9.99,-5.84 c 0,0 -6.93,10.42 -8.14,12.25 z"></path>
  <path style="fill:#fff;fill-opacity:1" id="path824" d="m 10.63,31.29 a 3.005,3.005 0 1 1 -3.01,-3.01 3,3 0 0 1 3.01,3.01 z"></path>
  <path style="fill:#fff;fill-opacity:1" id="path822" d="m 15.29,34.15 a 3.01,3.01 0 1 1 -3.01,3.01 3,3 0 0 1 3.01,-3.01 z"></path>
  <path style="fill:#fff;fill-opacity:1" id="path820" d="m 23.56,22.41 a 3.005,3.005 0 1 1 -3,3.01 3.011,3.011 0 0 1 3,-3.01 z"></path>
  <path style="fill:#fff;fill-opacity:1" id="Forma_1" d="m 32.27,27.07 a 3.01,3.01 0 1 1 -3,3.01 3,3 0 0 1 3,-3.01 z"></path>
</svg>