<svg xmlns="http://www.w3.org/2000/svg" width="53.875" height="55" viewBox="0 0 53.875 55" class="svg replaced-svg">
  <metadata><?xpacket begin="&#xFEFF;" id="W5M0MpCehiHzreSzNTczkc9d"?>
<x:xmpmeta xmlns:x="adobe:ns:meta/" x:xmptk="Adobe XMP Core 5.6-c145 79.163499, 2018/08/13-16:40:22        ">
   <rdf:RDF xmlns:rdf="http://www.w3.org/1999/02/22-rdf-syntax-ns#">
      <rdf:Description xmlns:xmp="http://ns.adobe.com/xap/1.0/" rdf:about="">
         <xmp:CreatorTool>Adobe Photoshop CC (Macintosh)</xmp:CreatorTool>
      </rdf:Description>
   </rdf:RDF>
</x:xmpmeta>                         
<?xpacket end="w"?></metadata>
<defs>
    <style>
      .cls-1 {
        fill: #fff;
        fill-rule: evenodd;
      }
    </style>
  </defs>
  <path class="cls-1" d="M975.139,1164.37a1.825,1.825,0,0,1-.011-2.14l0.957-1.36a4.592,4.592,0,0,0-1.577-6.7l-1.465-.79a1.828,1.828,0,0,1-.946-1.91l0.282-1.65a4.592,4.592,0,0,0-4.326-5.35l-1.679-.05a1.823,1.823,0,0,1-1.678-1.32l-0.462-1.6a4.61,4.61,0,0,0-4.416-3.31,4.725,4.725,0,0,0-1.814.37l-1.532.66a1.867,1.867,0,0,1-2.084-.46l-1.115-1.24a4.6,4.6,0,0,0-6.883.04l-1.082,1.27a1.86,1.86,0,0,1-2.084.5l-1.543-.63a4.578,4.578,0,0,0-6.174,3.03l-0.439,1.6a1.841,1.841,0,0,1-1.656,1.34l-1.656.1a4.573,4.573,0,0,0-4.247,5.4l0.3,1.63a1.83,1.83,0,0,1-.912,1.94l-1.454.81a4.59,4.59,0,0,0-1.475,6.72l0.98,1.34a1.825,1.825,0,0,1,.011,2.14l-0.957,1.36a4.59,4.59,0,0,0,1.577,6.7l1.464,0.79a1.833,1.833,0,0,1,.946,1.92l-0.281,1.64a4.591,4.591,0,0,0,4.326,5.35l1.667,0.06a1.834,1.834,0,0,1,1.678,1.32l0.462,1.6a4.611,4.611,0,0,0,4.416,3.31,4.543,4.543,0,0,0,1.814-.37l1.532-.65a1.834,1.834,0,0,1,2.084.46l1.115,1.24a4.6,4.6,0,0,0,6.884-.06l1.081-1.27a1.86,1.86,0,0,1,2.084-.5l1.544,0.63a4.6,4.6,0,0,0,1.746.35h0a4.588,4.588,0,0,0,4.427-3.38l0.439-1.59a1.815,1.815,0,0,1,1.656-1.34l1.656-.09a4.587,4.587,0,0,0,4.247-5.41l-0.3-1.63a1.816,1.816,0,0,1,.913-1.93l1.453-.81a4.591,4.591,0,0,0,1.476-6.72Zm-0.935,4.45a1.832,1.832,0,0,1-.9,1.2l-1.454.81a4.588,4.588,0,0,0-2.287,4.84l0.3,1.64a1.807,1.807,0,0,1-.361,1.46,1.828,1.828,0,0,1-1.329.7l-1.656.09a4.586,4.586,0,0,0-4.168,3.36l-0.44,1.6a1.83,1.83,0,0,1-1.768,1.35,1.879,1.879,0,0,1-.7-0.13l-1.543-.63a4.592,4.592,0,0,0-5.216,1.22l-1.093,1.25a1.823,1.823,0,0,1-2.748.03l-1.116-1.24a4.6,4.6,0,0,0-3.424-1.53,4.5,4.5,0,0,0-1.814.37l-1.532.65a1.826,1.826,0,0,1-2.479-1.17l-0.461-1.6a4.6,4.6,0,0,0-4.214-3.31l-1.667-.07a1.756,1.756,0,0,1-1.341-.67,1.8,1.8,0,0,1-.383-1.45l0.282-1.65a4.572,4.572,0,0,0-2.366-4.8l-1.464-.79a1.769,1.769,0,0,1-.913-1.2,1.8,1.8,0,0,1,.282-1.47l0.958-1.36a4.582,4.582,0,0,0-.045-5.36l-0.981-1.34a1.782,1.782,0,0,1-.3-1.48,1.831,1.831,0,0,1,.9-1.2l1.453-.81a4.588,4.588,0,0,0,2.287-4.84l-0.293-1.61a1.807,1.807,0,0,1,.36-1.47,1.863,1.863,0,0,1,1.329-.7l1.657-.1a4.588,4.588,0,0,0,4.168-3.36l0.439-1.61a1.842,1.842,0,0,1,1.769-1.35,1.874,1.874,0,0,1,.7.13l1.543,0.63a4.579,4.579,0,0,0,5.216-1.23l1.093-1.25a1.834,1.834,0,0,1,2.749-.02l1.115,1.24a4.6,4.6,0,0,0,3.425,1.53,4.5,4.5,0,0,0,1.813-.37l1.532-.65a1.826,1.826,0,0,1,2.479,1.17l0.462,1.6a4.6,4.6,0,0,0,4.213,3.31l1.667,0.06a1.835,1.835,0,0,1,1.724,2.13l-0.271,1.65a4.574,4.574,0,0,0,2.366,4.8l1.465,0.79a1.836,1.836,0,0,1,.642,2.67l-0.958,1.36a4.581,4.581,0,0,0,.045,5.36l0.98,1.34A1.985,1.985,0,0,1,974.2,1168.82Zm-24.164-22.3a16.97,16.97,0,1,0,16.977,16.97A16.99,16.99,0,0,0,950.04,1146.52Zm0,31.18a14.21,14.21,0,1,1,14.216-14.21A14.226,14.226,0,0,1,950.04,1177.7Zm1.306-15.61h-2.613a1.7,1.7,0,0,1,0-3.37h4.607a1.385,1.385,0,1,0,0-2.77h-1.926v-1.56a1.386,1.386,0,0,0-2.771,0v1.56a4.452,4.452,0,0,0,.079,8.89h2.613a1.7,1.7,0,0,1,0,3.38h-4.7a1.385,1.385,0,1,0,0,2.77h2v1.59a1.386,1.386,0,0,0,2.771,0v-1.59A4.457,4.457,0,0,0,951.346,1162.09Z" transform="translate(-923.094 -1136)"></path>
</svg>