<?xml version="1.0" encoding="utf-8"?>
<!-- Generator: Adobe Illustrator 24.1.1, SVG Export Plug-In . SVG Version: 6.00 Build 0)  -->
<svg version="1.1" id="Layer_1" xmlns="http://www.w3.org/2000/svg" xmlns:xlink="http://www.w3.org/1999/xlink" x="0px" y="0px"
	 viewBox="0 0 195.3 206.6" style="enable-background:new 0 0 195.3 206.6;" xml:space="preserve">
<style type="text/css">
	.st0{clip-path:url(#SVGID_2_);fill:#FFFFFF;}
	.st1{clip-path:url(#SVGID_2_);fill:none;stroke:#FFFFFF;stroke-width:3.177;stroke-miterlimit:10;}
	.st2{clip-path:url(#SVGID_2_);fill:none;stroke:#FFFFFF;stroke-width:2.484;stroke-miterlimit:10;}
</style>
<g>
	<defs>
		<rect id="SVGID_1_" width="195.3" height="206.6"/>
	</defs>
	<clipPath id="SVGID_2_">
		<use xlink:href="#SVGID_1_"  style="overflow:visible;"/>
	</clipPath>
	<path class="st0" d="M180.3,106h-38.5c-7.4,0-13.4,6-13.4,13.4v72.1c0,7.4,6,13.4,13.4,13.4h38.5c7.4,0,13.4-6,13.4-13.4v-72.1
		C193.7,112.1,187.7,106,180.3,106 M190.3,191.6c0,5.5-4.5,10-10,10h-38.5c-5.5,0-10-4.5-10-10v-72.1c0-5.5,4.5-10,10-10h38.5
		c5.5,0,10,4.5,10,10V191.6z"/>
	<path class="st1" d="M180.3,106h-38.5c-7.4,0-13.4,6-13.4,13.4v72.1c0,7.4,6,13.4,13.4,13.4h38.5c7.4,0,13.4-6,13.4-13.4v-72.1
		C193.7,112.1,187.7,106,180.3,106z M190.3,191.6c0,5.5-4.5,10-10,10h-38.5c-5.5,0-10-4.5-10-10v-72.1c0-5.5,4.5-10,10-10h38.5
		c5.5,0,10,4.5,10,10V191.6z"/>
	<path class="st0" d="M179.5,121h-37c-0.9,0-1.6,0.7-1.6,1.6v13.1c0,0.9,0.7,1.6,1.6,1.6h37c0.9,0,1.5-0.7,1.5-1.6v-13.1
		C181.1,121.7,180.4,121,179.5,121 M178,134.2h-33.9v-10H178V134.2z"/>
	<path class="st0" d="M150.9,144.9h-8.4c-0.2,0-0.4,0-0.6,0.1c-0.4,0.1-0.7,0.4-0.8,0.8c-0.1,0.2-0.2,0.4-0.2,0.7v8.4
		c0,0.9,0.7,1.6,1.6,1.6h8.4c0.8,0,1.5-0.7,1.5-1.6v-8.4C152.5,145.6,151.8,144.9,150.9,144.9 M149.4,153.2h-5.3V148h5.3V153.2z"/>
	<path class="st0" d="M165.2,144.9h-8.3c-0.9,0-1.6,0.7-1.6,1.6v8.4c0,0.9,0.7,1.6,1.6,1.6h8.3c0.9,0,1.6-0.7,1.6-1.6v-8.4
		C166.8,145.6,166.1,144.9,165.2,144.9 M163.7,153.2h-5.3V148h5.3V153.2z"/>
	<path class="st0" d="M179.5,144.9h-8.4c-0.9,0-1.6,0.7-1.6,1.6v8.4c0,0.9,0.7,1.6,1.6,1.6h8.4c0.9,0,1.5-0.7,1.5-1.6v-8.4
		C181.1,145.6,180.4,144.9,179.5,144.9 M178,153.2h-5.2V148h5.2V153.2z"/>
	<path class="st0" d="M150.9,161.6h-8.4c-0.9,0-1.6,0.7-1.6,1.6v8.3c0,0.9,0.7,1.6,1.6,1.6h8.4c0.8,0,1.5-0.7,1.5-1.6v-8.3
		C152.5,162.3,151.8,161.6,150.9,161.6 M149.4,169.9h-5.3v-5.3h5.3V169.9z"/>
	<path class="st0" d="M165.2,161.6h-8.3c-0.9,0-1.6,0.7-1.6,1.6v8.3c0,0.9,0.7,1.6,1.6,1.6h8.3c0.9,0,1.6-0.7,1.6-1.6v-8.3
		C166.8,162.3,166.1,161.6,165.2,161.6 M163.7,169.9h-5.3v-5.3h5.3V169.9z"/>
	<path class="st0" d="M179.5,161.6h-8.4c-0.9,0-1.6,0.7-1.6,1.6v8.3c0,0.9,0.7,1.6,1.6,1.6h8.4c0.9,0,1.5-0.7,1.5-1.6v-8.3
		C181.1,162.3,180.4,161.6,179.5,161.6 M178,169.9h-5.2v-5.3h5.2V169.9z"/>
	<path class="st0" d="M150.9,178.3h-8.4c-0.9,0-1.6,0.7-1.6,1.6v8.3c0,0.9,0.7,1.6,1.6,1.6h8.4c0.8,0,1.5-0.7,1.5-1.6v-8.3
		C152.5,179,151.8,178.3,150.9,178.3 M149.4,186.7h-5.3v-5.2h5.3V186.7z"/>
	<path class="st0" d="M165.2,178.3h-8.3c-0.9,0-1.6,0.7-1.6,1.6v8.3c0,0.9,0.7,1.6,1.6,1.6h8.3c0.9,0,1.6-0.7,1.6-1.6v-8.3
		C166.8,179,166.1,178.3,165.2,178.3 M163.7,186.7h-5.3v-5.2h5.3V186.7z"/>
	<path class="st0" d="M179.5,178.3h-8.4c-0.9,0-1.6,0.7-1.6,1.6v8.3c0,0.9,0.7,1.6,1.6,1.6h8.4c0.9,0,1.5-0.7,1.5-1.6v-8.3
		C181.1,179,180.4,178.3,179.5,178.3 M178,186.7h-5.2v-5.2h5.2V186.7z"/>
	<path class="st0" d="M88.8,130.1c-15.8,0-28.7-10.8-28.7-24.1c0-3.7,3-6.7,6.7-6.7c3.7,0,6.7,3,6.7,6.7c0,5.8,7,10.7,15.3,10.7
		c8.3,0,15.3-4.9,15.3-10.7c0-2.8-2.8-10.6-15.5-10.6c-20,0-29-14.2-29-24.2c0-13.3,12.9-24.1,28.7-24.1c15.9,0,28.8,10.8,28.8,24.1
		c0,3.7-3,6.7-6.7,6.7c-3.7,0-6.7-3-6.7-6.7c0-5.8-7-10.7-15.3-10.7c-8.3,0-15.3,4.9-15.3,10.7c0,2.3,2.6,10.8,15.5,10.8
		c21,0,28.9,14.7,28.9,24C117.6,119.3,104.7,130.1,88.8,130.1"/>
	<path class="st0" d="M88.6,57c-3.7,0-6.7-3-6.7-6.7v-8c0-3.7,3-6.7,6.7-6.7c3.7,0,6.7,3,6.7,6.7v8C95.3,54,92.3,57,88.6,57"/>
	<path class="st0" d="M88.6,141.7c-3.7,0-6.7-3-6.7-6.7v-8.1c0-3.7,3-6.7,6.7-6.7c3.7,0,6.7,3,6.7,6.7v8.1
		C95.3,138.7,92.3,141.7,88.6,141.7"/>
	<path class="st0" d="M169.2,54.6c-4.4-10.4-10.7-19.8-18.7-27.8c-8-8-17.4-14.3-27.8-18.7c-10.8-4.6-22.2-6.9-34-6.9
		c-11.8,0-23.2,2.3-34,6.9c-10.4,4.4-19.7,10.7-27.8,18.7c-8,8-14.3,17.4-18.7,27.8c-4.6,10.8-6.9,22.2-6.9,34
		c0,11.8,2.3,23.3,6.9,34c4.4,10.4,10.7,19.8,18.7,27.8c8,8,17.4,14.3,27.8,18.7c10.8,4.6,22.2,6.9,34,6.9c11.8,0,23.2-2.3,34-6.9
		c1.9-0.8,3.8-1.7,5.7-2.7c1.2-0.6,2.3-1.2,3.4-1.8v-11.5c-1.1,0.8-2.3,1.5-3.4,2.2c-11.6,7-25.2,11-39.7,11
		c-42.8,0-77.6-34.8-77.6-77.6C11,45.8,45.8,11,88.6,11c42.8,0,77.7,34.8,77.7,77.6c0,6-0.7,11.8-2,17.4c-0.3,1.2-0.6,2.3-0.9,3.5
		h10.1c0.3-1.1,0.5-2.3,0.8-3.5c1.1-5.7,1.7-11.5,1.7-17.4C176,76.8,173.7,65.4,169.2,54.6"/>
	<path class="st2" d="M169.2,54.6c-4.4-10.4-10.7-19.8-18.7-27.8c-8-8-17.4-14.3-27.8-18.7c-10.8-4.6-22.2-6.9-34-6.9
		c-11.8,0-23.2,2.3-34,6.9c-10.4,4.4-19.7,10.7-27.8,18.7c-8,8-14.3,17.4-18.7,27.8c-4.6,10.8-6.9,22.2-6.9,34
		c0,11.8,2.3,23.3,6.9,34c4.4,10.4,10.7,19.8,18.7,27.8c8,8,17.4,14.3,27.8,18.7c10.8,4.6,22.2,6.9,34,6.9c11.8,0,23.2-2.3,34-6.9
		c1.9-0.8,3.8-1.7,5.7-2.7c1.2-0.6,2.3-1.2,3.4-1.8v-11.5c-1.1,0.8-2.3,1.5-3.4,2.2c-11.6,7-25.2,11-39.7,11
		c-42.8,0-77.6-34.8-77.6-77.6C11,45.8,45.8,11,88.6,11c42.8,0,77.7,34.8,77.7,77.6c0,6-0.7,11.8-2,17.4c-0.3,1.2-0.6,2.3-0.9,3.5
		h10.1c0.3-1.1,0.5-2.3,0.8-3.5c1.1-5.7,1.7-11.5,1.7-17.4C176,76.8,173.7,65.4,169.2,54.6z"/>
</g>
</svg>
