<?xml version="1.0" encoding="utf-8"?>
<!-- Generator: Adobe Illustrator 24.1.1, SVG Export Plug-In . SVG Version: 6.00 Build 0)  -->
<svg version="1.1" id="Layer_1" xmlns="http://www.w3.org/2000/svg" xmlns:xlink="http://www.w3.org/1999/xlink" x="0px" y="0px"
	 viewBox="0 0 250.3 250.3" style="enable-background:new 0 0 250.3 250.3;" xml:space="preserve">
<style type="text/css">
	.st0{fill:none;}
</style>
<g>
	<path class="st0" d="M44.6,44.6c-29.2,29.2-29.2,76.7,0,105.9c29.2,29.2,76.7,29.2,105.9,0c29.2-29.2,29.2-76.7,0-105.9
		C121.3,15.4,73.8,15.4,44.6,44.6z"/>
	<path d="M245.3,221.3l-67.8-67.8c26.6-38,23-91-11-124.9c-38-38-100-38-138,0c-19,19-28.5,44-28.5,69v0c0,25,9.5,50,28.5,69
		c33.9,33.9,86.9,37.6,124.9,11l67.8,67.8c6.6,6.6,17.4,6.6,24.1,0C252,238.7,252,227.9,245.3,221.3z M150.5,150.5
		c-29.2,29.2-76.7,29.2-105.9,0c-29.2-29.2-29.2-76.7,0-105.9c29.2-29.2,76.7-29.2,105.9,0C179.7,73.8,179.7,121.3,150.5,150.5z"/>
</g>
</svg>
