<?xml version="1.0" encoding="utf-8"?>
<!-- Generator: Adobe Illustrator 24.1.1, SVG Export Plug-In . SVG Version: 6.00 Build 0)  -->
<svg version="1.1" id="Layer_1" xmlns="http://www.w3.org/2000/svg" xmlns:xlink="http://www.w3.org/1999/xlink" x="0px" y="0px"
	 viewBox="0 0 2370.6 3061.9" style="enable-background:new 0 0 2370.6 3061.9;" xml:space="preserve">
<style type="text/css">
	.st0{clip-path:url(#SVGID_2_);}
	.st1{clip-path:url(#SVGID_2_);fill:#4A74FE;}
</style>
<g>
	<defs>
		<rect id="SVGID_1_" y="0" width="2370.6" height="3061.9"/>
	</defs>
	<clipPath id="SVGID_2_">
		<use xlink:href="#SVGID_1_"  style="overflow:visible;"/>
	</clipPath>
	<path class="st0" d="M2076.6,1496.1c66.4,575.3-294.3,970.2-904.9,1259.6c-370.2-177.3-697.6-395.5-847.2-783.6
		c-33.4-86.8-50.2-179.1-50.2-272V782.1c362.8-47.7,664.5-165.5,897.3-362.3c125.8,109.3,274,192.2,439.6,254.7l180.4-238
		c-274.4-73.1-476.1-223.9-620-436.5C951,317.6,592.7,517.5,0,516.9v1217.3c0,77.7,11.7,155,35.2,229
		c170.7,538.4,589.1,872,1136.5,1098.7c882.3-391.4,1306.6-870.1,1175.5-1900L2076.6,1496.1z"/>
	<path class="st1" d="M2332.2,703l-189-159.5c-46-38.9-115.2-33.1-154,12.9l-834.4,988.8l-420.7-385.7c-37.8-34.6-96.4-33.3-132.5,3
		l-194.8,196c-37.8,38.1-36.4,99.6,3.2,135.9l732.7,671.6c26.2,24,67.3,21.5,90.3-5.5L2344.9,855
		C2383.6,809.5,2377.9,741.5,2332.2,703"/>
</g>
</svg>
