<?xml version="1.0" encoding="utf-8"?>
<!-- Generator: Adobe Illustrator 24.1.1, SVG Export Plug-In . SVG Version: 6.00 Build 0)  -->
<svg version="1.1" id="Layer_1" xmlns="http://www.w3.org/2000/svg" xmlns:xlink="http://www.w3.org/1999/xlink" x="0px" y="0px"
	 viewBox="0 0 458.6 486.5" style="enable-background:new 0 0 458.6 486.5;" xml:space="preserve">
<style type="text/css">
	.st0{fill:none;}
</style>
<g>
	<path class="st0" d="M129.3,200.9c-5.4-5.4-11.8-9.8-19-12.8c-7.1-3-15-4.7-23.2-4.7c-8.2,0-16.1,1.7-23.2,4.7
		c-7.1,3-13.6,7.4-19,12.8c-5.4,5.4-9.8,11.8-12.8,19c-3,7.1-4.7,15-4.7,23.2s1.7,16.1,4.7,23.2c3,7.1,7.4,13.6,12.8,19
		c5.4,5.4,11.8,9.8,19,12.8c7.1,3,15,4.7,23.2,4.7c8.2,0,16-1.7,23.2-4.7c7.1-3,13.6-7.4,19-12.8c5.4-5.4,9.8-11.8,12.8-19
		c3-7.1,4.7-15,4.7-23.2s-1.7-16.1-4.7-23.2C139,212.8,134.7,206.3,129.3,200.9z"/>
	<path class="st0" d="M329.3,129.3c5.4,5.4,11.8,9.8,19,12.8c7.1,3,15,4.7,23.2,4.7c8.2,0,16.1-1.7,23.2-4.7c7.1-3,13.6-7.4,19-12.8
		c5.4-5.4,9.8-11.8,12.8-19c3-7.1,4.7-15,4.7-23.2c0-8.2-1.7-16.1-4.7-23.2c-3-7.1-7.4-13.6-12.8-19c-5.4-5.4-11.8-9.8-19-12.8
		c-7.1-3-15-4.7-23.2-4.7c-8.2,0-16,1.7-23.2,4.7s-13.6,7.4-19,12.8c-5.4,5.4-9.8,11.8-12.8,19c-3,7.1-4.7,15-4.7,23.2
		c0,8.2,1.7,16.1,4.7,23.2C319.5,117.4,323.9,123.9,329.3,129.3z"/>
	<path class="st0" d="M413.7,357.2c-5.4-5.4-11.8-9.8-19-12.8c-7.1-3-15-4.7-23.2-4.7c-8.2,0-16.1,1.7-23.2,4.7
		c-7.1,3-13.6,7.4-19,12.8c-5.4,5.4-9.8,11.8-12.8,19c-3,7.1-4.7,15-4.7,23.2c0,8.2,1.7,16.1,4.7,23.2c3,7.1,7.4,13.6,12.8,19
		c5.4,5.4,11.8,9.8,19,12.8c7.1,3,15,4.7,23.2,4.7c8.2,0,16.1-1.7,23.2-4.7c7.1-3,13.6-7.4,19-12.8c5.4-5.4,9.8-11.8,12.8-19
		c3-7.1,4.7-15,4.7-23.2c0-8.2-1.7-16.1-4.7-23.2C423.5,369,419.1,362.6,413.7,357.2z"/>
	<path d="M451.7,365.7c-4.4-10.4-10.8-19.8-18.7-27.6c-7.9-7.9-17.3-14.2-27.7-18.7c-10.4-4.4-21.9-6.8-33.8-6.8
		c-7,0-13.8,0.8-20.3,2.4c-6.5,1.6-12.8,3.9-18.6,6.8c-5.9,3-11.4,6.6-16.4,10.7c-5,4.1-9.6,8.8-13.6,14l-33.4-18.7l-33.4-18.7
		l-33.4-18.7L169,271.8c0.8-2.2,1.5-4.5,2.1-6.9c0.6-2.3,1.1-4.7,1.5-7.1c0.4-2.4,0.7-4.8,0.9-7.3c0.2-2.5,0.3-4.9,0.3-7.4
		c0-2.5-0.1-5-0.3-7.5c-0.2-2.5-0.5-4.9-0.9-7.3c-0.4-2.4-0.9-4.8-1.5-7.1c-0.6-2.3-1.3-4.6-2.1-6.9l33.4-18.6l33.4-18.6l33.4-18.6
		l33.4-18.6c4,5.2,8.5,9.9,13.5,14.1c5,4.2,10.5,7.8,16.4,10.8s12.1,5.3,18.7,6.9c6.5,1.6,13.4,2.4,20.4,2.4c12,0,23.4-2.4,33.8-6.8
		c10.4-4.4,19.8-10.8,27.6-18.7c7.9-7.9,14.3-17.2,18.7-27.6c4.4-10.4,6.9-21.8,6.9-33.8c0-12-2.4-23.4-6.8-33.8
		c-4.4-10.4-10.8-19.8-18.6-27.6s-17.2-14.2-27.6-18.7C394.8,2.4,383.4,0,371.4,0h-0.1c-12,0-23.4,2.4-33.8,6.8
		c-10.4,4.4-19.8,10.8-27.6,18.7c-7.9,7.9-14.2,17.2-18.7,27.6c-4.4,10.4-6.8,21.8-6.8,33.8c0,2.5,0.1,5,0.3,7.5
		c0.2,2.5,0.5,4.9,0.9,7.3c0.4,2.4,0.9,4.8,1.5,7.1c0.6,2.3,1.3,4.6,2.1,6.9L256,134.4L222.7,153l-33.4,18.6L156,190.3
		c-4-5.2-8.5-9.9-13.5-14.1c-5-4.2-10.5-7.8-16.4-10.8c-5.9-3-12.1-5.3-18.7-6.9c-6.5-1.6-13.4-2.4-20.4-2.4
		c-12,0-23.4,2.4-33.8,6.8c-10.4,4.4-19.8,10.8-27.7,18.6c-7.9,7.9-14.3,17.2-18.7,27.6C2.4,219.7,0,231.1,0,243.1
		c0,12,2.4,23.4,6.9,33.8c4.4,10.4,10.8,19.8,18.7,27.6c7.9,7.9,17.3,14.2,27.7,18.7c10.4,4.4,21.9,6.8,33.8,6.8
		c7,0,13.8-0.8,20.4-2.4c6.5-1.6,12.8-3.9,18.7-6.9c5.9-3,11.4-6.6,16.4-10.8c5-4.2,9.6-8.9,13.6-14.1l33.4,18.7l33.4,18.7
		l33.4,18.7l33.4,18.7c-0.8,2.3-1.5,4.6-2.2,6.9c-0.6,2.4-1.2,4.7-1.6,7.2c-0.4,2.4-0.8,4.9-1,7.4c-0.2,2.5-0.3,5-0.3,7.5
		c0,12,2.4,23.4,6.8,33.8c4.4,10.4,10.8,19.8,18.6,27.7c7.9,7.9,17.2,14.3,27.6,18.7c10.4,4.4,21.8,6.9,33.8,6.9
		c12,0,23.4-2.4,33.8-6.8c10.4-4.4,19.8-10.8,27.6-18.7c7.9-7.9,14.2-17.2,18.6-27.6c4.4-10.4,6.8-21.8,6.8-33.8
		C458.6,387.5,456.1,376.1,451.7,365.7z M316.5,63.8c3-7.1,7.4-13.6,12.8-19c5.4-5.4,11.8-9.8,19-12.8s15-4.7,23.2-4.7
		c8.2,0,16.1,1.7,23.2,4.7c7.1,3,13.6,7.4,19,12.8c5.4,5.4,9.8,11.8,12.8,19c3,7.1,4.7,15,4.7,23.2c0,8.2-1.7,16.1-4.7,23.2
		c-3,7.1-7.4,13.6-12.8,19c-5.4,5.4-11.8,9.8-19,12.8c-7.1,3-15,4.7-23.2,4.7c-8.2,0-16.1-1.7-23.2-4.7c-7.1-3-13.6-7.4-19-12.8
		c-5.4-5.4-9.8-11.8-12.8-19c-3-7.1-4.7-15-4.7-23.2C311.8,78.8,313.5,71,316.5,63.8z M142,266.3c-3,7.1-7.4,13.6-12.8,19
		c-5.4,5.4-11.8,9.8-19,12.8c-7.1,3-15,4.7-23.2,4.7c-8.2,0-16.1-1.7-23.2-4.7c-7.1-3-13.6-7.4-19-12.8c-5.4-5.4-9.8-11.8-12.8-19
		c-3-7.1-4.7-15-4.7-23.2s1.7-16.1,4.7-23.2c3-7.1,7.4-13.6,12.8-19c5.4-5.4,11.8-9.8,19-12.8c7.1-3,15-4.7,23.2-4.7
		c8.2,0,16.1,1.7,23.2,4.7c7.1,3,13.6,7.4,19,12.8c5.4,5.4,9.8,11.8,12.8,19c3,7.1,4.7,15,4.7,23.2S145.1,259.2,142,266.3z
		 M426.5,422.6c-3,7.1-7.4,13.6-12.8,19c-5.4,5.4-11.8,9.8-19,12.8c-7.1,3-15,4.7-23.2,4.7c-8.2,0-16.1-1.7-23.2-4.7
		c-7.1-3-13.6-7.4-19-12.8c-5.4-5.4-9.8-11.8-12.8-19c-3-7.1-4.7-15-4.7-23.2c0-8.2,1.7-16.1,4.7-23.2c3-7.1,7.4-13.6,12.8-19
		c5.4-5.4,11.8-9.8,19-12.8c7.1-3,15-4.7,23.2-4.7c8.2,0,16.1,1.7,23.2,4.7c7.1,3,13.6,7.4,19,12.8c5.4,5.4,9.8,11.8,12.8,19
		c3,7.1,4.7,15,4.7,23.2C431.2,407.6,429.5,415.5,426.5,422.6z"/>
</g>
</svg>
