<?xml version="1.0" encoding="utf-8"?>
<!-- Generator: Adobe Illustrator 24.1.1, SVG Export Plug-In . SVG Version: 6.00 Build 0)  -->
<svg version="1.1" id="Layer_1" xmlns="http://www.w3.org/2000/svg" xmlns:xlink="http://www.w3.org/1999/xlink" x="0px" y="0px"
	 viewBox="0 0 72 72" style="enable-background:new 0 0 72 72;" xml:space="preserve">
<style type="text/css">
	.st0{fill:none;}
</style>
<g>
	<path class="st0" d="M63.8,40c-0.5-0.3-0.7-0.8-0.7-1.5c0.2-1,0.2-1.8,0.2-2.6s0-1.6-0.2-2.6c0-0.5,0.2-1.1,0.7-1.5l4.4-2.9
		c0.3-0.2,0.3-0.5,0.3-0.8c-0.3-1.5-1-3.1-1.5-4.6c-0.2-0.3-0.3-0.5-0.7-0.5l-5.5,0.2c-0.7,0-1-0.3-1.3-0.8c-0.8-1.5-2-2.9-3.1-4.2
		c-0.3-0.5-0.5-1-0.3-1.6l1.8-4.9c0.2-0.3,0-0.7-0.2-0.8c-1.3-1-2.6-2-4.1-2.8c-0.2,0-0.3-0.2-0.3-0.2c-0.2,0-0.3,0-0.5,0.2
		l-4.2,3.3c-0.5,0.3-0.8,0.5-1.1,0.5c-0.2,0-0.5,0-0.7-0.2c-1.6-0.7-3.4-1.3-5.1-1.6c-0.5-0.2-1-0.5-1.1-1l-1.5-5.1
		c-0.2-0.3-0.3-0.5-0.7-0.5c-0.5,0-0.8,0-1.3,0c-0.5,0-0.8,0-1.1,0l0,0c-0.8,0-1.6,0-2.4,0.2c-0.3,0-0.7,0.2-0.7,0.5l-1.5,5.1
		c-0.3,0.3-0.8,0.8-1.3,0.8c-1.8,0.3-3.4,1-5.1,1.6c-0.2,0.2-0.3,0.2-0.7,0.2c-0.3,0-0.7-0.2-1-0.3l-4.2-3.3C19.1,8,19,8,18.8,8
		c-0.2,0-0.3,0-0.3,0.2C17,9,15.7,9.9,14.4,11.1c-0.2,0.2-0.3,0.5-0.2,0.8l1.8,4.9c0.2,0.5,0.2,1.1-0.3,1.6
		c-1.1,1.3-2.3,2.8-3.1,4.2c-0.3,0.5-0.8,0.8-1.3,0.8l-5.5-0.2c-0.3,0-0.7,0.2-0.7,0.5c-0.7,1.5-1.1,2.9-1.5,4.6
		c0,0.3,0,0.7,0.3,0.8l4.4,2.9C8.8,32.5,9,32.9,9,33.6c-0.2,0.8-0.2,1.6-0.2,2.6c0,0.8,0,1.8,0.2,2.6c0,0.5-0.2,1.1-0.7,1.5L4,43.2
		c-0.3,0.2-0.3,0.5-0.3,0.8c0.3,1.5,1,3.1,1.5,4.6c0.2,0.3,0.3,0.5,0.7,0.5l5.5-0.2c0.5,0,1,0.3,1.3,0.8c1,1.5,2,2.9,3.1,4.2
		c0.3,0.5,0.5,1,0.3,1.6l-1.8,4.9c-0.2,0.3,0,0.7,0.2,0.8c1.3,1,2.6,2,4.1,2.8c0.2,0,0.3,0.2,0.3,0.2c0.2,0,0.3,0,0.5-0.2l4.2-3.3
		c0.3-0.2,0.7-0.3,1-0.3c0.2,0,0.5,0,0.7,0.2c1.6,0.7,3.4,1.3,5.1,1.6c0.5,0.2,1,0.5,1.1,1l1.5,5.1c0.2,0.3,0.3,0.5,0.7,0.5
		c0.8,0,1.6,0,2.4,0.2c0.8,0,1.6,0,2.4-0.2c0.3,0,0.7-0.2,0.7-0.5l1.5-5.1c0.2-0.5,0.7-1,1.1-1.1c1.8-0.3,3.4-1,5.1-1.6
		c0.2-0.2,0.3-0.2,0.7-0.2c0.3,0,0.7,0.2,1,0.3l4.2,3.3c0.2,0.2,0.3,0.2,0.5,0.2s0.3,0,0.3-0.2c1.5-0.8,2.8-1.8,3.9-2.9
		c0.3-0.2,0.3-0.5,0.2-0.8l-1.8-4.9c-0.2-0.5,0-1.1,0.3-1.6c1.1-1.3,2.3-2.8,3.1-4.2c0.3-0.5,0.8-0.8,1.3-0.8l5.5,0.2
		c0.3,0,0.7-0.2,0.7-0.5c0.7-1.5,1.1-2.9,1.5-4.6c0-0.3,0-0.7-0.3-0.8L63.8,40z M36.1,55.9c-10.9,0-19.9-9-19.9-19.9
		s9-19.9,19.9-19.9c2.6,0,5.1,0.5,7.5,1.5c0.8,0.3,1.1,1.1,0.8,2c-0.2,0.7-0.8,1-1.5,1c-0.2,0-0.3,0-0.7-0.2c-2-0.8-4.1-1.1-6.4-1.1
		c-9.3,0-16.8,7.5-16.8,16.8s7.5,16.8,16.8,16.8s17-7.5,17-16.8c0-0.8,0-1.5-0.2-2.3c-0.2-1.3-0.5-2.6-1-3.8c-0.3-0.8,0.2-1.6,0.8-2
		c0.2,0,0.3-0.2,0.5-0.2c0.7,0,1.1,0.3,1.5,1c0.5,1.5,1,2.9,1.1,4.6c0.2,0.8,0.2,1.8,0.2,2.6C56,47,47,55.9,36.1,55.9z M46.8,36
		c0,5.9-4.7,10.8-10.8,10.8c-5.9,0-10.8-4.7-10.8-10.8c0-5.9,4.7-10.8,10.8-10.8C42,25.3,46.8,30.2,46.8,36z"/>
	<path class="st0" d="M36.1,28.4c-4.2,0-7.7,3.4-7.7,7.7s3.4,7.7,7.7,7.7s7.7-3.4,7.7-7.7S40.3,28.4,36.1,28.4z"/>
	<path d="M36.1,25.3c-5.9,0-10.8,4.7-10.8,10.8c0,5.9,4.7,10.8,10.8,10.8c5.9,0,10.8-4.7,10.8-10.8C46.8,30.2,42,25.3,36.1,25.3z
		 M36.1,43.7c-4.2,0-7.7-3.4-7.7-7.7s3.4-7.7,7.7-7.7s7.7,3.4,7.7,7.7S40.3,43.7,36.1,43.7z"/>
	<path d="M54.7,28.9c-0.2-0.7-0.8-1-1.5-1c-0.2,0-0.3,0-0.5,0.2c-0.8,0.3-1.1,1.1-0.8,2c0.5,1.1,0.8,2.4,1,3.8
		C53,34.6,53,35.2,53,36c0,9.3-7.5,16.8-16.8,16.8s-17-7.5-17-16.8s7.5-16.8,16.8-16.8c2.1,0,4.2,0.5,6.4,1.1c0.2,0,0.3,0.2,0.7,0.2
		c0.7,0,1.1-0.3,1.5-1c0.3-0.8,0-1.6-0.8-2c-2.4-1-4.9-1.5-7.5-1.5c-11.1,0-20.1,9-20.1,19.9s9,19.9,19.9,19.9S56,47,56,36
		c0-0.8,0-1.8-0.2-2.6C55.5,31.8,55.2,30.3,54.7,28.9z"/>
	<path d="M71.3,41.3l-4.6-3.1c-0.2-0.2-0.3-0.3-0.3-0.7c0-0.5,0-1,0-1.6c0-0.5,0-1.1,0-1.6c0-0.3,0.2-0.5,0.3-0.7l4.6-3.1
		c0.5-0.3,0.8-1,0.7-1.6c-0.5-2.8-1.5-5.5-2.8-8.2c-0.3-0.5-0.8-0.8-1.5-0.8L62,20.1c-0.3,0-0.5-0.2-0.7-0.3c-0.7-0.8-1.3-1.8-2-2.6
		c-0.2-0.2-0.2-0.5-0.2-0.7l1.8-5.2c0.2-0.7,0-1.3-0.5-1.6c-2.1-2-4.6-3.6-7-5.1c-0.2-0.2-0.5-0.2-0.8-0.2c-0.3,0-0.7,0.2-1,0.3
		l-4.4,3.4c0.2,0.2,0,0.2-0.2,0.2c-0.2,0-0.2,0-0.3,0c-1-0.3-2.1-0.7-3.1-1c-0.3,0-0.5-0.3-0.5-0.5l-1.6-5.2c-0.2-0.7-0.7-1-1.3-1.1
		c-1.1-0.2-2.3-0.3-3.4-0.3h-0.8l0,0c-1.5,0-2.9,0.2-4.4,0.3c-0.7,0-1.1,0.5-1.3,1.1l-1.6,5.2c0,0.3-0.3,0.5-0.5,0.5
		c-1,0.3-2.1,0.7-3.1,1c-0.2,0-0.2,0-0.3,0s-0.3,0-0.5-0.2l-4.6-3.4c-0.3-0.2-0.7-0.3-1-0.3c-0.3,0-0.5,0-0.8,0.2
		c-2.3,1.6-4.7,3.3-6.8,5.2c-0.5,0.5-0.7,1.1-0.5,1.6l2,5.2c0.2,0.3,0,0.5-0.2,0.8c-0.7,0.8-1.3,1.6-2,2.6c-0.2,0.2-0.3,0.3-0.7,0.3
		l-5.7-0.2c-0.7,0-1.1,0.3-1.5,0.8c-1.3,2.6-2.1,5.4-2.6,8.2c-0.2,0.7,0.2,1.3,0.7,1.6l4.6,3.1c0.2,0.2,0.3,0.3,0.3,0.7
		c0,0.5,0,1.1,0,1.6c0,0.5,0,1.1,0,1.6c0,0.3-0.2,0.5-0.3,0.7l-4.6,3.1c-0.5,0.3-0.8,1-0.7,1.6c0.5,2.8,1.5,5.5,2.8,8.2
		c0.3,0.5,0.8,0.8,1.5,0.8L10,52c0.3,0,0.5,0.2,0.7,0.3c0.7,0.8,1.3,1.8,2,2.6c0.2,0.2,0.2,0.5,0.2,0.8L11,61
		c-0.2,0.7,0,1.3,0.5,1.6c2.1,2,4.6,3.6,7,5.1c0.2,0.2,0.5,0.2,0.7,0.2c0.3,0,0.7-0.2,1-0.3l4.4-3.4c0.2-0.3,0.3-0.3,0.5-0.3
		c0.2,0,0.2,0,0.3,0c1,0.3,2.1,0.7,3.1,1c0.3,0,0.5,0.3,0.5,0.5l1.6,5.2c0.2,0.7,0.7,1,1.3,1.1c1.5,0.2,2.9,0.3,4.2,0.3l0,0
		c1.5,0,2.8-0.2,4.4-0.3c0.7,0,1.1-0.5,1.3-1.1l1.6-5.2c0-0.3,0.3-0.5,0.5-0.5c1-0.3,2.1-0.7,3.1-1c0.2,0,0.2,0,0.3,0
		c0.2,0,0.3,0,0.5,0.2l4.4,3.4c0.3,0.2,0.7,0.3,1,0.3c0.3,0,0.5,0,0.8-0.2c2.6-1.5,4.9-3.1,7-5.1c0.5-0.5,0.7-1.1,0.5-1.6l-2-5.2
		c-0.2-0.3,0-0.5,0.2-0.8c0.7-0.8,1.3-1.6,2-2.6c0.2-0.2,0.3-0.3,0.7-0.3L68,52c0.7,0,1.1-0.3,1.3-0.8c1.3-2.6,2.1-5.4,2.6-8.2
		C72.1,42.2,71.8,41.6,71.3,41.3z M67.1,48.4c-0.2,0.3-0.3,0.5-0.7,0.5l-5.5-0.2c-0.5,0-1.1,0.3-1.3,0.8c-1,1.5-2,2.9-3.1,4.2
		c-0.3,0.5-0.5,1-0.3,1.6l1.8,4.9c0.2,0.3,0,0.7-0.2,0.8c-1.3,1-2.6,2-3.9,2.9c-0.2,0-0.3,0.2-0.3,0.2c-0.2,0-0.3,0-0.5-0.2
		l-4.2-3.3c-0.3-0.2-0.7-0.3-1-0.3c-0.2,0-0.5,0-0.7,0.2c-1.6,0.7-3.4,1.3-5.1,1.6c-0.5,0.2-1,0.5-1.1,1.1l-1.6,4.7
		c-0.2,0.3-0.3,0.5-0.7,0.5c-0.8,0-1.6,0.2-2.4,0.2s-1.6,0-2.4-0.2c-0.3,0-0.7-0.2-0.7-0.5l-1.5-5.1c-0.2-0.5-0.7-1-1.1-1
		c-1.8-0.3-3.4-1-5.1-1.6c-0.2-0.2-0.3-0.2-0.7-0.2c-0.3,0-0.7,0.2-1,0.3l-4.2,3.3c-0.2,0.2-0.3,0.2-0.5,0.2c-0.2,0-0.3,0-0.3-0.2
		c-1.5-0.8-2.8-1.8-4.1-2.8c-0.2-0.2-0.3-0.5-0.2-0.8l1.8-4.9c0.2-0.5,0-1.1-0.3-1.6c-1.1-1.3-2.3-2.8-3.1-4.2
		c-0.3-0.5-0.8-0.8-1.3-0.8l-5.5,0.2c-0.3,0-0.7-0.2-0.7-0.5C4.8,47,4.3,45.5,4,43.9c0-0.3,0-0.7,0.3-0.8l4.1-2.9
		C8.8,39.8,9,39.3,9,38.7c-0.2-0.8-0.2-1.8-0.2-2.6c0-1,0-1.8,0.2-2.6c0-0.5-0.2-1.1-0.7-1.5L4,29c-0.3-0.2-0.3-0.5-0.3-0.8
		c0.3-1.5,0.8-3.1,1.5-4.6c0.2-0.3,0.3-0.5,0.7-0.5l5.5,0.2c0.5,0,1-0.3,1.3-0.8c0.8-1.5,2-2.9,3.1-4.2c0.3-0.5,0.5-1,0.3-1.6
		l-1.8-4.9c-0.2-0.2,0-0.5,0.2-0.7c1.3-1,2.6-2,3.9-2.9c0.2,0,0.3-0.2,0.3-0.2c0.2,0,0.3,0,0.5,0.2l4.2,3.3c0.3,0.2,0.7,0.3,1,0.3
		c0.2,0,0.5,0,0.7-0.2c1.6-0.7,3.4-1.3,5.1-1.6c0.7,0,1.1-0.5,1.3-1l1.5-5.1c0.2-0.3,0.3-0.5,0.7-0.5c0.8,0,1.6-0.2,2.4-0.2l0,0
		c0.3,0,0.8,0,1.1,0c0.3,0,0.8,0,1.3,0c0.3,0,0.7,0.2,0.7,0.5l1.5,5.1c0.3,0.7,0.8,1.1,1.3,1.1c1.8,0.3,3.4,1,5.1,1.6
		c0.2,0,0.3,0.2,0.7,0.2s0.7-0.2,1-0.3l4.2-3.3C52.9,8,53,8,53.2,8c0.2,0,0.3,0,0.3,0.2c1.5,0.8,2.8,1.8,4.1,2.8
		c0.3,0.2,0.3,0.5,0.2,0.8L56,16.6c-0.2,0.5,0,1.1,0.3,1.6c1.1,1.3,2.3,2.8,3.1,4.2c0.3,0.5,0.8,0.8,1.3,0.8l5.5-0.2
		c0.3,0,0.7,0.2,0.7,0.5c0.7,1.5,1.1,2.9,1.5,4.6c0,0.3,0,0.7-0.3,0.8L63.8,32c-0.5,0.3-0.7,0.8-0.7,1.5c0.2,1,0.2,1.8,0.2,2.6
		s0,1.6-0.2,2.6c0,0.5,0.2,1.1,0.7,1.5l4.4,2.9c0.3,0.2,0.3,0.5,0.3,0.8C68.2,45.3,67.7,46.8,67.1,48.4z"/>
</g>
</svg>
