<?xml version="1.0" encoding="utf-8"?>
<!-- Generator: Adobe Illustrator 24.1.1, SVG Export Plug-In . SVG Version: 6.00 Build 0)  -->
<svg version="1.1" id="Layer_1" xmlns="http://www.w3.org/2000/svg" xmlns:xlink="http://www.w3.org/1999/xlink" x="0px" y="0px"
	 viewBox="0 0 135.6 135.6" style="enable-background:new 0 0 135.6 135.6;" xml:space="preserve">
<style type="text/css">
	.st0{fill:none;}
	.st1{fill:#FFFFFF;}
</style>
<g>
	<polygon class="st0" points="61.8,77.5 43.5,59.2 33.7,69 51.9,87.3 61.8,97.1 71.6,87.3 112.9,46.1 103,36.2 	"/>
	<path class="st1" d="M67.8,0L67.8,0C30.4,0,0,30.4,0,67.8c0,37.4,30.3,67.8,67.8,67.8h0.1c37.4,0,67.8-30.3,67.8-67.8v-0.1
		C135.6,30.3,105.2,0,67.8,0z M71.6,87.3l-9.8,9.8l-9.8-9.8L33.7,69l9.8-9.8l18.3,18.3L103,36.2l9.8,9.8L71.6,87.3z"/>
</g>
</svg>
