<?xml version="1.0" encoding="utf-8"?>
<!-- Generator: Adobe Illustrator 24.1.1, SVG Export Plug-In . SVG Version: 6.00 Build 0)  -->
<svg version="1.1" id="Layer_1" xmlns="http://www.w3.org/2000/svg" xmlns:xlink="http://www.w3.org/1999/xlink" x="0px" y="0px"
	 viewBox="0 0 691.3 119.5" style="enable-background:new 0 0 691.3 119.5;" xml:space="preserve">
<style type="text/css">
	.st0{clip-path:url(#SVGID_2_);}
	.st1{clip-path:url(#SVGID_4_);fill:url(#SVGID_5_);}
	.st2{clip-path:url(#SVGID_7_);fill:url(#SVGID_8_);}
</style>
<g>
	<defs>
		<rect id="SVGID_1_" y="0" width="691.3" height="119.5"/>
	</defs>
	<clipPath id="SVGID_2_">
		<use xlink:href="#SVGID_1_"  style="overflow:visible;"/>
	</clipPath>
	<path class="st0" d="M98.4,83.9V0.8h32.9c7.4,0,13.3,2.1,17.7,6.3c4.4,4.2,6.6,9.9,6.6,17c0,3.1-0.9,6.1-2.6,9
		c-1.8,2.9-4.5,5.1-8.3,6.6c4.9,1.3,8.7,3.8,11.3,7.5c2.6,3.7,3.9,7.5,3.9,11.3c0,7.1-2.4,13.1-7.2,18.1c-4.8,4.9-11.2,7.4-19.1,7.4
		H98.4z M116,33.9h13.9c2.3,0,4.2-0.8,5.6-2.5c1.5-1.6,2.2-3.7,2.2-6.2c0-2.7-0.7-4.9-2-6.5c-1.4-1.6-3.3-2.4-5.9-2.4H116V33.9z
		 M116,68.4H133c2.8,0,5-1,6.6-3.1c1.6-2.1,2.4-4.4,2.4-7.2c0-2.6-0.8-4.9-2.4-6.9c-1.6-2-3.9-3-6.8-3H116V68.4z"/>
	<path class="st0" d="M168.8,71.1c-2.6-4.5-4-9.7-4-15.4c0-5.7,1.3-10.9,4-15.4c2.7-4.5,6.2-8,10.7-10.3s9.4-3.6,14.8-3.6
		c4,0,7.7,0.7,11.3,2.2c3.5,1.5,6.6,3.5,9.2,6c2.6,2.6,4.6,5.7,6.2,9.4c1.5,3.7,2.3,7.7,2.3,12.1c0,1.5-0.1,3.2-0.2,5.2h-41.3
		c0.4,3.1,2,5.4,4.7,7.1c2.8,1.7,5.8,2.5,9.2,2.5c2.4,0,4.8-0.5,7-1.4c2.2-0.9,4-2.2,5.3-4l12.2,8.3c-2.6,3.9-6.3,6.8-10.9,8.6
		c-4.6,1.8-9.6,2.7-14.8,2.7c-5.4,0-10.3-1.2-14.8-3.6C175,79.1,171.4,75.6,168.8,71.1 M181.8,50.8h24.4c-0.4-3.1-1.8-5.4-4.2-7
		c-2.4-1.6-4.9-2.4-7.7-2.4c-2.8,0-5.4,0.8-7.8,2.3C184,45.3,182.5,47.6,181.8,50.8"/>
	<polygon class="st0" points="224.1,40.9 224.1,27.6 234.4,27.6 234.4,6 251.1,6 251.1,27.6 262.9,27.6 262.9,40.9 251.1,40.9 
		251.1,83.9 234.4,83.9 234.4,40.9 	"/>
	<polygon class="st0" points="263.2,40.9 263.2,27.6 273.4,27.6 273.4,6 290.1,6 290.1,27.6 302,27.6 302,40.9 290.1,40.9 
		290.1,83.9 273.4,83.9 273.4,40.9 	"/>
	<path class="st0" d="M307,71.1c-2.6-4.5-4-9.7-4-15.4c0-5.7,1.3-10.9,4-15.4c2.7-4.5,6.2-8,10.7-10.3s9.4-3.6,14.8-3.6
		c4,0,7.7,0.7,11.3,2.2c3.5,1.5,6.6,3.5,9.2,6c2.6,2.6,4.6,5.7,6.2,9.4c1.5,3.7,2.3,7.7,2.3,12.1c0,1.5-0.1,3.2-0.2,5.2h-41.3
		c0.4,3.1,2,5.4,4.7,7.1c2.8,1.7,5.8,2.5,9.2,2.5c2.4,0,4.8-0.5,7-1.4c2.2-0.9,4-2.2,5.3-4l12.2,8.3c-2.6,3.9-6.3,6.8-10.9,8.6
		c-4.6,1.8-9.6,2.7-14.8,2.7c-5.4,0-10.3-1.2-14.8-3.6C313.2,79.1,309.6,75.6,307,71.1 M320,50.8h24.4c-0.4-3.1-1.8-5.4-4.2-7
		c-2.4-1.6-4.9-2.4-7.7-2.4c-2.8,0-5.4,0.8-7.8,2.3C322.2,45.3,320.6,47.6,320,50.8"/>
	<path class="st0" d="M367.8,83.9V27.6h16.7v13.5c1.3-4.8,3.5-8.5,6.5-11c3-2.5,6.1-3.7,9.4-3.7c3.8,0,7,0.7,9.7,2.1l-3,15
		c-2.3-1.1-5.2-1.7-8.6-1.7c-4.8,0-8.3,1.9-10.6,5.6c-2.3,3.7-3.4,9.4-3.4,16.9v19.7H367.8z"/>
	<path class="st0" d="M437.6,83.9V0.8h33.7c4.5,0,8.5,0.8,12.1,2.3c3.6,1.6,6.5,3.6,8.6,6.2c2.2,2.6,3.8,5.5,5,8.7
		c1.1,3.2,1.7,6.5,1.7,10c0,6.3-1.7,11.9-5.2,16.9c-3.5,4.9-8.5,8.1-15.1,9.5l20.2,29.5h-20.7l-18.6-28.7h-4v28.7H437.6z
		 M455.2,39.7h15c3.2,0,5.8-1.2,7.7-3.6c1.9-2.4,2.8-5.1,2.8-8.1c0-2.9-0.9-5.6-2.7-8c-1.8-2.5-4.2-3.7-7.3-3.7h-15.5V39.7z"/>
	<path class="st0" d="M501.5,55.7c0-4.4,0.8-8.4,2.4-12.2c1.6-3.8,3.8-6.9,6.5-9.3c2.7-2.5,5.8-4.4,9.2-5.8
		c3.4-1.4,6.9-2.1,10.5-2.1c1.5,0,3.2,0.2,4.9,0.5c1.7,0.3,3.8,1.1,6.1,2.3c2.3,1.2,4.1,2.8,5.5,4.7v-6.2h16.6v56.3h-16.6v-6.4
		c-1.6,2.4-4.1,4.3-7.4,5.6c-3.3,1.3-6.3,1.9-9,1.9c-4.9,0-9.5-1.2-13.8-3.5c-4.3-2.3-7.9-5.7-10.7-10.3
		C502.9,66.7,501.5,61.5,501.5,55.7 M523.1,46.1c-2.8,2.5-4.3,5.7-4.3,9.6s1.4,7.1,4.3,9.6c2.8,2.5,6.1,3.8,9.8,3.8
		c3.7,0,6.8-1.2,9.6-3.7c2.7-2.5,4.1-5.7,4.1-9.7c0-4-1.4-7.3-4.1-9.7c-2.7-2.5-5.9-3.7-9.6-3.7C529.2,42.3,526,43.5,523.1,46.1"/>
	<polygon class="st0" points="568.7,40.9 568.7,27.6 579,27.6 579,6 595.7,6 595.7,27.6 607.5,27.6 607.5,40.9 595.7,40.9 
		595.7,83.9 579,83.9 579,40.9 	"/>
	<path class="st0" d="M612.5,71.1c-2.7-4.5-4-9.7-4-15.4c0-5.7,1.3-10.9,4-15.4c2.7-4.5,6.2-8,10.7-10.3c4.5-2.4,9.4-3.6,14.8-3.6
		c4,0,7.7,0.7,11.3,2.2c3.5,1.5,6.6,3.5,9.2,6c2.6,2.6,4.6,5.7,6.2,9.4c1.5,3.7,2.3,7.7,2.3,12.1c0,1.5-0.1,3.2-0.2,5.2h-41.3
		c0.4,3.1,2,5.4,4.7,7.1c2.8,1.7,5.8,2.5,9.2,2.5c2.4,0,4.8-0.5,7-1.4c2.2-0.9,4-2.2,5.3-4l12.2,8.3c-2.6,3.9-6.3,6.8-10.9,8.6
		c-4.6,1.8-9.6,2.7-14.8,2.7c-5.4,0-10.3-1.2-14.8-3.6C618.8,79.1,615.2,75.6,612.5,71.1 M625.5,50.8h24.4c-0.4-3.1-1.8-5.4-4.2-7
		c-2.4-1.6-4.9-2.4-7.7-2.4c-2.7,0-5.4,0.8-7.8,2.3C627.8,45.3,626.2,47.6,625.5,50.8"/>
	<path class="st0" d="M691.3,30.7c0,6.8-5.5,12.2-12.2,12.2c-6.7,0-12.2-5.5-12.1-12.2c0-6.8,5.5-12.2,12.3-12.2
		C685.9,18.6,691.3,24.1,691.3,30.7 M679.1,40.9c5.6,0,10.2-4.6,10.2-10.2c0-5.6-4.6-10.2-10.2-10.2c-5.6,0-10.2,4.6-10.2,10.2
		C668.9,36.3,673.5,40.9,679.1,40.9"/>
	<path class="st0" d="M676.6,31.7v5.5h-2v-13c0.1,0,0.1,0,0.2,0c1.4,0,2.9-0.1,4.3-0.1c0.6,0,1.2,0,1.8,0.1c0.9,0.1,1.6,0.7,2,1.5
		c0.6,1.2,0.6,2.4,0.2,3.6c-0.3,0.9-1,1.5-1.8,1.8c-0.1,0-0.2,0.1-0.3,0.1c0,0,0,0,0,0.1c0.6,0.6,1,1.2,1.4,1.9
		c0.6,1.2,1.3,2.5,1.9,3.7c0,0,0,0.1,0.1,0.1c-0.1,0-0.1,0-0.2,0c-0.7,0-1.3,0-2,0c-0.1,0-0.2,0-0.3-0.2c-0.6-1.2-1.3-2.5-1.9-3.7
		c-0.2-0.4-0.5-0.8-0.8-1.1c-0.3-0.3-0.6-0.5-1-0.6C677.7,31.7,677.1,31.7,676.6,31.7 M676.6,29.6C676.6,29.6,676.6,29.6,676.6,29.6
		c1,0,2,0,3,0c0.4,0,0.8-0.1,1.1-0.3c0.6-0.5,0.7-1.1,0.6-1.8c-0.1-0.7-0.5-1.2-1.2-1.3c-0.2,0-0.4-0.1-0.6-0.1
		c-0.9,0-1.8,0-2.8,0.1c-0.1,0-0.1,0-0.2,0V29.6z"/>
	<polygon class="st0" points="440.9,98.4 446.3,115.4 451.7,98.4 455.1,98.4 455.1,119.3 452.5,119.3 452.5,111.2 452.7,103 
		447.3,119.3 445.3,119.3 439.9,103.1 440.1,111.2 440.1,119.3 437.5,119.3 437.5,98.4 	"/>
	<path class="st0" d="M487.1,110.7c0,2.8-0.6,5-1.8,6.6c-1.2,1.5-2.9,2.3-5.2,2.3c-2.1,0-3.8-0.7-5.1-2.2c-1.2-1.5-1.9-3.6-1.9-6.3
		v-3.9c0-2.8,0.6-5,1.8-6.5c1.2-1.6,2.9-2.4,5.1-2.4c2.2,0,3.9,0.8,5.1,2.3c1.2,1.5,1.9,3.7,1.9,6.5V110.7z M484.5,107
		c0-2.2-0.4-3.8-1.1-4.9c-0.7-1.1-1.8-1.6-3.3-1.6c-1.4,0-2.5,0.5-3.3,1.6c-0.7,1.1-1.1,2.7-1.1,4.8v3.7c0,2.1,0.4,3.7,1.1,4.9
		c0.7,1.1,1.8,1.7,3.3,1.7c1.5,0,2.6-0.5,3.3-1.5c0.7-1,1.1-2.6,1.1-4.7V107z"/>
	<path class="st0" d="M511.5,110.8h-3.7v8.4h-2.6V98.4h5.8c2,0,3.6,0.5,4.6,1.6c1,1.1,1.6,2.6,1.6,4.7c0,1.3-0.3,2.4-0.8,3.4
		c-0.6,1-1.4,1.7-2.4,2.2l4,8.8v0.2h-2.8L511.5,110.8z M507.8,108.6h3.2c1.1,0,2-0.4,2.6-1.1c0.7-0.7,1-1.7,1-2.8c0-2.7-1.2-4-3.6-4
		h-3.1V108.6z"/>
	<polygon class="st0" points="545.7,100.7 540.2,100.7 540.2,119.3 537.6,119.3 537.6,100.7 532.2,100.7 532.2,98.4 545.7,98.4 	"/>
	<path class="st0" d="M575.4,116.7l-0.5,0.6c-1.3,1.5-3.2,2.3-5.8,2.3c-2.2,0-4-0.7-5.3-2.2c-1.3-1.5-1.9-3.6-2-6.3v-4.1
		c0-2.9,0.6-5.1,1.8-6.6c1.2-1.5,2.9-2.2,5.2-2.2c2,0,3.5,0.6,4.7,1.7c1.1,1.1,1.7,2.7,1.9,4.7h-2.6c-0.1-1.3-0.5-2.3-1.1-3
		c-0.6-0.7-1.5-1.1-2.8-1.1c-1.5,0-2.6,0.5-3.3,1.5c-0.7,1-1.1,2.5-1.1,4.7v4.2c0,2.1,0.4,3.7,1.2,4.8c0.8,1.1,1.9,1.7,3.4,1.7
		c1.4,0,2.5-0.3,3.2-1l0.4-0.4v-4.8H569v-2.2h6.4V116.7z"/>
	<path class="st0" d="M603.4,113.8h-7l-1.6,5.4H592l6.7-20.8h2.2l6.7,20.8H605L603.4,113.8z M597,111.6h5.7l-2.8-9.5L597,111.6z"/>
	<path class="st0" d="M637.4,116.7l-0.5,0.6c-1.3,1.5-3.2,2.3-5.8,2.3c-2.2,0-4-0.7-5.3-2.2c-1.3-1.5-1.9-3.6-2-6.3v-4.1
		c0-2.9,0.6-5.1,1.8-6.6c1.2-1.5,2.9-2.2,5.2-2.2c2,0,3.5,0.6,4.7,1.7c1.1,1.1,1.7,2.7,1.9,4.7h-2.6c-0.1-1.3-0.5-2.3-1.1-3
		c-0.6-0.7-1.5-1.1-2.8-1.1c-1.5,0-2.6,0.5-3.3,1.5c-0.7,1-1.1,2.5-1.1,4.7v4.2c0,2.1,0.4,3.7,1.2,4.8c0.8,1.1,1.9,1.7,3.4,1.7
		c1.4,0,2.5-0.3,3.2-1l0.4-0.4v-4.8H631v-2.2h6.4V116.7z"/>
	<polygon class="st0" points="665.6,109.6 658.3,109.6 658.3,117 666.9,117 666.9,119.3 655.7,119.3 655.7,98.4 666.7,98.4 
		666.7,100.7 658.3,100.7 658.3,107.4 665.6,107.4 	"/>
</g>
<g>
	<defs>
		<path id="SVGID_3_" d="M29.7,71.5c-9.9-17-19.8-34-29.6-50.9l-0.1,0v64.1h0.5c25.8,0,51.6,0,77.4,0c0.4,0,0.5-0.1,0.5-0.5
			c0-27.6,0-55.1,0-82.7V1.2l-0.1,0C62.1,24.6,45.9,48,29.7,71.5"/>
	</defs>
	<clipPath id="SVGID_4_">
		<use xlink:href="#SVGID_3_"  style="overflow:visible;"/>
	</clipPath>
	
		<linearGradient id="SVGID_5_" gradientUnits="userSpaceOnUse" x1="0" y1="119.542" x2="1" y2="119.542" gradientTransform="matrix(78.3104 0 0 -78.3104 0 9404.3008)">
		<stop  offset="0" style="stop-color:#4766FE"/>
		<stop  offset="1" style="stop-color:#63E2FF"/>
	</linearGradient>
	<rect y="1.2" class="st1" width="78.3" height="83.5"/>
</g>
<g>
	<defs>
		<path id="SVGID_6_" d="M9.1,0C16.4,12.6,23.7,25.1,31,37.7C39.7,25.1,48.3,12.6,57,0H9.1z"/>
	</defs>
	<clipPath id="SVGID_7_">
		<use xlink:href="#SVGID_6_"  style="overflow:visible;"/>
	</clipPath>
	
		<linearGradient id="SVGID_8_" gradientUnits="userSpaceOnUse" x1="-6.605053e-06" y1="119.542" x2="1" y2="119.542" gradientTransform="matrix(47.936 0 0 -47.936 9.0833 5749.2061)">
		<stop  offset="0" style="stop-color:#4766FE"/>
		<stop  offset="1" style="stop-color:#63E2FF"/>
	</linearGradient>
	<rect x="9.1" y="0" class="st2" width="47.9" height="37.7"/>
</g>
</svg>
